<?xml version="1.0" standalone="no"?><!DOCTYPE svg PUBLIC "-//W3C//DTD SVG 1.1//EN" "http://www.w3.org/Graphics/SVG/1.1/DTD/svg11.dtd"><svg t="1720493872280" class="icon" viewBox="0 0 1024 1024" version="1.1" xmlns="http://www.w3.org/2000/svg" p-id="20831" xmlns:xlink="http://www.w3.org/1999/xlink" width="200" height="200"><path d="M364.8 503.4624m-262.4 0a262.4 262.4 0 1 0 524.8 0 262.4 262.4 0 1 0-524.8 0Z" fill="#FFF5C7" p-id="20832"></path><path d="M697.6 317.3632c-127.4112 0-233.536 90.8416-257.3312 211.264a165.5808 165.5808 0 0 0-77.5936-19.264c-91.904 0-166.4 75.8272-166.4 167.7312S270.7712 844.8 362.6624 844.8H697.6C842.5216 844.8 960 726.0032 960 581.0688c0-144.9088-117.4784-263.7056-262.4-263.7056z" fill="#CEDFF8" p-id="20833"></path><path d="M672 832h-204.8a12.8 12.8 0 1 1 0-25.6h204.8C809.6256 806.4 921.6 693.8368 921.6 555.4688c0-138.3552-111.9744-250.9184-249.6-250.9184-118.8224 0-221.76 84.5184-244.7872 200.9472a12.8 12.8 0 0 1-18.5344 8.832 151.68 151.68 0 0 0-71.616-17.7792c-84.6976 0-153.6 69.504-153.6 154.9312 0 85.4144 68.9024 154.9184 153.6 154.9184H396.8a12.8 12.8 0 1 1 0 25.6h-59.7376c-98.816 0-179.2-80.9728-179.2-180.5184s80.384-180.5312 179.2-180.5312c23.5008 0 46.9504 4.7104 68.6592 13.7344 31.232-120.1408 140.7232-205.7344 266.2656-205.7344 151.744 0 275.2 124.0448 275.2 276.5184C947.2 707.9552 823.744 832 672 832z" fill="#8FB7EE" p-id="20834"></path><path d="M111.0656 629.1712a12.8 12.8 0 0 1-11.1232-6.4256A273.2544 273.2544 0 0 1 64 487.232c0-150.5664 122.496-273.0624 273.0624-273.0624 61.0944 0 118.8608 19.7248 167.0528 57.0496a12.7872 12.7872 0 1 1-15.6672 20.2368 245.0816 245.0816 0 0 0-151.3856-51.6864C200.6144 239.7696 89.6 350.784 89.6 487.232c0 43.1488 11.2512 85.5936 32.5504 122.7904a12.8 12.8 0 0 1-11.0848 19.1488z" fill="#FFD732" p-id="20835"></path></svg>