<?xml version="1.0" standalone="no"?><!DOCTYPE svg PUBLIC "-//W3C//DTD SVG 1.1//EN" "http://www.w3.org/Graphics/SVG/1.1/DTD/svg11.dtd"><svg height="1130" node-id="1" sillyvg="true" template-height="1130" template-width="1500" version="1.1" viewBox="0 0 1500 1130" width="1500" xmlns="http://www.w3.org/2000/svg" xmlns:xlink="http://www.w3.org/1999/xlink"><defs node-id="61"></defs><path d="M 0.00 0.00 L 1500.00 0.00 L 1500.00 1129.90 L 0.00 1129.90 L 0.00 0.00 Z M 494.10 711.80 L 491.80 715.70 L 490.20 719.70 L 489.10 723.80 L 488.60 728.00 L 488.70 732.40 L 489.40 736.60 L 490.70 740.60 L 492.60 744.40 L 494.80 747.90 L 497.60 751.10 L 500.80 753.80 L 504.30 756.10 L 508.20 757.90 L 512.40 759.10 L 516.60 759.90 L 521.00 760.20 L 525.40 760.00 L 529.70 759.40 L 534.00 758.40 L 542.40 755.30 L 554.80 748.40 L 556.10 748.80 L 558.60 750.90 L 561.30 752.50 L 564.10 753.50 L 567.10 754.00 L 570.50 753.90 L 574.20 753.20 L 576.30 753.20 L 577.10 753.40 L 577.20 753.80 L 528.80 856.30 L 527.40 856.60 L 517.20 854.10 L 507.00 852.10 L 496.90 850.60 L 486.70 849.60 L 476.50 849.10 L 471.10 849.20 L 465.20 849.60 L 456.60 851.00 L 455.00 851.90 L 452.10 854.70 L 448.20 860.40 L 444.70 866.30 L 441.50 872.40 L 438.70 878.70 L 436.20 885.30 L 435.40 888.50 L 435.10 891.60 L 435.30 894.50 L 438.20 905.60 L 442.10 916.50 L 445.20 923.00 L 446.90 925.80 L 450.00 929.70 L 459.30 938.20 L 465.00 942.60 L 476.90 950.40 L 483.20 953.70 L 489.70 956.60 L 496.40 959.20 L 503.50 961.30 L 514.00 963.90 L 534.20 967.70 L 536.70 967.80 L 539.00 967.20 L 541.30 966.00 L 554.50 956.90 L 569.50 945.80 L 575.30 941.00 L 578.50 937.30 L 585.70 920.40 L 609.20 868.10 L 632.90 816.00 L 652.30 774.50 L 653.00 773.90 L 653.50 773.80 L 656.70 776.50 L 659.70 778.30 L 662.80 779.50 L 666.20 780.10 L 669.80 780.20 L 673.80 779.70 L 678.10 778.60 L 682.10 776.90 L 685.90 774.70 L 689.50 771.90 L 692.90 768.50 L 696.10 764.50 L 699.70 758.90 L 703.50 751.90 L 707.50 743.40 L 711.90 732.60 L 724.20 737.90 L 728.90 739.30 L 733.70 740.10 L 744.60 740.30 L 749.90 740.20 L 755.20 739.40 L 760.30 738.00 L 766.80 735.50 L 772.90 732.50 L 778.40 729.10 L 783.60 725.20 L 788.50 720.90 L 793.00 716.40 L 801.20 706.30 L 805.00 700.90 L 815.80 683.40 L 816.40 683.20 L 817.10 683.40 L 819.70 684.60 L 822.60 685.50 L 825.60 686.00 L 826.60 690.60 L 830.10 696.90 L 834.20 701.50 L 837.50 703.90 L 840.90 705.80 L 844.60 707.30 L 852.60 709.00 L 856.90 709.30 L 863.40 709.30 L 870.10 708.80 L 876.30 708.80 L 949.70 830.40 L 959.20 845.40 L 960.90 847.50 L 963.00 849.20 L 965.50 850.60 L 968.60 851.70 L 979.00 854.30 L 1008.80 860.30 L 1010.60 860.40 L 1012.20 860.00 L 1013.90 859.20 L 1023.40 852.60 L 1032.10 846.00 L 1034.40 843.20 L 1042.50 825.40 L 1050.60 806.20 L 1053.80 798.00 L 1056.30 789.80 L 1057.50 784.30 L 1058.20 778.70 L 1058.40 772.90 L 1057.60 766.70 L 1055.10 759.40 L 1051.40 751.60 L 1047.60 744.30 L 1043.40 737.50 L 1039.10 731.20 L 1035.40 726.60 L 1031.50 722.40 L 1027.20 718.70 L 1022.70 715.30 L 1017.90 712.40 L 1012.80 710.00 L 1007.50 708.10 L 1002.00 706.70 L 996.30 705.90 L 990.00 705.60 L 984.00 705.80 L 978.30 706.60 L 966.60 709.40 L 948.20 680.20 L 949.00 680.40 L 951.60 682.20 L 953.70 683.00 L 958.40 683.70 L 962.60 683.70 L 970.00 682.80 L 977.10 681.40 L 984.00 679.50 L 990.60 677.20 L 997.00 674.40 L 1003.20 671.10 L 1009.20 667.30 L 1015.00 663.10 L 1020.70 658.30 L 1025.70 653.30 L 1030.30 647.90 L 1034.40 642.10 L 1038.00 635.80 L 1040.20 631.00 L 1041.90 626.10 L 1043.10 621.20 L 1044.00 616.20 L 1044.50 606.10 L 1044.10 598.40 L 1043.10 590.50 L 1041.80 585.50 L 1048.00 583.10 L 1053.60 580.30 L 1058.80 577.10 L 1063.40 573.40 L 1067.70 569.30 L 1071.50 564.80 L 1075.00 559.70 L 1078.00 554.10 L 1080.70 548.00 L 1082.30 543.00 L 1083.20 538.30 L 1083.60 533.90 L 1083.40 529.60 L 1082.70 525.20 L 1081.50 521.20 L 1079.80 517.50 L 1077.60 514.00 L 1075.00 510.80 L 1072.10 508.00 L 1068.70 505.50 L 1064.90 503.30 L 1060.90 501.70 L 1056.60 500.40 L 1051.90 499.70 L 1045.80 499.30 L 1045.40 498.90 L 1045.40 498.50 L 1095.50 437.00 L 1114.80 414.40 L 1140.70 409.90 L 1153.30 407.30 L 1169.70 403.20 L 1173.30 401.60 L 1174.70 400.30 L 1175.90 398.60 L 1181.80 386.60 L 1187.00 374.90 L 1191.70 363.50 L 1195.80 352.30 L 1196.10 349.10 L 1195.10 342.80 L 1193.70 336.60 L 1191.80 330.30 L 1190.40 327.00 L 1188.40 323.90 L 1185.90 321.00 L 1175.90 311.60 L 1164.50 301.70 L 1151.40 291.10 L 1147.90 289.10 L 1140.70 287.40 L 1126.10 286.20 L 1109.00 286.40 L 1097.70 287.60 L 1087.60 291.50 L 1080.80 294.70 L 1074.90 298.00 L 1069.90 301.30 L 1065.50 304.70 L 1052.30 316.10 L 1038.90 328.30 L 1025.40 341.30 L 1011.70 355.00 L 997.90 369.60 L 984.00 385.10 L 984.30 382.40 L 983.10 377.80 L 981.50 373.50 L 979.30 369.50 L 976.70 365.80 L 973.70 362.40 L 970.40 359.20 L 966.70 356.40 L 962.90 354.00 L 958.70 351.80 L 950.10 348.60 L 942.40 347.10 L 933.40 346.80 L 930.40 346.10 L 928.00 344.30 L 922.70 338.50 L 917.20 333.30 L 909.20 327.30 L 900.60 322.50 L 895.90 320.70 L 891.00 319.20 L 885.50 318.60 L 885.00 318.20 L 885.10 317.50 L 891.50 310.00 L 894.50 305.80 L 899.60 296.90 L 901.80 292.20 L 903.70 287.40 L 906.50 277.70 L 907.90 270.60 L 908.80 263.80 L 909.30 257.20 L 908.90 249.00 L 908.20 244.70 L 905.90 236.20 L 904.30 232.00 L 902.40 227.90 L 898.10 220.40 L 895.60 216.90 L 890.20 211.10 L 885.10 206.90 L 879.90 203.30 L 874.50 200.30 L 868.90 197.90 L 863.10 196.10 L 857.10 194.80 L 850.80 194.10 L 844.20 194.00 L 837.20 194.50 L 832.90 195.20 L 828.90 196.30 L 825.20 197.80 L 821.80 199.80 L 820.40 200.00 L 819.40 199.10 L 815.80 191.20 L 808.20 177.20 L 802.90 169.20 L 797.30 161.70 L 791.30 154.80 L 784.90 148.30 L 778.00 142.30 L 770.80 136.80 L 763.10 131.70 L 754.90 127.10 L 746.30 122.90 L 738.70 119.80 L 731.10 117.20 L 723.60 115.20 L 716.10 113.80 L 708.60 112.90 L 701.10 112.40 L 693.50 112.60 L 685.80 113.30 L 678.10 114.50 L 670.30 116.30 L 663.10 118.50 L 656.00 121.00 L 649.00 124.00 L 642.20 127.40 L 635.60 131.20 L 629.30 135.40 L 623.30 139.90 L 617.50 144.90 L 612.10 150.10 L 607.20 155.80 L 602.60 161.70 L 598.50 168.00 L 596.80 171.20 L 594.20 178.10 L 593.60 178.80 L 592.00 179.70 L 586.40 181.30 L 581.10 183.30 L 576.00 185.80 L 571.00 188.70 L 566.30 192.20 L 561.70 196.20 L 557.20 200.70 L 551.80 206.90 L 547.00 213.00 L 542.70 219.40 L 538.90 226.10 L 536.60 230.80 L 532.70 241.00 L 530.50 248.80 L 528.70 256.80 L 527.30 265.00 L 526.40 273.60 L 526.00 282.40 L 526.00 291.60 L 526.60 301.10 L 527.40 307.60 L 528.50 313.90 L 530.10 320.00 L 532.10 326.00 L 537.10 337.50 L 540.20 343.00 L 545.00 350.80 L 546.40 354.00 L 546.20 354.20 L 545.40 353.90 L 534.40 349.00 L 529.20 347.40 L 524.10 346.50 L 518.90 346.20 L 513.70 346.50 L 508.60 347.40 L 503.50 348.80 L 498.60 350.80 L 493.90 353.20 L 489.40 356.20 L 483.40 361.40 L 480.60 364.60 L 476.70 369.60 L 473.20 375.10 L 470.10 380.90 L 467.40 386.70 L 465.10 392.60 L 463.40 398.10 L 461.30 406.80 L 459.80 415.60 L 458.70 424.40 L 458.00 442.00 L 458.20 450.90 L 458.70 457.20 L 459.50 463.10 L 460.70 468.50 L 464.20 478.80 L 463.90 479.10 L 463.20 479.00 L 458.70 477.60 L 454.10 476.60 L 449.50 476.10 L 438.00 477.10 L 435.40 477.70 L 430.20 479.60 L 425.40 481.80 L 421.10 484.40 L 417.30 487.30 L 413.80 490.60 L 410.20 494.70 L 406.90 499.10 L 404.00 503.60 L 401.40 508.30 L 398.50 514.90 L 396.20 521.70 L 394.50 528.80 L 393.20 536.00 L 392.50 543.30 L 392.30 550.70 L 392.60 558.00 L 393.40 565.30 L 394.50 572.50 L 396.10 579.70 L 400.60 593.80 L 399.60 594.40 L 387.30 594.90 L 374.60 595.90 L 361.60 597.40 L 357.30 598.10 L 355.30 598.80 L 353.50 600.20 L 350.50 603.40 L 345.70 609.70 L 327.00 640.40 L 318.20 655.90 L 317.70 657.20 L 317.70 658.60 L 318.10 660.00 L 329.00 682.90 L 340.70 706.30 L 356.90 736.60 L 360.50 742.50 L 362.30 744.70 L 364.40 746.50 L 367.00 747.90 L 373.00 750.20 L 380.40 752.30 L 389.40 754.30 L 392.60 754.60 L 395.00 754.40 L 396.80 753.80 L 401.50 751.10 L 416.90 740.30 L 434.30 727.10 L 443.50 719.30 L 494.10 711.80 Z M 1025.00 200.40 L 1028.80 201.00 L 1032.20 202.00 L 1035.20 203.40 L 1038.10 205.00 L 1040.60 207.00 L 1043.50 209.90 L 1045.90 213.30 L 1047.90 217.30 L 1049.60 222.00 L 1052.10 233.60 L 1053.30 246.90 L 1054.70 248.80 L 1056.50 249.40 L 1057.30 249.00 L 1058.40 247.80 L 1059.80 245.50 L 1060.20 244.10 L 1061.60 225.30 L 1062.60 218.90 L 1063.50 214.70 L 1066.20 206.80 L 1068.10 203.20 L 1070.50 199.80 L 1073.40 196.60 L 1076.40 194.60 L 1080.80 192.90 L 1081.90 191.60 L 1082.10 190.40 L 1081.80 189.10 L 1080.50 187.90 L 1075.50 186.70 L 1072.10 185.40 L 1069.00 183.60 L 1066.30 181.30 L 1063.80 178.60 L 1061.50 175.60 L 1057.90 168.90 L 1056.50 165.30 L 1055.50 161.50 L 1054.20 148.50 L 1053.60 147.40 L 1052.70 146.60 L 1051.30 146.10 L 1049.50 146.40 L 1047.80 148.10 L 1046.60 161.90 L 1045.90 166.90 L 1044.70 171.50 L 1043.10 175.70 L 1041.10 179.50 L 1038.80 183.10 L 1036.00 186.30 L 1032.80 189.20 L 1029.20 191.90 L 1023.40 195.40 L 1022.60 196.60 L 1022.40 197.50 L 1022.70 198.50 L 1023.50 199.70 L 1025.00 200.40 Z M 371.40 255.00 L 368.70 272.80 L 367.30 278.80 L 365.30 284.60 L 362.90 290.10 L 360.90 293.60 L 358.60 296.80 L 355.90 299.80 L 352.80 302.00 L 345.70 304.90 L 344.20 305.90 L 343.20 307.00 L 342.80 308.40 L 342.80 310.10 L 343.40 311.20 L 345.60 312.40 L 351.20 313.10 L 355.00 314.00 L 358.50 315.40 L 361.50 317.30 L 364.30 319.60 L 366.80 322.40 L 375.00 334.10 L 382.20 346.60 L 385.20 353.10 L 395.30 379.90 L 396.10 381.00 L 397.40 381.90 L 398.80 382.30 L 400.30 382.20 L 401.50 381.50 L 402.60 379.90 L 403.30 352.70 L 404.70 338.00 L 406.90 326.70 L 408.60 321.20 L 410.70 315.90 L 413.20 310.80 L 416.20 306.00 L 419.80 301.40 L 425.50 295.80 L 428.60 294.50 L 431.70 294.10 L 432.50 293.50 L 432.90 292.70 L 432.50 289.90 L 431.00 287.90 L 429.30 287.00 L 423.30 286.00 L 419.80 285.10 L 413.10 282.20 L 407.10 278.10 L 403.10 274.40 L 399.60 270.30 L 392.40 259.90 L 386.00 247.80 L 384.50 243.90 L 383.00 238.90 L 381.60 232.60 L 380.30 224.60 L 379.80 223.20 L 379.00 222.10 L 377.80 221.30 L 376.40 221.00 L 375.20 221.10 L 374.00 221.90 L 373.30 222.80 L 373.00 224.00 L 372.80 239.10 L 371.40 255.00 Z M 993.60 233.40 L 993.10 226.70 L 992.70 225.80 L 992.00 225.20 L 991.20 225.10 L 990.50 225.40 L 989.90 226.10 L 988.80 228.70 L 986.00 232.70 L 979.70 235.60 L 979.30 236.10 L 979.30 237.10 L 984.20 240.70 L 985.00 241.70 L 985.60 242.90 L 986.70 248.60 L 987.00 249.20 L 988.10 249.70 L 989.80 248.60 L 990.60 247.40 L 992.10 243.40 L 993.20 241.70 L 1000.00 240.50 L 1000.80 240.00 L 1001.00 239.30 L 1000.60 238.50 L 999.20 237.10 L 997.20 235.90 L 994.60 234.90 L 993.60 233.40 Z M 1094.00 243.50 L 1097.70 241.80 L 1098.40 241.20 L 1098.60 240.30 L 1098.30 239.50 L 1093.00 236.50 L 1091.90 235.20 L 1089.40 229.20 L 1087.90 228.90 L 1087.30 229.30 L 1085.40 231.90 L 1083.10 235.90 L 1079.40 238.30 L 1079.00 239.00 L 1079.10 240.60 L 1079.50 241.30 L 1083.60 244.40 L 1084.70 245.70 L 1085.50 247.20 L 1087.00 251.50 L 1087.90 252.00 L 1089.40 251.20 L 1089.90 250.30 L 1091.60 245.30 L 1092.50 244.30 L 1094.00 243.50 Z M 330.70 414.50 L 331.80 411.70 L 333.10 409.50 L 336.30 406.40 L 340.40 404.40 L 348.70 402.90 L 349.20 402.30 L 349.50 401.00 L 348.50 399.90 L 341.10 397.50 L 338.80 396.20 L 334.60 392.30 L 333.10 390.40 L 331.50 387.20 L 330.40 383.60 L 329.10 375.70 L 328.80 374.80 L 327.50 373.50 L 325.50 373.40 L 324.10 374.50 L 322.50 381.00 L 320.90 385.80 L 319.50 388.80 L 317.80 391.50 L 315.70 394.00 L 313.20 396.00 L 310.20 397.70 L 305.30 399.60 L 304.60 400.50 L 304.40 401.70 L 304.70 402.70 L 305.50 403.30 L 311.30 405.90 L 313.80 407.60 L 316.10 409.90 L 318.60 413.30 L 320.50 416.60 L 322.00 419.90 L 322.90 423.10 L 323.40 426.30 L 323.80 427.60 L 324.60 428.50 L 325.60 428.90 L 327.00 428.80 L 328.30 427.60 L 329.00 422.30 L 330.70 414.50 Z M 1114.80 686.70 L 1115.90 678.70 L 1116.80 674.60 L 1118.00 670.70 L 1119.70 666.90 L 1121.80 663.60 L 1123.50 661.60 L 1125.40 659.90 L 1127.70 658.50 L 1131.70 657.10 L 1135.80 656.20 L 1136.90 655.60 L 1137.30 654.90 L 1137.20 654.20 L 1135.70 652.70 L 1131.30 651.90 L 1128.10 650.80 L 1125.60 649.40 L 1123.30 647.50 L 1121.30 645.40 L 1119.70 642.90 L 1117.80 638.90 L 1116.40 634.30 L 1114.20 623.50 L 1113.40 622.90 L 1112.30 622.70 L 1111.60 622.80 L 1110.70 623.60 L 1108.40 633.90 L 1106.70 638.60 L 1104.70 642.70 L 1102.90 645.20 L 1100.90 647.40 L 1098.50 649.30 L 1095.80 650.70 L 1092.60 651.80 L 1087.70 652.70 L 1087.10 653.40 L 1087.10 655.20 L 1087.90 656.10 L 1092.20 656.90 L 1097.80 659.00 L 1099.90 660.30 L 1102.40 662.50 L 1104.40 665.10 L 1106.00 668.00 L 1107.20 671.10 L 1108.80 678.00 L 1110.70 689.90 L 1111.90 690.60 L 1112.70 690.50 L 1114.20 688.80 L 1114.80 686.70 Z M 318.40 721.00 L 316.80 719.90 L 314.90 719.40 L 313.40 720.70 L 313.10 721.80 L 313.30 723.00 L 315.30 729.10 L 318.00 735.10 L 321.20 741.10 L 325.10 747.10 L 326.60 748.10 L 327.60 748.10 L 328.90 747.60 L 329.90 746.70 L 330.50 745.30 L 330.60 744.10 L 326.20 736.70 L 322.50 729.80 L 319.20 722.10 L 318.40 721.00 Z M 371.30 778.40 L 371.70 777.30 L 371.60 776.20 L 371.20 775.20 L 370.30 774.40 L 352.30 763.50 L 351.20 763.10 L 350.10 763.20 L 349.10 763.60 L 348.20 764.60 L 347.80 765.70 L 347.90 766.80 L 348.30 767.80 L 349.20 768.60 L 367.20 779.50 L 368.30 779.90 L 369.40 779.80 L 370.40 779.40 L 371.30 778.40 Z M 1090.30 792.00 L 1089.30 803.30 L 1087.50 813.00 L 1087.60 814.10 L 1088.10 815.10 L 1089.30 816.20 L 1090.50 816.50 L 1092.00 816.20 L 1093.10 815.50 L 1094.00 814.30 L 1094.60 812.60 L 1096.70 799.10 L 1097.20 792.70 L 1097.10 791.20 L 1096.50 790.10 L 1095.60 789.20 L 1094.30 788.60 L 1093.40 788.60 L 1091.10 789.90 L 1090.30 792.00 Z M 386.90 841.50 L 384.50 838.80 L 382.50 835.80 L 381.00 832.60 L 379.40 827.30 L 378.40 821.70 L 378.10 820.90 L 376.70 820.20 L 375.80 820.40 L 375.10 821.00 L 372.80 829.40 L 371.40 832.70 L 369.70 835.90 L 367.60 838.80 L 364.80 841.70 L 362.60 843.30 L 360.00 844.50 L 354.60 845.80 L 353.80 846.20 L 353.50 846.80 L 353.70 847.90 L 354.30 848.70 L 358.90 849.80 L 362.00 850.90 L 364.50 852.40 L 366.60 854.20 L 368.40 856.40 L 369.90 858.90 L 371.50 862.90 L 372.60 867.40 L 373.70 876.70 L 374.50 878.40 L 376.30 879.00 L 377.70 878.00 L 379.10 869.50 L 381.50 861.30 L 382.60 858.70 L 385.60 854.20 L 387.40 852.50 L 389.60 851.10 L 392.10 850.20 L 397.80 849.20 L 398.90 848.20 L 398.90 847.60 L 398.30 846.30 L 392.10 844.50 L 389.40 843.30 L 386.90 841.50 Z M 838.40 911.40 L 834.70 904.30 L 831.20 896.70 L 828.00 888.50 L 825.10 879.70 L 822.40 870.20 L 819.80 858.80 L 817.70 847.80 L 814.80 824.80 L 813.40 823.00 L 812.30 822.50 L 810.30 822.50 L 808.80 824.70 L 808.20 826.80 L 805.60 844.50 L 802.50 861.80 L 800.30 872.50 L 797.50 882.90 L 794.20 893.20 L 791.40 900.80 L 788.10 908.20 L 784.50 915.40 L 780.50 922.50 L 777.80 926.60 L 774.40 930.90 L 770.60 935.00 L 766.30 938.70 L 763.30 940.90 L 756.00 944.80 L 755.10 945.50 L 754.00 947.60 L 754.20 949.80 L 754.80 950.70 L 756.00 951.30 L 764.30 953.80 L 768.30 955.50 L 772.10 957.70 L 777.60 961.80 L 782.50 966.30 L 786.90 971.00 L 791.00 976.10 L 794.60 981.50 L 797.90 987.10 L 803.50 998.90 L 805.90 1005.10 L 809.10 1014.50 L 811.80 1024.00 L 812.90 1028.90 L 814.00 1036.20 L 814.60 1037.10 L 815.50 1037.60 L 817.50 1037.70 L 818.60 1037.20 L 820.20 1035.30 L 820.70 1033.90 L 825.00 1007.20 L 828.60 992.20 L 831.10 984.20 L 834.40 976.00 L 839.60 965.60 L 842.60 960.70 L 845.90 956.10 L 849.60 952.10 L 853.50 948.60 L 856.60 946.20 L 860.00 944.30 L 863.50 942.80 L 867.20 941.70 L 875.30 940.40 L 876.60 939.20 L 877.00 938.40 L 877.20 936.70 L 876.80 935.50 L 876.00 934.60 L 874.50 934.00 L 862.60 931.40 L 852.60 926.60 L 849.50 924.50 L 846.50 922.00 L 843.70 919.00 L 841.00 915.50 L 838.40 911.40 Z M 1082.60 853.20 L 1083.00 852.00 L 1083.00 850.80 L 1082.40 849.70 L 1081.40 848.70 L 1080.20 848.30 L 1079.00 848.40 L 1077.90 848.90 L 1077.00 849.80 L 1065.90 868.60 L 1065.50 869.80 L 1065.60 871.00 L 1066.10 872.10 L 1067.10 873.10 L 1068.30 873.50 L 1069.50 873.50 L 1070.60 872.90 L 1071.50 872.00 L 1082.60 853.20 Z M 726.60 861.00 L 724.90 862.10 L 723.20 865.50 L 721.30 868.00 L 718.90 870.10 L 715.90 871.90 L 715.20 872.50 L 714.90 873.30 L 715.10 874.10 L 715.70 874.80 L 721.20 878.40 L 722.50 879.70 L 723.50 881.40 L 724.80 885.00 L 726.10 886.10 L 727.10 886.10 L 727.70 885.80 L 728.50 884.90 L 728.90 881.80 L 729.70 880.00 L 730.90 878.50 L 732.50 877.20 L 736.20 875.20 L 737.10 873.90 L 737.00 873.20 L 736.40 872.50 L 731.10 868.50 L 730.10 867.20 L 728.00 861.50 L 727.20 861.00 L 726.60 861.00 Z M 441.60 972.70 L 425.50 957.30 L 424.40 957.30 L 423.90 957.60 L 422.40 959.60 L 422.30 960.70 L 422.70 962.10 L 423.90 964.30 L 425.90 966.60 L 432.60 973.10 L 435.00 975.10 L 437.20 976.20 L 438.70 976.50 L 440.50 976.00 L 441.90 974.30 L 441.90 973.20 L 441.60 972.70 Z M 470.60 994.20 L 470.70 992.50 L 470.30 991.60 L 469.20 990.30 L 467.60 989.30 L 465.70 988.70 L 464.10 988.70 L 462.40 989.40 L 461.70 990.90 L 462.20 992.70 L 463.30 994.00 L 464.90 995.00 L 466.80 995.60 L 468.40 995.60 L 469.40 995.30 L 470.60 994.20 Z" fill="#0e0a16" fill-opacity="0" fill-rule="nonzero" node-id="63" stroke="none" target-height="1129.9" target-width="1500" target-x="0" target-y="0"></path><path d="M 984.20 382.40 L 983.20 382.40 L 982.40 382.00 L 979.30 376.30 L 976.40 371.80 L 972.90 367.50 L 968.90 363.50 L 965.80 361.00 L 962.40 358.80 L 958.60 356.80 L 950.50 353.60 L 939.90 351.20 L 933.80 350.60 L 932.80 351.10 L 932.80 352.30 L 936.80 358.70 L 936.50 359.60 L 935.90 360.10 L 934.10 360.00 L 931.90 354.60 L 931.90 351.80 L 929.30 351.10 L 925.90 349.40 L 907.60 336.30 L 882.80 322.00 L 881.80 321.10 L 881.30 319.90 L 881.30 318.60 L 881.80 317.30 L 889.00 306.80 L 896.10 295.00 L 897.60 291.80 L 901.40 280.60 L 902.20 276.70 L 903.00 266.30 L 902.50 255.40 L 901.70 250.00 L 900.50 245.00 L 898.50 238.80 L 896.30 233.10 L 892.50 226.10 L 887.70 220.10 L 884.70 217.40 L 876.80 212.30 L 872.00 209.90 L 861.00 205.60 L 856.50 204.40 L 852.00 203.70 L 847.40 203.30 L 840.50 203.40 L 833.50 204.00 L 819.70 205.70 L 817.60 205.70 L 815.80 205.30 L 814.30 204.40 L 813.10 203.00 L 812.10 201.10 L 809.10 194.30 L 805.80 187.70 L 802.20 181.40 L 798.20 175.40 L 789.50 164.10 L 779.80 153.20 L 774.60 148.10 L 769.20 143.50 L 763.50 139.50 L 756.80 135.60 L 750.00 132.10 L 743.00 129.20 L 735.80 126.70 L 728.50 124.60 L 720.90 122.90 L 705.50 120.60 L 697.50 120.00 L 691.80 119.90 L 686.00 120.40 L 680.00 121.40 L 671.60 123.50 L 663.60 125.90 L 656.10 128.70 L 645.90 133.30 L 633.20 140.90 L 629.40 143.60 L 621.20 151.00 L 607.10 166.30 L 607.30 167.30 L 607.70 167.60 L 615.20 169.50 L 619.00 171.90 L 620.50 173.50 L 622.80 177.20 L 624.30 182.70 L 624.40 186.20 L 624.00 191.40 L 622.40 201.40 L 620.60 208.80 L 618.30 216.10 L 612.90 231.30 L 613.60 231.90 L 614.00 231.60 L 617.60 226.40 L 621.70 221.20 L 626.40 216.00 L 632.40 210.30 L 635.80 207.70 L 639.30 205.60 L 641.70 204.60 L 644.20 204.00 L 646.70 203.80 L 649.20 204.10 L 651.70 205.00 L 654.40 206.60 L 656.00 208.10 L 657.30 209.90 L 658.30 212.10 L 659.30 215.50 L 659.90 219.20 L 659.80 226.30 L 660.10 227.70 L 661.40 227.10 L 668.30 221.40 L 672.00 219.20 L 676.20 217.40 L 679.40 216.50 L 682.60 216.10 L 685.80 216.10 L 688.70 216.70 L 690.50 217.40 L 693.50 219.70 L 694.60 221.30 L 695.40 223.20 L 695.90 225.70 L 695.90 228.00 L 695.50 230.50 L 693.80 235.40 L 691.60 239.90 L 684.40 252.60 L 681.50 256.70 L 678.30 260.60 L 674.80 263.90 L 672.20 265.90 L 669.50 267.60 L 659.70 271.90 L 657.60 272.50 L 656.50 272.40 L 653.30 271.20 L 651.50 270.00 L 650.10 268.60 L 648.40 266.10 L 647.20 263.20 L 646.40 260.20 L 645.30 249.40 L 644.50 248.30 L 643.70 248.30 L 633.30 265.50 L 625.60 277.60 L 622.90 281.40 L 615.70 289.30 L 611.10 293.50 L 606.80 296.40 L 604.30 297.50 L 602.00 298.00 L 599.50 297.90 L 597.10 297.20 L 594.80 296.00 L 592.70 294.50 L 591.00 292.60 L 589.60 289.70 L 589.30 288.10 L 589.00 279.60 L 589.40 271.20 L 590.40 260.70 L 590.20 260.20 L 589.80 260.40 L 588.50 262.30 L 581.40 274.30 L 574.30 285.40 L 567.20 295.70 L 561.90 302.60 L 554.20 311.30 L 551.70 313.20 L 549.00 314.70 L 546.20 315.60 L 544.20 315.90 L 540.30 315.20 L 535.60 313.00 L 534.80 312.80 L 534.20 313.00 L 533.70 313.60 L 533.60 314.40 L 534.80 319.70 L 536.40 325.00 L 539.60 332.70 L 543.20 342.80 L 545.90 347.00 L 546.70 347.30 L 547.90 350.30 L 548.80 353.30 L 548.90 354.70 L 548.60 355.80 L 546.90 357.40 L 544.50 357.80 L 539.40 357.00 L 530.40 354.60 L 526.90 354.00 L 518.20 353.80 L 512.90 354.30 L 511.30 355.00 L 510.60 356.60 L 509.70 362.80 L 508.40 369.20 L 506.50 375.70 L 500.90 390.40 L 501.20 391.80 L 502.50 391.90 L 511.70 385.30 L 514.90 383.90 L 518.40 382.90 L 525.50 381.90 L 528.60 381.90 L 530.50 382.40 L 532.00 383.70 L 533.40 385.80 L 534.20 388.10 L 534.40 390.60 L 534.20 393.10 L 532.70 398.60 L 530.80 402.60 L 528.40 406.60 L 523.10 413.90 L 518.30 419.20 L 516.20 421.00 L 513.60 422.40 L 510.60 423.40 L 508.70 423.60 L 507.00 423.40 L 505.50 422.60 L 503.50 421.00 L 501.70 418.70 L 500.30 416.00 L 497.20 408.50 L 496.40 407.90 L 495.50 408.10 L 487.10 416.90 L 483.60 419.20 L 479.50 420.60 L 477.60 420.70 L 475.20 420.10 L 473.60 419.00 L 473.00 419.30 L 467.90 426.70 L 465.30 431.50 L 463.60 436.80 L 463.00 446.80 L 463.00 452.20 L 463.40 456.60 L 466.00 475.20 L 465.90 477.50 L 465.20 480.70 L 463.70 481.80 L 462.80 481.90 L 454.60 481.80 L 446.20 482.20 L 437.60 483.20 L 433.70 484.00 L 430.00 485.30 L 426.50 486.90 L 419.90 491.30 L 416.90 494.00 L 411.60 500.00 L 409.30 503.30 L 406.20 508.40 L 403.80 513.70 L 401.40 520.50 L 399.40 527.30 L 398.00 534.20 L 397.10 541.20 L 396.70 548.30 L 396.80 555.50 L 397.40 562.90 L 398.50 570.40 L 400.30 578.80 L 402.70 588.40 L 403.10 591.80 L 403.70 592.80 L 404.70 593.50 L 406.00 593.90 L 407.80 593.90 L 431.10 592.40 L 454.60 591.40 L 478.20 590.80 L 502.00 590.70 L 525.90 591.00 L 531.00 590.20 L 550.60 591.90 L 557.50 592.20 L 558.20 592.60 L 558.40 593.40 L 557.70 594.80 L 556.10 596.30 L 553.60 597.40 L 551.90 597.50 L 506.70 597.40 L 490.50 596.90 L 489.10 597.20 L 488.80 597.50 L 492.10 608.50 L 494.80 619.00 L 496.90 629.30 L 498.40 639.60 L 499.70 652.30 L 500.60 664.90 L 501.10 677.50 L 501.00 689.90 L 500.60 702.30 L 500.90 703.00 L 501.60 703.20 L 544.80 696.50 L 545.80 698.70 L 546.10 700.60 L 545.90 702.50 L 516.30 708.10 L 501.10 710.60 L 494.90 712.20 L 494.10 712.10 L 443.30 719.30 L 434.10 727.10 L 425.50 733.90 L 401.30 751.10 L 396.60 753.80 L 394.80 754.40 L 392.40 754.60 L 389.20 754.30 L 380.20 752.30 L 372.80 750.20 L 366.80 747.90 L 364.20 746.50 L 362.10 744.70 L 360.30 742.50 L 353.10 730.30 L 340.50 706.30 L 328.80 682.90 L 317.90 660.00 L 317.50 658.60 L 317.50 657.20 L 318.00 655.90 L 336.00 625.00 L 345.50 609.70 L 350.30 603.40 L 353.30 600.20 L 355.10 598.80 L 357.10 598.10 L 361.40 597.40 L 374.40 595.80 L 387.10 594.80 L 399.40 594.40 L 400.10 594.30 L 400.40 593.90 L 395.90 579.70 L 394.30 572.50 L 393.20 565.30 L 392.40 558.00 L 392.10 550.70 L 392.30 543.30 L 393.00 536.00 L 394.30 528.80 L 396.00 521.70 L 398.30 514.90 L 401.20 508.30 L 403.80 503.60 L 406.70 499.10 L 410.00 494.70 L 413.60 490.60 L 417.10 487.40 L 420.90 484.50 L 425.20 481.90 L 430.00 479.60 L 435.20 477.70 L 437.80 477.10 L 449.30 476.10 L 453.90 476.60 L 458.50 477.60 L 463.00 479.00 L 463.70 479.20 L 464.00 478.90 L 460.50 468.40 L 459.30 463.00 L 458.50 457.20 L 457.80 442.00 L 457.90 433.20 L 458.50 424.40 L 459.50 415.60 L 461.10 406.80 L 463.20 398.10 L 464.90 392.60 L 467.20 386.70 L 469.90 380.90 L 473.00 375.10 L 476.60 369.60 L 483.30 361.40 L 489.20 356.20 L 493.70 353.20 L 498.40 350.80 L 503.30 348.80 L 508.40 347.40 L 513.50 346.50 L 518.70 346.20 L 523.90 346.50 L 529.00 347.40 L 534.20 349.00 L 545.20 353.90 L 545.90 354.20 L 546.20 354.00 L 544.80 350.80 L 540.00 343.00 L 536.90 337.50 L 531.90 325.90 L 529.90 320.00 L 528.40 313.80 L 527.20 307.60 L 526.40 301.10 L 525.80 291.60 L 525.80 282.40 L 526.20 273.60 L 527.10 265.00 L 528.50 256.80 L 530.30 248.80 L 532.50 241.00 L 536.40 230.80 L 538.70 226.20 L 542.50 219.50 L 546.80 213.10 L 551.60 206.90 L 557.00 200.70 L 561.50 196.20 L 566.10 192.20 L 570.80 188.70 L 575.80 185.80 L 580.90 183.30 L 586.20 181.30 L 591.80 179.70 L 593.40 178.80 L 594.00 178.10 L 596.70 171.10 L 598.30 168.00 L 602.40 161.70 L 607.00 155.80 L 611.90 150.10 L 617.30 144.80 L 623.00 139.90 L 629.10 135.40 L 635.30 131.20 L 642.00 127.40 L 648.80 124.00 L 655.70 121.00 L 662.80 118.40 L 670.10 116.30 L 677.90 114.50 L 685.60 113.30 L 693.30 112.60 L 700.90 112.40 L 708.40 112.90 L 715.90 113.80 L 723.40 115.20 L 730.90 117.20 L 738.50 119.80 L 746.10 122.90 L 754.80 127.10 L 762.90 131.70 L 770.60 136.80 L 777.90 142.30 L 784.70 148.30 L 791.10 154.80 L 797.10 161.70 L 802.80 169.20 L 808.00 177.20 L 811.90 183.90 L 819.60 199.70 L 820.90 200.10 L 825.00 197.80 L 828.70 196.30 L 832.70 195.20 L 837.00 194.50 L 844.00 194.00 L 850.60 194.20 L 856.90 194.90 L 862.90 196.20 L 868.70 198.00 L 874.30 200.40 L 879.70 203.30 L 884.90 206.90 L 890.00 211.10 L 892.70 213.80 L 897.90 220.50 L 901.20 226.00 L 904.10 232.10 L 907.00 240.50 L 908.70 249.10 L 909.10 257.20 L 908.60 263.80 L 907.70 270.60 L 906.30 277.70 L 903.50 287.30 L 901.60 292.10 L 899.40 296.80 L 894.30 305.70 L 891.30 310.00 L 884.90 317.50 L 884.80 318.20 L 885.30 318.60 L 890.80 319.20 L 895.70 320.70 L 900.40 322.50 L 909.00 327.30 L 917.00 333.30 L 922.50 338.50 L 927.80 344.30 L 930.20 346.20 L 933.20 346.80 L 942.30 347.10 L 949.90 348.60 L 958.60 351.80 L 962.70 353.90 L 966.60 356.40 L 970.20 359.20 L 973.60 362.30 L 976.60 365.70 L 979.20 369.50 L 981.30 373.50 L 983.00 377.80 L 984.20 382.40 Z M 370.70 742.70 L 381.20 746.10 L 392.10 748.40 L 394.20 748.20 L 400.40 744.00 L 440.30 714.00 L 444.50 711.60 L 449.30 710.40 L 470.00 708.20 L 480.30 706.60 L 486.40 705.00 L 487.50 704.20 L 488.00 702.90 L 488.20 689.50 L 487.80 675.60 L 487.10 664.60 L 485.90 654.00 L 484.30 643.60 L 482.30 633.40 L 479.90 623.50 L 477.00 613.80 L 473.70 604.30 L 472.50 601.80 L 471.00 599.80 L 469.10 598.10 L 467.90 597.70 L 452.60 598.20 L 422.10 600.00 L 390.70 602.40 L 359.40 605.40 L 357.80 606.00 L 356.60 607.20 L 344.70 625.80 L 327.60 655.20 L 326.80 657.00 L 326.50 660.00 L 328.10 664.50 L 339.90 689.20 L 351.90 713.10 L 364.10 736.30 L 367.20 740.40 L 370.70 742.70 Z" fill="#fdfafc" fill-rule="nonzero" node-id="65" stroke="none" target-height="642.19995" target-width="666.7" target-x="317.5" target-y="112.4"></path><path d="M 936.70 358.70 L 939.90 365.10 L 942.50 371.40 L 944.50 377.70 L 945.90 383.90 L 946.70 390.30 L 947.00 396.60 L 946.70 403.00 L 945.90 409.40 L 944.60 415.70 L 942.80 422.10 L 940.50 428.50 L 937.70 434.90 L 937.80 436.00 L 941.10 437.50 L 943.50 438.00 L 946.40 438.00 L 952.30 440.00 L 957.60 442.40 L 962.50 445.20 L 966.90 448.30 L 970.80 451.80 L 974.30 455.70 L 977.50 460.00 L 980.30 464.80 L 982.70 470.00 L 984.70 475.80 L 985.50 476.80 L 986.70 476.90 L 995.40 473.30 L 999.40 472.60 L 1003.40 472.50 L 1007.50 473.00 L 1011.60 473.90 L 1015.50 475.20 L 1023.10 478.90 L 1029.60 483.70 L 1032.30 486.30 L 1039.90 495.50 L 1040.80 498.00 L 1042.10 500.10 L 1043.60 501.70 L 1045.40 503.00 L 1048.70 504.60 L 1062.40 509.00 L 1065.60 510.50 L 1069.50 513.20 L 1071.40 515.10 L 1073.70 518.20 L 1075.50 521.70 L 1076.80 525.50 L 1077.60 529.40 L 1078.10 533.40 L 1078.00 537.40 L 1077.60 541.40 L 1075.70 548.60 L 1073.60 553.60 L 1071.00 558.30 L 1068.00 562.70 L 1064.50 567.00 L 1060.60 571.00 L 1056.10 574.80 L 1048.90 579.10 L 1039.80 583.90 L 1039.80 585.30 L 1041.70 585.70 L 1042.70 589.10 L 1044.00 598.60 L 1044.40 606.30 L 1043.90 616.50 L 1043.10 621.50 L 1041.80 626.30 L 1040.10 631.20 L 1037.90 636.00 L 1034.30 642.30 L 1030.20 648.10 L 1025.60 653.50 L 1020.60 658.50 L 1014.90 663.30 L 1009.10 667.50 L 1003.10 671.30 L 996.90 674.60 L 990.50 677.40 L 983.90 679.70 L 977.00 681.60 L 969.90 683.00 L 962.30 683.80 L 963.10 683.30 L 963.50 681.70 L 964.30 680.80 L 965.90 680.20 L 981.20 677.40 L 982.60 676.70 L 984.00 676.50 L 993.60 672.90 L 1001.50 669.10 L 1008.80 664.20 L 1020.50 654.60 L 1029.50 644.40 L 1032.70 639.50 L 1037.40 629.80 L 1038.80 625.50 L 1039.80 620.90 L 1040.50 616.00 L 1040.80 602.80 L 1040.10 591.00 L 1040.60 587.50 L 1040.10 586.70 L 1039.40 586.30 L 1038.40 586.40 L 1028.60 589.80 L 1012.10 594.30 L 999.00 596.40 L 992.40 596.90 L 985.90 596.90 L 979.40 596.50 L 973.00 595.50 L 966.60 593.80 L 960.20 591.60 L 959.00 591.60 L 958.20 592.40 L 954.50 601.10 L 950.20 610.10 L 945.00 619.30 L 941.10 625.50 L 926.90 645.70 L 927.20 647.00 L 925.70 647.60 L 923.70 649.10 L 917.70 655.10 L 911.40 660.60 L 905.00 665.60 L 898.30 670.10 L 891.30 674.20 L 884.10 677.80 L 876.70 681.00 L 868.90 683.70 L 866.90 683.60 L 865.40 684.00 L 864.40 684.90 L 863.70 686.30 L 862.10 685.60 L 855.10 687.10 L 843.80 687.80 L 838.10 687.60 L 822.60 685.60 L 819.70 684.70 L 817.10 683.50 L 816.40 683.30 L 815.90 683.50 L 805.00 701.00 L 801.20 706.40 L 793.00 716.50 L 788.50 721.00 L 783.60 725.30 L 778.40 729.20 L 772.90 732.60 L 766.80 735.60 L 760.30 738.10 L 755.20 739.50 L 749.90 740.30 L 744.60 740.40 L 745.20 738.00 L 752.10 736.90 L 758.20 735.40 L 764.00 733.40 L 769.50 730.80 L 774.30 728.00 L 778.90 724.80 L 783.30 721.30 L 787.50 717.40 L 791.50 713.10 L 793.90 709.70 L 796.60 707.40 L 797.80 705.90 L 798.80 703.40 L 800.70 702.10 L 808.60 689.30 L 814.30 682.20 L 806.70 675.90 L 805.70 675.70 L 805.00 676.40 L 803.20 681.20 L 800.80 685.70 L 795.70 693.40 L 790.50 700.50 L 785.10 707.10 L 779.60 713.20 L 775.00 717.60 L 770.20 721.60 L 765.20 725.20 L 759.80 728.40 L 754.10 731.20 L 748.10 733.70 L 740.20 736.40 L 736.80 739.50 L 735.10 740.10 L 733.50 740.30 L 728.70 739.50 L 724.10 738.10 L 711.70 732.80 L 707.30 743.60 L 703.30 752.10 L 699.50 759.10 L 695.90 764.70 L 692.70 768.70 L 689.30 772.10 L 685.70 774.80 L 681.90 777.10 L 677.90 778.70 L 673.60 779.90 L 669.60 780.40 L 666.00 780.30 L 662.60 779.70 L 659.50 778.50 L 656.50 776.70 L 653.20 774.00 L 652.10 774.70 L 651.50 776.10 L 651.30 774.30 L 650.70 772.90 L 649.10 771.60 L 647.80 771.90 L 647.00 772.50 L 646.70 772.10 L 647.20 771.00 L 648.60 769.50 L 648.50 768.80 L 643.50 766.80 L 639.50 764.60 L 635.90 762.20 L 632.90 759.50 L 630.20 756.50 L 627.90 753.10 L 626.10 749.40 L 624.60 745.30 L 622.60 735.40 L 617.60 737.40 L 613.20 738.80 L 608.70 739.70 L 603.90 740.20 L 593.30 740.40 L 593.40 739.80 L 593.00 739.50 L 585.80 740.60 L 580.80 739.50 L 572.80 737.10 L 568.50 735.20 L 564.60 733.00 L 560.90 730.40 L 557.50 727.40 L 554.60 724.10 L 552.00 720.40 L 549.80 716.50 L 548.10 712.30 L 545.60 702.40 L 545.80 700.50 L 545.50 698.60 L 544.50 696.40 L 546.80 685.50 L 549.50 678.80 L 551.50 675.50 L 554.90 670.90 L 558.50 666.70 L 562.20 663.00 L 566.20 659.80 L 570.40 656.90 L 571.00 656.20 L 571.10 655.40 L 570.80 654.70 L 570.10 654.20 L 567.00 652.90 L 561.40 649.40 L 556.70 644.80 L 552.00 638.00 L 549.70 633.50 L 548.20 629.60 L 547.20 625.70 L 546.70 621.70 L 546.80 617.80 L 547.30 613.80 L 548.40 609.80 L 549.50 607.10 L 555.70 596.10 L 557.20 594.60 L 558.00 593.20 L 557.90 592.40 L 557.10 592.00 L 550.20 591.70 L 556.90 591.70 L 557.50 591.50 L 557.70 590.70 L 556.60 589.50 L 550.40 586.40 L 546.40 584.10 L 542.60 581.30 L 539.40 578.30 L 536.60 575.20 L 534.40 572.00 L 532.60 568.60 L 531.20 564.90 L 529.50 558.50 L 528.90 557.50 L 528.50 557.20 L 527.90 557.40 L 527.20 558.40 L 525.70 562.50 L 525.10 569.20 L 525.30 573.70 L 526.00 578.00 L 527.10 582.20 L 528.70 586.10 L 530.70 590.00 L 528.00 590.70 L 525.60 590.80 L 501.70 590.50 L 477.90 590.60 L 454.30 591.20 L 430.80 592.20 L 407.50 593.70 L 404.40 593.30 L 403.40 592.60 L 402.80 591.70 L 402.40 588.20 L 400.00 578.60 L 398.20 570.20 L 397.10 562.70 L 396.50 555.30 L 396.40 548.10 L 396.80 541.00 L 397.70 534.00 L 399.10 527.10 L 401.00 520.30 L 403.50 513.50 L 405.90 508.20 L 409.00 503.10 L 411.30 499.80 L 416.60 493.80 L 422.80 488.80 L 426.20 486.70 L 429.70 485.10 L 433.40 483.80 L 437.30 483.00 L 445.90 482.00 L 454.30 481.60 L 462.50 481.70 L 463.50 481.60 L 465.00 480.40 L 465.60 477.20 L 465.70 474.90 L 464.00 464.00 L 462.80 452.00 L 462.90 440.00 L 463.30 436.70 L 465.00 431.30 L 467.60 426.50 L 472.70 419.10 L 473.50 418.80 L 474.90 419.90 L 477.30 420.60 L 479.20 420.40 L 483.30 419.00 L 486.80 416.80 L 495.20 407.90 L 496.10 407.60 L 496.90 408.30 L 499.90 415.80 L 501.40 418.40 L 503.10 420.70 L 505.20 422.40 L 506.70 423.10 L 508.40 423.40 L 510.30 423.20 L 513.30 422.20 L 515.90 420.80 L 518.00 419.00 L 522.80 413.70 L 528.10 406.40 L 530.50 402.40 L 532.40 398.40 L 533.90 392.90 L 534.10 390.40 L 533.80 387.90 L 533.10 385.60 L 531.70 383.50 L 530.20 382.20 L 528.30 381.70 L 525.20 381.70 L 518.10 382.60 L 512.40 384.50 L 510.50 385.70 L 502.20 391.70 L 501.00 391.60 L 500.50 390.20 L 506.20 375.60 L 508.00 369.10 L 509.40 362.70 L 510.30 356.40 L 511.00 354.80 L 512.60 354.10 L 517.80 353.70 L 526.60 353.80 L 530.10 354.40 L 539.00 356.70 L 544.20 357.60 L 546.60 357.20 L 548.30 355.60 L 548.60 354.50 L 548.50 353.10 L 547.60 350.10 L 546.40 347.10 L 545.60 346.80 L 542.90 342.60 L 539.40 332.50 L 536.10 324.80 L 534.50 319.50 L 533.30 314.20 L 533.40 313.40 L 533.90 312.90 L 534.50 312.60 L 535.30 312.80 L 540.00 315.00 L 544.00 315.60 L 545.90 315.40 L 548.70 314.40 L 551.40 312.90 L 553.90 311.10 L 556.10 308.90 L 561.60 302.40 L 566.90 295.50 L 574.00 285.20 L 581.10 274.10 L 588.20 262.10 L 589.50 260.20 L 589.90 260.00 L 590.10 260.50 L 589.10 271.00 L 588.70 279.40 L 589.30 289.50 L 590.70 292.40 L 592.40 294.30 L 594.40 295.90 L 596.80 297.00 L 600.90 297.90 L 604.00 297.30 L 608.80 294.90 L 615.40 289.00 L 619.30 285.00 L 625.30 277.40 L 643.40 248.10 L 644.20 248.10 L 645.00 249.20 L 646.10 260.00 L 646.90 263.10 L 648.10 265.90 L 649.80 268.40 L 651.20 269.80 L 653.00 271.00 L 656.20 272.20 L 657.30 272.30 L 659.40 271.70 L 669.20 267.40 L 671.90 265.70 L 674.50 263.70 L 678.00 260.30 L 681.20 256.50 L 684.10 252.40 L 691.30 239.70 L 693.50 235.20 L 695.20 230.30 L 695.60 227.80 L 695.60 225.50 L 695.10 223.00 L 694.30 221.00 L 693.20 219.50 L 690.20 217.10 L 688.40 216.40 L 685.40 215.90 L 682.20 215.90 L 679.00 216.30 L 675.90 217.20 L 671.70 219.00 L 668.00 221.20 L 661.10 226.90 L 659.80 227.60 L 659.50 226.10 L 659.60 219.10 L 659.00 215.40 L 658.00 211.90 L 657.00 209.80 L 655.70 207.90 L 654.10 206.40 L 651.40 204.80 L 648.90 203.90 L 646.40 203.60 L 643.90 203.80 L 641.40 204.40 L 639.00 205.40 L 635.50 207.50 L 632.10 210.10 L 626.10 215.80 L 621.40 221.00 L 617.30 226.20 L 613.70 231.40 L 613.30 231.70 L 612.70 231.10 L 618.00 215.90 L 620.30 208.60 L 622.10 201.20 L 623.70 191.20 L 624.10 186.00 L 624.00 182.60 L 622.50 177.10 L 620.20 173.30 L 618.60 171.70 L 614.90 169.30 L 607.40 167.40 L 607.00 167.10 L 606.70 166.20 L 620.80 150.80 L 625.70 146.20 L 632.90 140.70 L 642.70 134.80 L 648.60 131.60 L 655.80 128.50 L 663.30 125.70 L 671.30 123.30 L 679.70 121.20 L 685.70 120.20 L 691.50 119.70 L 697.20 119.80 L 705.20 120.40 L 720.60 122.70 L 728.10 124.40 L 735.50 126.50 L 742.70 129.00 L 749.70 131.90 L 756.50 135.40 L 763.20 139.30 L 768.90 143.40 L 774.30 148.00 L 784.40 158.40 L 793.60 169.40 L 797.90 175.20 L 801.90 181.20 L 805.50 187.50 L 812.80 202.90 L 814.10 204.20 L 815.50 205.10 L 817.30 205.50 L 840.20 203.20 L 847.10 203.20 L 851.70 203.50 L 856.20 204.20 L 860.70 205.40 L 871.70 209.70 L 881.00 214.80 L 884.40 217.30 L 887.40 220.00 L 892.20 226.00 L 896.00 233.00 L 898.20 238.70 L 900.20 244.80 L 901.40 249.90 L 902.20 255.30 L 902.70 266.20 L 901.90 276.50 L 901.10 280.40 L 899.60 285.40 L 897.30 291.60 L 895.80 294.80 L 888.70 306.60 L 881.50 317.10 L 881.00 318.40 L 881.10 319.70 L 881.60 320.90 L 882.50 321.80 L 907.30 336.10 L 925.60 349.20 L 929.00 350.90 L 931.60 351.60 L 931.40 353.80 L 933.50 359.30 L 934.40 360.00 L 935.70 360.00 L 936.40 359.60 L 936.70 358.70 Z M 731.50 274.20 L 732.10 271.70 L 732.00 269.60 L 731.40 267.70 L 730.20 266.00 L 728.20 264.40 L 726.80 263.80 L 725.30 263.50 L 723.60 263.70 L 720.40 264.60 L 717.60 265.90 L 715.10 267.40 L 713.00 269.30 L 711.10 271.60 L 709.60 274.20 L 708.60 276.60 L 708.00 281.10 L 708.30 283.30 L 709.00 285.20 L 710.20 287.00 L 711.80 288.30 L 713.90 289.40 L 716.60 290.10 L 718.40 290.20 L 721.30 289.40 L 722.50 288.50 L 725.30 285.40 L 727.70 282.00 L 729.80 278.30 L 731.50 274.20 Z M 776.20 423.00 L 774.30 423.00 L 771.90 423.60 L 768.70 425.00 L 766.60 426.40 L 765.10 427.80 L 764.20 429.40 L 763.70 431.20 L 763.70 432.90 L 764.20 434.70 L 765.10 436.30 L 766.40 437.90 L 768.30 439.30 L 771.10 440.80 L 776.20 442.60 L 777.20 449.70 L 778.70 456.70 L 780.70 463.50 L 781.90 466.50 L 783.70 469.80 L 785.90 472.80 L 788.50 475.60 L 792.50 478.40 L 794.60 479.20 L 796.80 479.60 L 799.10 479.50 L 801.60 478.90 L 802.50 478.20 L 803.90 475.90 L 807.30 471.80 L 809.60 467.50 L 810.90 462.60 L 811.80 457.50 L 812.20 452.40 L 811.70 442.00 L 810.90 436.70 L 809.10 429.00 L 806.80 421.40 L 804.20 415.20 L 800.30 408.50 L 797.00 404.70 L 793.20 402.20 L 791.20 401.70 L 789.00 401.70 L 787.30 402.20 L 785.70 403.10 L 784.20 404.60 L 782.30 407.20 L 780.60 410.40 L 779.20 413.80 L 776.20 423.00 Z M 840.10 413.90 L 839.90 413.40 L 838.60 413.30 L 835.50 416.00 L 835.20 415.60 L 831.40 418.30 L 828.30 421.20 L 825.60 424.10 L 823.40 427.20 L 821.60 430.50 L 820.90 432.70 L 820.80 434.50 L 821.30 436.00 L 822.30 437.30 L 823.80 438.20 L 826.10 438.70 L 829.90 438.80 L 833.60 438.50 L 841.00 436.60 L 848.20 433.50 L 853.40 430.70 L 857.90 427.70 L 860.70 425.30 L 863.20 422.60 L 865.40 419.50 L 866.50 416.40 L 866.50 414.60 L 865.80 411.70 L 864.40 410.50 L 861.40 409.80 L 857.50 409.70 L 850.50 410.50 L 845.40 411.90 L 840.10 413.90 Z M 542.40 426.50 L 543.90 427.20 L 545.70 427.30 L 547.50 426.90 L 549.30 425.90 L 551.00 424.50 L 552.60 422.70 L 553.80 420.60 L 554.50 418.50 L 554.80 416.40 L 554.60 414.60 L 553.90 413.00 L 552.70 411.80 L 551.20 411.10 L 549.40 411.00 L 547.60 411.40 L 545.80 412.40 L 544.10 413.80 L 542.50 415.60 L 541.30 417.70 L 540.60 419.80 L 540.30 421.90 L 540.60 423.70 L 541.20 425.30 L 542.40 426.50 Z M 652.20 482.60 L 649.90 482.10 L 647.30 482.20 L 644.20 482.90 L 641.90 484.00 L 640.30 485.30 L 639.30 486.90 L 638.80 488.70 L 638.80 490.70 L 639.60 493.20 L 641.10 495.60 L 642.80 497.70 L 644.90 499.30 L 647.40 500.60 L 650.30 501.50 L 651.50 509.90 L 653.50 518.00 L 656.50 525.40 L 658.40 528.60 L 660.60 531.50 L 663.30 534.30 L 666.80 537.10 L 668.70 538.10 L 670.70 538.60 L 672.80 538.60 L 674.80 538.10 L 678.80 536.30 L 681.30 534.20 L 683.20 532.00 L 685.70 527.70 L 687.40 523.70 L 688.60 519.80 L 689.20 516.00 L 689.50 509.70 L 689.30 503.20 L 688.60 496.50 L 687.40 489.40 L 685.90 483.60 L 683.90 478.20 L 681.50 473.00 L 678.60 468.20 L 676.80 465.90 L 674.60 463.90 L 672.20 462.40 L 669.70 461.50 L 666.20 461.30 L 662.90 462.50 L 659.80 465.60 L 657.50 469.20 L 655.50 473.20 L 653.70 477.70 L 652.20 482.60 Z M 711.30 505.00 L 713.30 509.30 L 715.60 513.00 L 718.10 516.20 L 720.80 519.00 L 723.80 521.20 L 727.00 523.10 L 730.60 524.60 L 734.50 525.60 L 739.00 526.20 L 743.40 526.30 L 747.80 525.80 L 752.20 524.70 L 756.30 523.10 L 760.00 521.00 L 763.50 518.50 L 766.60 515.40 L 769.20 512.10 L 771.30 508.70 L 772.90 505.20 L 773.90 501.60 L 774.50 497.70 L 774.60 493.60 L 774.10 489.20 L 773.10 484.50 L 771.40 479.40 L 771.20 476.80 L 770.40 475.10 L 768.80 474.20 L 767.90 474.20 L 759.50 478.00 L 755.70 479.10 L 751.70 479.70 L 747.70 479.90 L 742.10 479.70 L 740.90 480.20 L 733.40 489.10 L 730.90 491.40 L 725.50 495.00 L 722.50 496.40 L 719.30 497.40 L 709.10 498.90 L 708.50 500.10 L 708.60 500.80 L 709.60 503.00 L 711.30 505.00 Z M 645.90 516.60 L 644.60 515.10 L 642.80 514.10 L 640.40 513.40 L 637.90 513.20 L 634.90 513.50 L 628.10 515.20 L 620.90 518.70 L 614.40 523.40 L 609.70 528.50 L 608.10 531.00 L 607.00 533.40 L 606.50 535.80 L 606.60 537.90 L 607.30 539.70 L 608.60 541.20 L 610.40 542.20 L 612.80 542.90 L 615.30 543.10 L 618.30 542.80 L 625.10 541.10 L 632.30 537.60 L 638.70 532.90 L 643.50 527.80 L 646.10 522.90 L 646.70 520.50 L 646.60 518.40 L 645.90 516.60 Z M 655.10 773.70 L 656.60 774.90 L 658.30 775.50 L 662.90 776.10 L 667.60 776.30 L 672.70 776.10 L 678.00 775.30 L 681.80 774.00 L 690.80 767.40 L 694.50 762.70 L 698.40 756.60 L 703.60 746.60 L 707.50 737.40 L 711.40 729.90 L 711.80 727.90 L 711.40 723.90 L 710.80 721.30 L 709.50 719.20 L 708.40 718.90 L 707.60 719.80 L 705.30 726.90 L 702.60 733.40 L 699.30 739.50 L 695.60 745.20 L 691.40 750.50 L 686.50 755.80 L 681.60 760.20 L 678.10 762.80 L 674.50 765.00 L 670.60 766.70 L 666.50 767.90 L 662.00 768.60 L 655.60 768.90 L 654.60 769.60 L 654.00 770.70 L 653.70 772.20 L 653.90 772.90 L 655.10 773.70 Z" fill="#d0e1fd" fill-rule="nonzero" node-id="67" stroke="none" target-height="660.7" target-width="681.69995" target-x="396.4" target-y="119.7"></path><path d="M 1079.80 193.30 L 1076.40 194.60 L 1073.40 196.50 L 1070.50 199.70 L 1068.10 203.10 L 1066.20 206.70 L 1063.50 214.60 L 1062.60 218.80 L 1061.60 225.20 L 1060.10 244.70 L 1058.40 247.70 L 1056.50 249.30 L 1055.80 249.30 L 1054.70 248.70 L 1053.90 247.90 L 1053.10 245.60 L 1052.80 239.50 L 1051.00 227.60 L 1049.60 221.90 L 1047.90 217.20 L 1045.90 213.20 L 1043.50 209.80 L 1040.60 206.90 L 1038.10 204.90 L 1035.20 203.30 L 1032.20 201.90 L 1024.30 200.10 L 1022.80 198.40 L 1022.50 197.40 L 1022.70 196.50 L 1023.50 195.30 L 1029.30 191.80 L 1032.90 189.10 L 1036.10 186.20 L 1038.90 183.00 L 1041.20 179.40 L 1043.20 175.60 L 1044.80 171.40 L 1046.00 166.80 L 1046.70 161.80 L 1047.70 149.00 L 1047.90 148.00 L 1048.50 147.20 L 1049.60 146.30 L 1051.40 146.00 L 1052.80 146.60 L 1053.70 147.30 L 1054.30 148.40 L 1055.60 161.40 L 1056.60 165.20 L 1058.00 168.80 L 1061.60 175.50 L 1063.90 178.50 L 1066.40 181.10 L 1069.10 183.40 L 1072.20 185.30 L 1075.60 186.60 L 1080.60 187.80 L 1081.30 188.30 L 1082.20 190.20 L 1081.90 191.50 L 1080.80 192.80 L 1079.80 193.30 Z" fill="#fedf71" fill-rule="nonzero" node-id="69" stroke="none" target-height="103.3" target-width="59.69995" target-x="1022.5" target-y="146"></path><path d="M 430.60 294.50 L 428.70 294.70 L 425.60 296.00 L 424.10 297.10 L 419.90 301.50 L 416.30 306.10 L 413.30 310.90 L 410.80 316.00 L 408.70 321.30 L 405.80 332.40 L 404.00 343.90 L 403.10 361.40 L 402.90 378.60 L 402.30 380.80 L 400.50 382.20 L 399.00 382.30 L 397.60 381.90 L 396.20 381.00 L 395.40 379.90 L 385.30 353.00 L 382.30 346.50 L 375.10 334.10 L 366.90 322.40 L 364.40 319.60 L 361.60 317.30 L 358.60 315.40 L 355.10 314.00 L 351.30 313.10 L 345.10 312.20 L 343.50 311.20 L 342.90 310.10 L 342.90 308.40 L 343.30 307.00 L 344.30 305.90 L 345.80 304.90 L 352.90 302.00 L 356.00 299.80 L 358.70 296.80 L 361.00 293.60 L 363.00 290.10 L 365.40 284.60 L 367.40 278.80 L 368.80 272.80 L 371.50 255.00 L 372.60 244.10 L 373.10 233.80 L 373.20 224.10 L 373.50 222.90 L 374.20 222.00 L 375.40 221.30 L 376.70 221.10 L 378.10 221.40 L 379.30 222.20 L 380.10 223.30 L 383.30 239.00 L 384.80 244.00 L 386.30 247.90 L 392.70 259.90 L 399.90 270.40 L 403.50 274.50 L 407.50 278.20 L 413.40 282.30 L 420.10 285.20 L 423.60 286.10 L 429.60 287.10 L 431.30 288.00 L 432.80 290.00 L 433.20 291.60 L 433.00 292.90 L 432.60 293.80 L 431.80 294.30 L 430.60 294.50 Z" fill="#fedf71" fill-rule="nonzero" node-id="71" stroke="none" target-height="161.19998" target-width="90.30002" target-x="342.9" target-y="221.1"></path><path d="M 994.90 234.90 L 997.40 235.80 L 999.50 237.10 L 1000.90 238.40 L 1001.30 239.30 L 1001.20 239.90 L 1000.40 240.50 L 993.50 241.70 L 992.40 243.40 L 990.90 247.40 L 990.10 248.60 L 989.00 249.50 L 987.80 249.60 L 987.00 248.60 L 985.90 242.90 L 985.30 241.70 L 984.50 240.70 L 980.00 237.50 L 979.60 237.10 L 979.60 236.00 L 982.50 234.30 L 985.80 233.20 L 987.80 230.90 L 990.20 226.10 L 990.80 225.40 L 991.50 225.10 L 992.30 225.20 L 993.00 225.80 L 993.40 226.70 L 993.90 233.90 L 994.90 234.90 Z" fill="#fedf71" fill-rule="nonzero" node-id="73" stroke="none" target-height="24.5" target-width="21.700012" target-x="979.6" target-y="225.1"></path><path d="M 1094.00 243.50 L 1092.50 244.30 L 1091.60 245.30 L 1089.90 250.30 L 1089.30 251.30 L 1087.80 252.10 L 1086.90 251.60 L 1085.40 247.30 L 1084.60 245.80 L 1083.50 244.50 L 1079.20 241.10 L 1078.80 239.90 L 1079.30 238.40 L 1083.50 235.50 L 1085.30 232.00 L 1087.20 229.40 L 1087.90 228.90 L 1089.30 229.30 L 1091.80 235.30 L 1092.90 236.60 L 1097.50 239.00 L 1098.20 239.60 L 1098.50 240.50 L 1098.30 241.30 L 1097.60 241.90 L 1094.00 243.50 Z" fill="#fedf71" fill-rule="nonzero" node-id="75" stroke="none" target-height="23.200012" target-width="19.699951" target-x="1078.8" target-y="228.9"></path><path d="M 731.50 274.20 L 729.80 278.30 L 727.70 282.00 L 725.20 285.40 L 722.40 288.50 L 721.20 289.40 L 718.30 290.20 L 716.50 290.10 L 713.80 289.40 L 711.80 288.30 L 710.20 287.00 L 709.00 285.30 L 708.30 283.40 L 707.90 281.20 L 708.50 276.70 L 709.50 274.20 L 711.10 271.60 L 712.90 269.30 L 715.10 267.40 L 717.50 265.90 L 720.30 264.60 L 723.50 263.70 L 725.20 263.50 L 726.70 263.80 L 728.10 264.40 L 730.10 266.00 L 731.40 267.70 L 732.00 269.60 L 732.10 271.70 L 731.50 274.20 Z" fill="#fdfafc" fill-rule="nonzero" node-id="77" stroke="none" target-height="26.700012" target-width="24.199951" target-x="707.9" target-y="263.5"></path><path d="M 1041.90 585.60 L 1040.00 585.20 L 1039.80 584.70 L 1040.00 583.80 L 1049.10 579.00 L 1056.30 574.70 L 1060.70 570.90 L 1064.70 566.90 L 1068.10 562.60 L 1071.10 558.20 L 1073.70 553.50 L 1075.90 548.50 L 1077.80 541.30 L 1078.30 533.30 L 1077.80 529.30 L 1077.00 525.40 L 1075.70 521.60 L 1073.90 518.10 L 1071.60 515.00 L 1069.70 513.10 L 1065.80 510.40 L 1062.60 508.90 L 1048.90 504.50 L 1045.60 502.90 L 1043.80 501.70 L 1042.30 500.00 L 1041.00 498.00 L 1040.10 495.40 L 1046.80 486.40 L 1053.80 477.70 L 1061.20 469.30 L 1061.50 468.80 L 1061.30 467.80 L 1051.70 462.70 L 1040.00 454.90 L 1031.40 448.50 L 1023.20 441.70 L 1015.30 434.50 L 1007.60 426.90 L 999.50 417.70 L 990.30 404.80 L 985.40 396.80 L 984.30 396.10 L 983.20 396.60 L 946.40 438.00 L 943.50 438.00 L 941.10 437.50 L 939.10 436.50 L 983.90 385.20 L 997.80 369.70 L 1011.60 355.10 L 1025.20 341.40 L 1038.70 328.40 L 1052.10 316.20 L 1065.40 304.80 L 1069.80 301.40 L 1074.90 298.10 L 1080.80 294.80 L 1087.60 291.60 L 1095.30 288.40 L 1101.40 287.10 L 1108.90 286.50 L 1126.00 286.30 L 1135.60 286.90 L 1140.60 287.50 L 1145.90 288.60 L 1148.80 289.60 L 1151.30 291.20 L 1164.40 301.80 L 1175.80 311.70 L 1185.80 321.10 L 1188.30 324.00 L 1190.30 327.10 L 1191.70 330.40 L 1193.60 336.70 L 1195.00 342.90 L 1196.00 350.80 L 1195.70 352.40 L 1191.60 363.60 L 1186.90 375.00 L 1181.70 386.70 L 1175.80 398.70 L 1174.60 400.50 L 1173.20 401.70 L 1169.70 403.30 L 1153.20 407.30 L 1140.60 410.00 L 1114.70 414.50 L 1095.40 437.10 L 1059.70 481.10 L 1045.80 497.70 L 1045.30 498.60 L 1045.70 499.40 L 1051.80 499.80 L 1056.50 500.60 L 1060.90 501.80 L 1064.90 503.50 L 1068.70 505.60 L 1072.00 508.10 L 1075.00 511.00 L 1077.60 514.20 L 1079.70 517.70 L 1081.40 521.40 L 1082.60 525.40 L 1083.30 529.70 L 1083.50 534.00 L 1083.10 538.40 L 1082.20 543.10 L 1080.60 548.10 L 1078.00 554.20 L 1075.00 559.80 L 1071.60 564.90 L 1067.80 569.40 L 1063.50 573.50 L 1058.90 577.20 L 1053.70 580.40 L 1048.10 583.20 L 1041.90 585.60 Z M 1016.80 412.40 L 1029.80 425.60 L 1036.60 431.60 L 1043.70 437.30 L 1051.10 442.60 L 1058.80 447.50 L 1071.30 454.60 L 1072.50 454.60 L 1095.60 426.60 L 1108.30 412.10 L 1111.40 409.60 L 1116.30 407.70 L 1149.50 401.20 L 1166.10 397.30 L 1168.00 396.60 L 1169.50 395.40 L 1170.60 393.70 L 1181.20 368.30 L 1186.30 354.70 L 1187.60 349.30 L 1186.60 342.60 L 1183.10 329.50 L 1182.20 327.20 L 1180.90 325.10 L 1179.20 323.10 L 1171.90 316.10 L 1164.70 309.80 L 1157.10 303.70 L 1148.80 297.90 L 1146.30 296.50 L 1143.70 295.60 L 1132.30 294.00 L 1123.60 293.40 L 1114.70 293.30 L 1109.60 293.70 L 1104.50 294.60 L 1099.60 296.00 L 1094.70 298.00 L 1086.30 302.30 L 1078.10 307.20 L 1067.60 314.60 L 1062.60 318.70 L 1050.00 329.90 L 1031.90 346.90 L 1014.10 364.40 L 996.10 382.90 L 996.00 384.40 L 996.30 385.10 L 1001.00 392.40 L 1005.90 399.30 L 1011.20 406.00 L 1016.80 412.40 Z" fill="#fdfafc" fill-rule="nonzero" node-id="79" stroke="none" target-height="299.3" target-width="256.90002" target-x="939.1" target-y="286.3"></path><path d="M 1016.80 412.40 L 1011.20 406.00 L 1005.90 399.30 L 1001.00 392.40 L 996.40 385.30 L 996.10 384.60 L 996.30 383.10 L 1014.20 364.50 L 1032.00 347.10 L 1050.10 330.10 L 1067.70 314.80 L 1078.20 307.40 L 1086.40 302.50 L 1094.80 298.20 L 1099.70 296.20 L 1104.60 294.80 L 1109.70 293.90 L 1114.80 293.50 L 1123.70 293.60 L 1132.50 294.20 L 1141.10 295.20 L 1143.80 295.80 L 1148.90 298.10 L 1157.20 303.90 L 1164.80 310.00 L 1172.00 316.30 L 1179.30 323.30 L 1181.00 325.20 L 1182.30 327.40 L 1183.20 329.70 L 1186.00 340.00 L 1187.60 347.70 L 1187.70 349.60 L 1187.30 351.90 L 1186.40 354.90 L 1181.30 368.50 L 1176.00 381.40 L 1170.00 395.20 L 1167.80 397.00 L 1166.20 397.50 L 1149.60 401.40 L 1116.40 407.90 L 1111.60 409.80 L 1108.40 412.30 L 1095.70 426.80 L 1072.60 454.80 L 1071.40 454.80 L 1058.90 447.70 L 1051.10 442.70 L 1043.70 437.40 L 1036.60 431.70 L 1029.80 425.60 L 1016.80 412.40 Z" fill="#f49bb7" fill-rule="nonzero" node-id="81" stroke="none" target-height="161.29999" target-width="191.59998" target-x="996.1" target-y="293.5"></path><path d="M 404.10 316.80 L 400.00 328.80 L 401.10 323.30 L 402.90 317.20 L 403.30 316.70 L 404.10 316.80 Z" fill="#fedf71" fill-rule="nonzero" node-id="83" stroke="none" target-height="12.099976" target-width="4.100006" target-x="400" target-y="316.7"></path><path d="M 984.20 382.40 L 983.90 385.10 L 939.10 436.40 L 938.30 436.30 L 937.80 435.90 L 937.70 434.80 L 940.50 428.40 L 942.80 422.00 L 944.60 415.60 L 945.90 409.30 L 946.70 402.90 L 947.00 396.50 L 946.70 390.20 L 945.90 383.80 L 944.50 377.60 L 942.50 371.30 L 939.90 365.00 L 936.70 358.60 L 932.70 352.20 L 932.70 351.00 L 933.70 350.50 L 939.80 351.10 L 946.10 352.40 L 954.50 355.00 L 962.30 358.70 L 965.70 360.90 L 968.80 363.40 L 972.80 367.50 L 976.30 371.70 L 979.30 376.20 L 982.40 381.90 L 983.20 382.40 L 984.20 382.40 Z" fill="#a1c2f4" fill-rule="nonzero" node-id="85" stroke="none" target-height="85.899994" target-width="51.5" target-x="932.7" target-y="350.5"></path><path d="M 330.70 414.50 L 329.70 418.20 L 328.40 427.00 L 328.00 428.10 L 327.00 428.80 L 325.60 428.90 L 324.50 428.50 L 323.80 427.70 L 322.00 419.90 L 320.50 416.70 L 318.60 413.30 L 316.10 409.90 L 313.80 407.60 L 311.30 405.90 L 305.50 403.30 L 304.70 402.60 L 304.40 401.70 L 304.60 400.50 L 305.30 399.60 L 310.20 397.70 L 313.30 396.00 L 315.70 394.00 L 317.80 391.60 L 319.60 388.90 L 321.00 385.90 L 322.50 381.00 L 324.10 374.50 L 325.50 373.40 L 327.50 373.50 L 328.80 374.80 L 329.10 375.70 L 330.40 383.60 L 331.50 387.20 L 333.20 390.40 L 334.60 392.40 L 338.80 396.20 L 341.00 397.50 L 348.50 399.90 L 349.50 401.00 L 349.30 402.40 L 348.70 402.90 L 340.40 404.40 L 336.30 406.40 L 333.10 409.50 L 331.80 411.70 L 330.70 414.50 Z" fill="#fedf71" fill-rule="nonzero" node-id="87" stroke="none" target-height="55.5" target-width="45.100006" target-x="304.4" target-y="373.4"></path><path d="M 1040.10 495.50 L 1032.40 486.30 L 1029.80 483.70 L 1023.30 479.00 L 1015.70 475.20 L 1011.80 473.90 L 1007.70 473.00 L 1003.60 472.50 L 999.60 472.60 L 995.60 473.30 L 986.90 476.90 L 985.60 476.80 L 984.90 475.80 L 982.90 470.00 L 980.50 464.80 L 977.70 460.00 L 974.50 455.70 L 971.00 451.80 L 967.10 448.30 L 962.70 445.20 L 957.80 442.40 L 952.50 440.00 L 946.60 438.00 L 983.20 396.80 L 983.70 396.40 L 984.90 396.50 L 995.70 412.80 L 1001.50 420.20 L 1007.60 427.10 L 1015.30 434.70 L 1023.20 441.90 L 1031.50 448.70 L 1040.00 455.10 L 1048.80 461.20 L 1061.30 468.00 L 1061.50 469.00 L 1061.20 469.50 L 1053.80 477.70 L 1046.70 486.40 L 1040.10 495.50 Z" fill="#fed4d8" fill-rule="nonzero" node-id="89" stroke="none" target-height="99.100006" target-width="114.900024" target-x="946.6" target-y="396.4"></path><path d="M 776.20 442.60 L 783.50 440.30 L 785.30 439.20 L 786.60 437.90 L 787.50 436.30 L 787.80 434.40 L 787.70 432.00 L 786.60 429.00 L 785.60 427.60 L 783.10 425.60 L 776.10 422.90 L 779.10 413.60 L 782.20 407.00 L 784.10 404.50 L 785.60 403.00 L 787.20 402.10 L 788.90 401.60 L 791.10 401.60 L 793.10 402.10 L 795.10 403.20 L 798.60 406.30 L 802.30 411.70 L 805.60 418.50 L 809.10 428.90 L 810.90 436.70 L 811.70 441.90 L 812.10 452.30 L 811.70 457.50 L 810.90 462.50 L 809.50 467.40 L 807.20 471.70 L 803.80 475.80 L 802.00 478.50 L 799.00 479.40 L 796.70 479.50 L 794.50 479.10 L 790.40 477.00 L 788.40 475.50 L 785.80 472.70 L 783.60 469.60 L 780.60 463.40 L 778.60 456.70 L 777.20 449.80 L 776.20 442.60 Z" fill="#658ecc" fill-rule="nonzero" node-id="91" stroke="none" target-height="77.899994" target-width="36" target-x="776.1" target-y="401.6"></path><path d="M 835.60 416.00 L 828.00 432.40 L 827.90 433.90 L 828.30 434.20 L 829.80 434.40 L 832.40 433.00 L 833.30 431.90 L 835.90 427.10 L 838.00 422.20 L 839.50 417.20 L 839.40 414.90 L 839.70 414.20 L 840.30 413.80 L 845.60 411.80 L 850.70 410.40 L 857.70 409.70 L 861.60 409.90 L 863.10 410.10 L 865.30 411.10 L 866.40 412.80 L 866.70 415.30 L 866.40 417.50 L 865.60 419.60 L 863.40 422.80 L 860.90 425.50 L 855.10 429.90 L 848.40 433.60 L 843.00 436.10 L 837.50 437.90 L 833.80 438.60 L 830.00 438.90 L 826.30 438.80 L 824.10 438.30 L 822.50 437.40 L 821.50 436.10 L 821.00 434.60 L 821.10 432.80 L 821.80 430.60 L 823.60 427.30 L 825.80 424.20 L 828.50 421.20 L 831.70 418.40 L 835.40 415.70 L 835.60 416.00 Z M 848.80 414.70 L 844.70 417.60 L 841.30 421.50 L 838.30 425.70 L 837.50 427.10 L 837.20 428.50 L 837.30 430.20 L 837.60 430.90 L 838.40 431.50 L 839.20 431.50 L 844.10 426.70 L 845.90 424.30 L 850.70 414.80 L 850.60 414.30 L 850.10 414.20 L 848.80 414.70 Z M 848.70 423.40 L 848.60 423.90 L 849.30 424.20 L 851.00 423.60 L 852.60 422.50 L 855.30 419.50 L 857.10 416.30 L 857.10 415.30 L 856.30 414.70 L 855.00 414.70 L 853.80 415.30 L 851.60 417.70 L 848.70 423.40 Z" fill="#ff9d7d" fill-rule="nonzero" node-id="93" stroke="none" target-height="29.199982" target-width="45.700012" target-x="821" target-y="409.7"></path><g node-id="180"><path d="M 552.80 411.70 L 553.90 412.90 L 554.60 414.40 L 554.80 416.40 L 554.70 417.90 L 553.60 421.10 L 551.60 424.00 L 548.90 426.20 L 547.50 426.80 L 545.60 427.30 L 543.90 427.10 L 542.40 426.50 L 541.30 425.30 L 540.60 423.80 L 540.50 420.20 L 541.60 417.10 L 543.60 414.20 L 546.30 412.00 L 549.60 410.90 L 551.30 411.10 L 552.80 411.70 Z" fill="#fdfafc" fill-rule="nonzero" group-id="1" node-id="97" stroke="none" target-height="16.399994" target-width="14.299988" target-x="540.5" target-y="410.9"></path></g><path d="M 840.10 413.90 L 839.50 414.30 L 839.20 415.00 L 839.30 417.30 L 837.80 422.30 L 835.80 427.20 L 833.10 432.00 L 831.00 434.00 L 829.60 434.50 L 828.20 434.30 L 827.60 433.40 L 835.40 416.10 L 838.50 413.40 L 839.70 413.30 L 840.10 413.90 Z" fill="#fdfafc" fill-rule="nonzero" node-id="100" stroke="none" target-height="21.200012" target-width="12.5" target-x="827.6" target-y="413.3"></path><path d="M 848.80 414.70 L 850.20 414.20 L 850.60 414.40 L 850.70 414.80 L 845.80 424.30 L 844.00 426.70 L 839.10 431.50 L 838.30 431.50 L 837.50 430.90 L 837.20 430.20 L 837.10 428.50 L 837.50 427.10 L 838.20 425.70 L 841.20 421.50 L 844.70 417.60 L 846.70 416.00 L 848.80 414.70 Z" fill="#fdfafc" fill-rule="nonzero" node-id="102" stroke="none" target-height="17.299988" target-width="13.600037" target-x="837.1" target-y="414.2"></path><path d="M 848.70 423.40 L 851.60 417.70 L 853.80 415.20 L 855.10 414.60 L 856.40 414.60 L 856.90 414.80 L 857.30 415.70 L 855.30 419.40 L 852.70 422.40 L 851.10 423.50 L 849.40 424.10 L 848.80 424.10 L 848.70 423.40 Z" fill="#fdfafc" fill-rule="nonzero" node-id="104" stroke="none" target-height="9.5" target-width="8.599976" target-x="848.7" target-y="414.6"></path><path d="M 776.20 423.00 L 783.20 425.70 L 785.70 427.70 L 787.40 430.50 L 787.80 432.10 L 787.90 434.50 L 787.60 436.40 L 786.70 438.00 L 785.40 439.30 L 783.60 440.40 L 776.30 442.70 L 771.20 440.90 L 768.40 439.40 L 766.50 438.00 L 765.20 436.40 L 764.30 434.80 L 763.80 433.00 L 763.80 431.30 L 764.30 429.50 L 765.20 427.90 L 766.70 426.50 L 768.80 425.10 L 771.90 423.70 L 774.30 423.10 L 776.20 423.00 Z" fill="#fdfafc" fill-rule="nonzero" node-id="106" stroke="none" target-height="19.700012" target-width="24.100037" target-x="763.8" target-y="423"></path><path d="M 650.40 501.60 L 653.10 501.80 L 655.80 501.40 L 657.50 500.90 L 660.30 499.00 L 661.30 497.70 L 662.00 496.10 L 662.40 494.10 L 662.30 491.60 L 661.70 489.60 L 660.70 488.20 L 656.50 485.10 L 652.30 482.70 L 653.80 477.70 L 655.60 473.30 L 657.60 469.30 L 659.90 465.80 L 663.00 462.70 L 666.30 461.50 L 669.80 461.60 L 672.30 462.50 L 674.70 464.10 L 676.90 466.00 L 678.70 468.40 L 681.60 473.20 L 684.00 478.30 L 686.00 483.80 L 687.50 489.60 L 688.80 496.70 L 689.50 503.40 L 689.60 509.90 L 689.30 516.20 L 688.70 520.00 L 687.50 523.90 L 685.70 527.90 L 682.10 533.70 L 678.90 536.50 L 677.00 537.60 L 672.90 538.80 L 670.80 538.80 L 668.80 538.30 L 666.90 537.30 L 663.40 534.50 L 660.70 531.70 L 658.50 528.80 L 656.60 525.60 L 653.60 518.20 L 651.60 510.00 L 650.40 501.60 Z" fill="#658ecc" fill-rule="nonzero" node-id="108" stroke="none" target-height="77.29999" target-width="39.19995" target-x="650.4" target-y="461.5"></path><path d="M 771.50 479.50 L 763.40 483.30 L 759.20 484.60 L 754.80 485.40 L 750.30 485.80 L 745.10 485.80 L 738.80 493.40 L 736.60 495.60 L 733.10 498.30 L 729.40 500.50 L 725.40 502.30 L 721.00 503.70 L 716.40 504.60 L 711.30 505.10 L 709.50 503.20 L 708.50 500.40 L 709.10 499.20 L 709.80 499.00 L 719.30 497.70 L 722.50 496.70 L 728.30 493.60 L 733.40 489.40 L 736.70 485.70 L 739.80 481.60 L 740.80 480.50 L 742.00 480.00 L 747.70 480.20 L 751.80 480.00 L 755.70 479.40 L 759.50 478.30 L 763.20 476.80 L 766.90 474.90 L 768.80 474.50 L 770.40 475.40 L 770.90 476.10 L 771.50 479.50 Z" fill="#658ecc" fill-rule="nonzero" node-id="110" stroke="none" target-height="30.600006" target-width="63" target-x="708.5" target-y="474.5"></path><path d="M 771.50 479.50 L 773.20 484.60 L 774.20 489.30 L 774.70 493.70 L 774.60 497.80 L 774.00 501.70 L 773.00 505.30 L 771.40 508.80 L 769.30 512.20 L 766.70 515.50 L 763.50 518.60 L 760.10 521.10 L 756.40 523.20 L 752.30 524.80 L 747.80 525.90 L 743.40 526.50 L 739.00 526.40 L 734.60 525.70 L 730.70 524.70 L 727.10 523.20 L 723.90 521.30 L 720.90 519.10 L 718.20 516.30 L 715.70 513.10 L 713.40 509.40 L 711.40 505.10 L 716.40 504.60 L 721.10 503.70 L 725.40 502.40 L 729.40 500.60 L 733.20 498.30 L 736.70 495.60 L 738.90 493.40 L 745.20 485.80 L 750.40 485.80 L 754.90 485.50 L 759.30 484.60 L 763.50 483.30 L 771.50 479.50 Z" fill="#ff9d7d" fill-rule="nonzero" node-id="112" stroke="none" target-height="47" target-width="63.299988" target-x="711.4" target-y="479.5"></path><path d="M 652.20 482.60 L 656.40 484.90 L 660.60 488.10 L 661.60 489.50 L 662.20 491.50 L 662.30 494.00 L 661.90 496.00 L 661.20 497.60 L 658.90 500.00 L 655.70 501.40 L 653.00 501.70 L 650.30 501.50 L 647.40 500.50 L 644.90 499.30 L 642.80 497.60 L 641.00 495.60 L 639.60 493.20 L 638.90 491.30 L 638.80 488.20 L 639.20 486.90 L 640.30 485.30 L 641.90 484.00 L 644.20 482.90 L 647.30 482.20 L 650.00 482.10 L 652.20 482.60 Z" fill="#fdfafc" fill-rule="nonzero" node-id="114" stroke="none" target-height="19.600006" target-width="23.5" target-x="638.8" target-y="482.1"></path><path d="M 645.90 516.60 L 646.60 518.40 L 646.70 520.50 L 646.10 522.90 L 643.50 527.80 L 638.70 532.90 L 632.30 537.60 L 625.10 541.10 L 618.30 542.80 L 615.40 543.10 L 612.80 542.90 L 610.40 542.20 L 608.60 541.20 L 607.30 539.70 L 606.60 537.90 L 606.50 535.80 L 607.10 533.40 L 609.70 528.50 L 614.50 523.40 L 620.90 518.70 L 628.10 515.20 L 634.90 513.40 L 640.40 513.40 L 642.80 514.00 L 644.60 515.10 L 645.90 516.60 Z M 638.80 515.80 L 636.90 516.10 L 634.00 517.60 L 631.40 520.10 L 628.90 523.30 L 626.30 527.20 L 623.80 531.90 L 623.60 532.70 L 623.90 533.10 L 624.60 533.40 L 625.90 533.40 L 627.00 532.70 L 634.70 525.00 L 640.50 518.60 L 641.10 517.60 L 641.20 516.90 L 640.80 516.30 L 638.80 515.80 Z M 617.80 524.10 L 614.20 530.50 L 610.40 536.50 L 610.30 537.80 L 611.30 538.60 L 612.20 538.60 L 614.30 537.80 L 617.70 534.10 L 620.00 530.90 L 621.90 527.50 L 623.50 524.00 L 624.60 519.80 L 623.90 519.20 L 623.40 519.20 L 621.60 520.00 L 618.90 522.40 L 617.80 524.10 Z" fill="#ff9d7d" fill-rule="nonzero" node-id="116" stroke="none" target-height="29.699951" target-width="40.200012" target-x="606.5" target-y="513.4"></path><path d="M 638.80 515.80 L 640.70 516.40 L 641.10 517.00 L 641.00 517.60 L 640.40 518.60 L 634.60 525.00 L 626.90 532.70 L 625.50 533.40 L 623.80 533.10 L 623.50 532.60 L 623.70 531.90 L 626.20 527.20 L 628.70 523.30 L 631.30 520.10 L 633.90 517.60 L 636.90 516.10 L 638.80 515.80 Z" fill="#fdfafc" fill-rule="nonzero" node-id="118" stroke="none" target-height="17.600037" target-width="17.599976" target-x="623.5" target-y="515.8"></path><path d="M 617.80 524.10 L 620.20 521.00 L 623.40 519.20 L 624.30 519.40 L 624.60 520.30 L 623.50 524.00 L 622.00 527.60 L 620.10 530.90 L 617.80 534.10 L 615.00 537.20 L 613.30 538.30 L 612.20 538.60 L 610.70 538.30 L 610.20 537.10 L 610.40 536.50 L 617.80 524.10 Z" fill="#fdfafc" fill-rule="nonzero" node-id="120" stroke="none" target-height="19.399963" target-width="14.399963" target-x="610.2" target-y="519.2"></path><path d="M 550.60 591.60 L 531.00 589.90 L 529.00 586.00 L 527.40 582.00 L 526.30 577.80 L 525.60 573.50 L 525.40 569.10 L 526.00 562.50 L 527.50 558.30 L 528.20 557.30 L 528.80 557.10 L 529.20 557.40 L 529.80 558.40 L 531.50 564.90 L 532.90 568.50 L 534.70 571.90 L 537.00 575.20 L 539.70 578.30 L 542.90 581.20 L 546.70 584.00 L 550.80 586.40 L 556.90 589.30 L 558.10 590.70 L 558.10 591.10 L 557.20 591.60 L 550.60 591.60 Z" fill="#a1c2f4" fill-rule="nonzero" node-id="122" stroke="none" target-height="34.5" target-width="32.69995" target-x="525.4" target-y="557.1"></path><path d="M 962.80 683.80 L 958.60 683.80 L 953.90 683.10 L 951.80 682.30 L 949.20 680.50 L 948.40 680.30 L 929.40 649.30 L 926.90 646.20 L 927.00 645.60 L 941.20 625.40 L 945.10 619.20 L 950.30 610.00 L 954.60 601.00 L 958.60 591.80 L 959.70 591.30 L 966.70 593.70 L 973.10 595.40 L 979.50 596.40 L 986.00 596.80 L 992.50 596.80 L 999.10 596.30 L 1012.30 594.20 L 1028.70 589.70 L 1038.50 586.30 L 1039.50 586.20 L 1040.20 586.70 L 1040.70 587.40 L 1040.20 590.90 L 1040.90 602.70 L 1040.60 615.90 L 1039.90 620.80 L 1038.90 625.40 L 1037.50 629.70 L 1032.80 639.40 L 1029.60 644.30 L 1020.60 654.50 L 1008.90 664.00 L 1001.60 669.00 L 992.10 673.40 L 986.10 675.40 L 984.10 676.30 L 982.70 676.60 L 981.30 677.30 L 964.70 680.50 L 963.50 681.80 L 963.20 683.20 L 962.50 683.60 L 962.80 683.80 Z" fill="#a1c2f4" fill-rule="nonzero" node-id="124" stroke="none" target-height="97.599976" target-width="114" target-x="926.9" target-y="586.2"></path><path d="M 556.10 596.00 L 549.90 607.00 L 548.80 609.70 L 547.80 613.70 L 547.20 617.70 L 547.20 621.60 L 547.60 625.60 L 548.60 629.50 L 550.10 633.40 L 552.40 637.90 L 557.20 644.70 L 561.90 649.30 L 567.40 652.80 L 570.50 654.10 L 571.20 654.60 L 571.50 655.30 L 571.40 656.10 L 570.80 656.80 L 566.60 659.70 L 562.60 662.90 L 558.90 666.60 L 555.30 670.80 L 551.90 675.40 L 550.00 678.70 L 547.30 685.30 L 544.90 696.30 L 501.70 703.00 L 501.00 702.80 L 500.70 702.10 L 501.20 689.70 L 501.20 677.30 L 500.80 664.70 L 499.90 652.10 L 498.50 639.40 L 497.00 629.10 L 494.90 618.80 L 492.20 608.30 L 488.90 597.40 L 489.20 597.00 L 490.60 596.70 L 506.80 597.20 L 552.00 597.30 L 554.30 596.90 L 556.10 596.00 Z" fill="#fed4d8" fill-rule="nonzero" node-id="126" stroke="none" target-height="107" target-width="82.600006" target-x="488.9" target-y="596"></path><path d="M 392.10 748.40 L 381.20 746.10 L 370.70 742.70 L 368.80 741.70 L 367.20 740.40 L 365.60 738.60 L 351.90 713.20 L 339.90 689.30 L 328.20 664.60 L 326.60 660.10 L 326.90 657.10 L 327.70 655.30 L 347.80 621.10 L 356.70 607.30 L 358.40 605.80 L 375.10 603.90 L 406.60 601.10 L 452.70 598.30 L 468.00 597.80 L 469.20 598.20 L 471.10 599.90 L 472.60 601.90 L 473.80 604.40 L 477.10 613.90 L 480.00 623.60 L 482.40 633.50 L 484.40 643.70 L 486.00 654.10 L 487.20 664.70 L 487.90 675.70 L 488.30 689.60 L 488.00 703.70 L 487.60 704.30 L 486.50 705.10 L 480.40 706.70 L 470.10 708.30 L 449.40 710.50 L 444.60 711.70 L 440.40 714.10 L 395.30 747.80 L 393.70 748.40 L 392.10 748.40 Z" fill="#fed4d8" fill-rule="nonzero" node-id="128" stroke="none" target-height="150.60004" target-width="161.69998" target-x="326.6" target-y="597.8"></path><path d="M 1127.80 658.50 L 1123.60 661.60 L 1121.90 663.60 L 1119.80 666.90 L 1118.10 670.70 L 1116.90 674.60 L 1116.00 678.70 L 1114.70 687.70 L 1113.70 689.70 L 1112.80 690.30 L 1112.00 690.40 L 1110.80 689.70 L 1110.50 689.00 L 1108.20 674.20 L 1106.10 667.80 L 1104.60 664.90 L 1102.50 662.40 L 1100.00 660.10 L 1097.90 658.80 L 1092.30 656.80 L 1088.00 655.90 L 1087.20 655.00 L 1087.20 653.30 L 1087.80 652.60 L 1092.70 651.60 L 1095.90 650.50 L 1098.60 649.10 L 1101.00 647.20 L 1103.00 645.00 L 1104.80 642.50 L 1106.80 638.40 L 1108.50 633.80 L 1110.60 624.00 L 1110.80 623.40 L 1111.70 622.60 L 1113.60 622.70 L 1114.30 623.40 L 1116.50 634.10 L 1117.90 638.70 L 1119.80 642.70 L 1121.40 645.20 L 1123.40 647.30 L 1125.70 649.20 L 1128.20 650.60 L 1131.40 651.70 L 1135.80 652.60 L 1137.30 654.00 L 1137.40 654.70 L 1136.50 655.80 L 1129.70 657.70 L 1127.80 658.50 Z" fill="#fedf71" fill-rule="nonzero" node-id="130" stroke="none" target-height="67.80005" target-width="50.200073" target-x="1087.2" target-y="622.6"></path><path d="M 927.40 646.90 L 929.50 649.30 L 948.50 680.30 L 966.40 709.00 L 967.00 709.50 L 978.60 706.60 L 984.30 705.90 L 990.30 705.70 L 996.60 706.00 L 1002.30 706.80 L 1007.80 708.20 L 1013.10 710.10 L 1018.10 712.50 L 1022.90 715.40 L 1027.50 718.80 L 1031.70 722.50 L 1035.70 726.70 L 1039.40 731.30 L 1043.70 737.60 L 1047.90 744.40 L 1051.70 751.70 L 1055.40 759.50 L 1056.90 763.30 L 1058.50 770.00 L 1058.70 773.00 L 1058.50 778.80 L 1057.70 784.40 L 1056.50 789.90 L 1054.00 798.10 L 1050.90 806.30 L 1042.80 825.50 L 1034.70 843.30 L 1033.70 844.80 L 1023.70 852.70 L 1014.20 859.30 L 1012.50 860.10 L 1010.90 860.50 L 1009.10 860.40 L 979.30 854.40 L 968.90 851.80 L 965.90 850.70 L 963.30 849.30 L 961.20 847.60 L 959.50 845.50 L 950.00 830.50 L 875.20 706.40 L 870.20 699.10 L 864.30 687.10 L 865.40 686.20 L 866.30 684.70 L 867.80 684.40 L 869.00 684.50 L 892.10 722.30 L 892.60 722.60 L 893.00 722.40 L 897.10 718.00 L 901.60 713.80 L 914.50 703.20 L 921.30 698.20 L 933.10 690.90 L 943.10 686.20 L 943.50 685.80 L 943.40 685.20 L 928.30 659.70 L 925.30 653.10 L 923.90 649.10 L 925.90 647.50 L 927.40 646.90 Z M 919.80 766.30 L 920.50 766.10 L 920.80 765.40 L 921.20 762.50 L 922.00 759.60 L 923.30 756.90 L 926.10 752.30 L 929.20 748.10 L 932.60 744.30 L 937.10 739.90 L 937.80 738.90 L 940.40 730.00 L 941.90 727.10 L 943.80 724.40 L 946.10 722.00 L 948.90 719.70 L 958.00 713.40 L 958.40 712.80 L 949.90 698.70 L 949.00 698.10 L 947.90 697.90 L 946.40 698.30 L 939.80 701.40 L 933.80 704.70 L 923.20 711.80 L 910.10 723.30 L 900.30 732.70 L 900.00 735.20 L 900.50 736.40 L 918.50 765.30 L 919.80 766.30 Z M 939.10 775.40 L 938.60 775.10 L 937.50 770.80 L 937.10 767.30 L 937.10 764.40 L 939.00 745.90 L 938.80 745.30 L 938.40 745.00 L 937.30 745.30 L 929.40 755.30 L 921.30 767.70 L 921.10 769.20 L 954.70 827.20 L 961.00 836.40 L 963.70 841.70 L 965.60 844.40 L 967.00 845.40 L 968.70 845.90 L 980.70 848.50 L 1007.90 853.50 L 1009.80 853.70 L 1011.40 853.40 L 1017.00 849.90 L 1026.70 842.30 L 1029.00 839.50 L 1046.10 797.20 L 1049.10 788.50 L 1050.10 784.60 L 1050.60 780.60 L 1050.70 776.60 L 1050.30 772.40 L 1049.40 768.10 L 1047.60 761.90 L 1045.30 755.70 L 1042.50 749.60 L 1039.20 743.50 L 1035.50 737.50 L 1031.80 732.50 L 1027.90 728.10 L 1023.70 724.40 L 1019.20 721.20 L 1014.40 718.60 L 1009.40 716.50 L 1003.90 714.90 L 998.00 713.90 L 991.70 713.40 L 985.60 713.50 L 979.70 714.10 L 974.10 715.10 L 968.60 716.70 L 963.40 718.70 L 958.30 721.30 L 953.30 724.30 L 948.50 727.90 L 947.20 729.20 L 944.70 733.10 L 943.30 736.50 L 942.20 740.30 L 940.60 748.10 L 938.80 764.70 L 938.60 771.40 L 939.10 775.40 Z" fill="#fdfafc" fill-rule="nonzero" node-id="132" stroke="none" target-height="213.59998" target-width="194.39996" target-x="864.3" target-y="646.9"></path><path d="M 923.90 649.10 L 925.30 653.10 L 928.30 659.70 L 943.40 685.20 L 943.50 685.80 L 943.10 686.20 L 933.20 690.90 L 921.30 698.20 L 914.60 703.20 L 901.60 713.80 L 892.50 722.60 L 869.00 684.40 L 869.10 683.60 L 876.90 680.90 L 884.30 677.70 L 891.50 674.10 L 898.50 670.10 L 905.20 665.60 L 911.60 660.60 L 917.90 655.10 L 923.90 649.10 Z" fill="#ff9d7d" fill-rule="nonzero" node-id="134" stroke="none" target-height="73.5" target-width="74.5" target-x="869" target-y="649.1"></path><path d="M 744.80 740.30 L 733.90 740.10 L 737.20 739.30 L 740.60 736.20 L 748.60 733.50 L 754.60 731.00 L 760.30 728.20 L 765.70 725.00 L 770.70 721.40 L 775.50 717.40 L 780.00 713.00 L 785.50 706.90 L 790.90 700.30 L 796.10 693.20 L 802.50 683.30 L 805.70 675.80 L 806.60 675.50 L 807.10 675.70 L 814.70 682.00 L 809.00 689.10 L 801.10 701.90 L 799.20 703.30 L 798.20 705.70 L 797.00 707.20 L 794.30 709.50 L 791.90 712.90 L 787.90 717.20 L 783.70 721.10 L 779.30 724.60 L 774.70 727.80 L 769.90 730.60 L 764.40 733.20 L 758.60 735.20 L 752.50 736.70 L 745.60 737.80 L 744.90 739.30 L 744.80 740.30 Z" fill="#a1c2f4" fill-rule="nonzero" node-id="136" stroke="none" target-height="64.79999" target-width="80.79999" target-x="733.9" target-y="675.5"></path><path d="M 869.10 683.60 L 869.00 684.40 L 867.80 684.30 L 866.30 684.70 L 865.40 686.00 L 864.30 687.00 L 863.90 686.30 L 864.60 684.90 L 865.60 684.00 L 867.10 683.60 L 869.10 683.60 Z" fill="#fed4d8" fill-rule="nonzero" node-id="138" stroke="none" target-height="3.4000244" target-width="5.199951" target-x="863.9" target-y="683.6"></path><path d="M 863.90 686.30 L 870.30 699.00 L 876.60 708.80 L 870.40 708.80 L 870.60 708.20 L 870.30 707.70 L 868.50 707.00 L 849.00 705.70 L 846.20 705.30 L 841.50 703.50 L 837.50 700.40 L 828.40 689.90 L 827.40 689.70 L 826.90 690.60 L 825.90 686.00 L 838.40 687.50 L 844.10 687.70 L 855.40 687.00 L 861.40 685.60 L 862.70 685.60 L 863.90 686.30 Z" fill="#a1c2f4" fill-rule="nonzero" node-id="140" stroke="none" target-height="23.200012" target-width="50.69995" target-x="825.9" target-y="685.6"></path><path d="M 870.30 708.80 L 863.60 709.30 L 857.10 709.30 L 852.80 709.00 L 844.80 707.30 L 841.10 705.80 L 837.60 703.90 L 834.40 701.50 L 832.30 699.40 L 828.50 694.00 L 826.80 690.60 L 827.00 690.00 L 827.80 689.60 L 828.30 689.90 L 837.40 700.40 L 839.30 702.10 L 843.60 704.50 L 848.90 705.70 L 868.40 707.00 L 870.30 707.70 L 870.50 708.20 L 870.30 708.80 Z" fill="#d0e1fd" fill-rule="nonzero" node-id="142" stroke="none" target-height="19.700012" target-width="43.700012" target-x="826.8" target-y="689.6"></path><path d="M 919.80 766.30 L 918.50 765.50 L 900.50 736.60 L 900.00 735.40 L 900.00 734.10 L 900.40 732.90 L 901.10 731.90 L 910.10 723.50 L 923.20 711.90 L 928.30 708.30 L 933.80 704.80 L 939.80 701.60 L 946.40 698.50 L 947.80 698.10 L 948.90 698.30 L 949.80 698.90 L 950.70 700.00 L 958.40 713.00 L 958.00 713.60 L 948.90 719.90 L 946.10 722.10 L 943.80 724.50 L 941.90 727.20 L 940.40 730.10 L 937.80 739.10 L 937.10 740.20 L 932.60 744.50 L 929.20 748.30 L 926.10 752.50 L 923.30 757.10 L 922.00 759.90 L 921.20 762.70 L 920.80 765.60 L 920.60 766.20 L 919.80 766.30 Z" fill="#fed4d8" fill-rule="nonzero" node-id="144" stroke="none" target-height="68.20001" target-width="58.400024" target-x="900" target-y="698.1"></path><path d="M 546.00 702.20 L 548.50 712.10 L 550.20 716.30 L 552.40 720.20 L 555.00 723.90 L 558.00 727.20 L 561.30 730.20 L 565.00 732.80 L 568.90 735.00 L 573.20 736.90 L 579.00 738.70 L 586.20 740.40 L 577.30 753.90 L 577.20 753.50 L 576.40 753.30 L 574.30 753.30 L 572.50 752.30 L 569.50 751.40 L 563.00 750.40 L 560.50 749.30 L 556.10 746.70 L 554.40 746.50 L 552.80 746.80 L 545.80 750.30 L 529.40 754.80 L 527.30 755.80 L 520.10 755.80 L 510.60 753.60 L 508.30 752.50 L 504.70 749.90 L 502.40 748.70 L 497.20 743.60 L 496.70 740.50 L 495.90 740.10 L 495.90 739.20 L 495.00 738.50 L 494.40 736.00 L 494.30 734.20 L 495.40 727.70 L 496.00 717.30 L 495.50 714.10 L 496.40 711.70 L 501.40 710.30 L 526.30 706.00 L 546.00 702.20 Z" fill="#a1c2f4" fill-rule="nonzero" node-id="146" stroke="none" target-height="53.599976" target-width="91.900024" target-x="494.3" target-y="702.2"></path><path d="M 496.20 711.60 L 495.30 714.00 L 495.80 717.20 L 495.20 727.60 L 494.10 734.10 L 494.20 736.00 L 494.80 738.40 L 495.70 739.20 L 495.70 740.10 L 496.50 740.40 L 496.70 742.70 L 497.50 744.20 L 502.20 748.70 L 504.50 749.90 L 508.10 752.40 L 510.40 753.50 L 519.80 755.70 L 527.10 755.70 L 529.10 754.70 L 545.60 750.20 L 552.60 746.70 L 554.20 746.40 L 555.90 746.60 L 560.30 749.20 L 562.80 750.30 L 569.30 751.30 L 572.30 752.20 L 574.10 753.20 L 570.40 753.90 L 567.00 754.00 L 563.90 753.50 L 561.10 752.50 L 558.50 750.90 L 556.00 748.80 L 554.80 748.40 L 542.30 755.30 L 533.90 758.40 L 529.60 759.40 L 525.30 760.00 L 520.90 760.20 L 516.50 759.90 L 512.30 759.10 L 508.10 757.90 L 504.20 756.10 L 500.60 753.80 L 497.40 751.10 L 494.70 747.90 L 492.40 744.40 L 490.60 740.60 L 489.30 736.60 L 488.60 732.40 L 488.50 728.00 L 489.00 723.80 L 490.10 719.70 L 491.70 715.80 L 494.00 711.80 L 496.20 711.60 Z" fill="#d0e1fd" fill-rule="nonzero" node-id="148" stroke="none" target-height="48.600037" target-width="85.599976" target-x="488.5" target-y="711.6"></path><path d="M 939.30 775.10 L 938.80 771.40 L 938.70 767.90 L 940.80 748.10 L 941.50 744.30 L 943.50 736.50 L 944.90 733.10 L 947.40 729.20 L 948.70 727.90 L 953.50 724.30 L 958.50 721.20 L 963.60 718.70 L 968.80 716.60 L 974.30 715.10 L 979.90 714.00 L 985.80 713.50 L 991.90 713.40 L 998.20 713.90 L 1004.00 714.90 L 1009.50 716.50 L 1014.60 718.60 L 1019.30 721.30 L 1023.80 724.40 L 1028.00 728.20 L 1032.00 732.50 L 1035.70 737.50 L 1039.40 743.50 L 1042.70 749.60 L 1045.50 755.70 L 1047.80 761.90 L 1049.60 768.10 L 1050.50 772.30 L 1050.90 776.50 L 1050.80 780.50 L 1050.30 784.50 L 1049.30 788.50 L 1046.30 797.20 L 1029.20 839.50 L 1026.90 842.30 L 1017.30 849.90 L 1013.10 852.70 L 1011.60 853.40 L 1010.00 853.70 L 980.90 848.50 L 968.90 845.90 L 967.20 845.40 L 965.90 844.50 L 963.90 841.70 L 961.20 836.40 L 954.90 827.20 L 921.30 769.30 L 921.30 768.50 L 921.90 767.00 L 926.10 760.40 L 931.60 752.70 L 937.50 745.30 L 938.00 744.90 L 938.60 745.00 L 939.20 745.90 L 937.20 767.30 L 937.60 770.80 L 938.80 775.10 L 939.00 775.40 L 939.30 775.10 Z" fill="#f49bb7" fill-rule="nonzero" node-id="150" stroke="none" target-height="140.29999" target-width="129.60004" target-x="921.3" target-y="713.4"></path><path d="M 654.40 773.20 L 653.80 772.80 L 653.70 772.10 L 654.00 770.60 L 654.60 769.50 L 655.60 768.80 L 662.00 768.50 L 666.50 767.80 L 670.60 766.60 L 674.50 764.90 L 678.10 762.70 L 681.60 760.10 L 686.50 755.70 L 691.40 750.40 L 695.60 745.10 L 699.30 739.40 L 702.60 733.30 L 705.30 726.80 L 707.60 719.70 L 708.40 718.90 L 709.50 719.10 L 710.80 721.30 L 711.40 723.80 L 711.80 727.80 L 711.40 729.80 L 707.60 737.40 L 703.60 746.50 L 698.40 756.60 L 696.60 759.70 L 690.80 767.30 L 682.90 773.20 L 680.60 774.50 L 678.00 775.20 L 672.70 776.00 L 667.70 776.20 L 662.90 776.00 L 658.30 775.40 L 656.60 774.80 L 654.40 773.20 Z" fill="#a1c2f4" fill-rule="nonzero" node-id="152" stroke="none" target-height="57.299988" target-width="58.099976" target-x="653.7" target-y="718.9"></path><path d="M 319.20 722.20 L 322.60 730.00 L 326.20 736.90 L 330.60 744.20 L 330.50 745.40 L 329.90 746.80 L 328.90 747.70 L 327.60 748.20 L 326.60 748.20 L 325.10 747.20 L 321.20 741.20 L 318.00 735.20 L 315.30 729.20 L 313.30 723.10 L 313.20 721.90 L 313.50 720.80 L 314.20 719.90 L 315.70 719.50 L 318.40 721.10 L 319.20 722.20 Z" fill="#fdfafc" fill-rule="nonzero" node-id="154" stroke="none" target-height="28.700012" target-width="17.399994" target-x="313.2" target-y="719.5"></path><path d="M 647.10 771.90 L 631.30 804.40 L 630.80 804.80 L 630.20 804.80 L 616.30 797.90 L 602.30 791.60 L 592.80 787.80 L 583.20 784.50 L 573.40 781.60 L 572.90 781.20 L 572.90 780.60 L 593.60 740.30 L 604.20 740.10 L 609.00 739.60 L 613.50 738.70 L 617.90 737.30 L 622.90 735.20 L 623.80 740.70 L 624.90 745.20 L 626.40 749.30 L 628.30 753.00 L 630.50 756.40 L 633.20 759.40 L 636.30 762.10 L 639.80 764.60 L 643.80 766.70 L 648.80 768.70 L 648.90 769.40 L 647.10 771.90 Z" fill="#ff9d7d" fill-rule="nonzero" node-id="156" stroke="none" target-height="69.599976" target-width="76" target-x="572.9" target-y="735.2"></path><path d="M 593.60 740.20 L 572.90 780.50 L 572.90 781.10 L 573.40 781.50 L 583.20 784.40 L 592.80 787.70 L 602.30 791.50 L 616.30 797.80 L 630.20 804.70 L 630.80 804.70 L 631.30 804.30 L 647.10 771.80 L 647.40 772.20 L 648.90 771.30 L 650.20 771.60 L 651.20 772.60 L 651.70 774.00 L 651.90 775.80 L 633.10 815.90 L 609.40 868.00 L 585.90 920.30 L 579.70 935.30 L 578.70 937.30 L 575.50 941.00 L 569.70 945.70 L 554.70 956.70 L 541.50 965.90 L 539.20 967.10 L 536.80 967.70 L 534.40 967.60 L 514.20 963.70 L 503.70 961.20 L 496.60 959.10 L 489.80 956.50 L 483.30 953.60 L 477.10 950.30 L 465.20 942.50 L 454.00 933.30 L 450.30 929.60 L 447.20 925.80 L 443.80 919.90 L 438.40 905.50 L 436.70 900.00 L 435.50 894.40 L 435.20 891.40 L 435.50 888.40 L 436.40 885.20 L 439.60 877.00 L 443.30 869.10 L 447.60 861.70 L 453.70 853.00 L 455.10 851.80 L 456.80 850.90 L 465.40 849.50 L 471.30 849.00 L 486.90 849.50 L 497.10 850.50 L 507.30 852.00 L 517.40 854.00 L 527.60 856.50 L 528.40 856.60 L 529.00 856.30 L 577.40 753.70 L 586.30 740.20 L 593.00 739.10 L 593.70 739.20 L 593.60 740.20 Z M 512.90 860.70 L 495.70 858.10 L 487.00 857.10 L 478.30 856.60 L 469.70 856.50 L 461.40 857.00 L 460.00 857.30 L 458.80 858.10 L 457.70 859.20 L 453.70 865.30 L 449.90 872.00 L 446.30 879.10 L 442.30 889.00 L 442.10 893.60 L 442.50 896.10 L 444.50 903.10 L 446.90 910.10 L 449.80 917.20 L 451.50 920.60 L 453.20 923.30 L 455.00 925.40 L 461.10 931.20 L 467.40 936.40 L 473.90 941.10 L 480.70 945.30 L 487.70 949.00 L 493.70 951.60 L 500.80 954.10 L 509.20 956.30 L 521.30 958.90 L 533.60 961.20 L 535.30 961.30 L 536.80 960.90 L 539.50 959.40 L 570.70 936.40 L 573.40 933.50 L 588.50 898.20 L 624.60 818.90 L 624.70 817.40 L 623.70 816.20 L 613.40 811.20 L 595.70 803.60 L 572.60 795.60 L 569.70 794.90 L 565.80 794.60 L 564.30 799.50 L 564.40 800.20 L 576.50 804.50 L 582.00 807.20 L 583.30 808.10 L 584.00 809.20 L 584.20 810.50 L 583.80 812.40 L 583.00 814.00 L 582.00 814.80 L 580.70 815.10 L 579.00 814.70 L 560.90 807.80 L 559.60 807.80 L 559.00 808.10 L 545.50 835.20 L 545.50 835.80 L 556.30 839.10 L 562.60 841.60 L 565.60 843.00 L 567.90 844.40 L 570.00 846.60 L 570.40 847.60 L 570.50 849.30 L 570.00 850.50 L 569.00 851.40 L 567.80 851.90 L 566.30 852.00 L 542.30 843.90 L 541.30 844.70 L 535.90 856.10 L 532.70 862.00 L 531.80 862.90 L 530.50 863.10 L 512.90 860.70 Z" fill="#fdfafc" fill-rule="nonzero" node-id="158" stroke="none" target-height="228.60004" target-width="216.70001" target-x="435.2" target-y="739.1"></path><path d="M 352.30 763.50 L 370.30 774.40 L 371.20 775.20 L 371.60 776.20 L 371.70 777.30 L 371.30 778.40 L 370.40 779.40 L 369.40 779.80 L 368.30 779.90 L 367.20 779.50 L 349.20 768.60 L 348.30 767.80 L 347.90 766.80 L 347.80 765.70 L 348.20 764.60 L 349.10 763.60 L 350.10 763.10 L 351.20 763.10 L 352.30 763.50 Z" fill="#fdfafc" fill-rule="nonzero" node-id="160" stroke="none" target-height="16.800049" target-width="23.900024" target-x="347.8" target-y="763.1"></path><path d="M 1090.30 792.00 L 1091.20 789.80 L 1093.30 788.60 L 1094.20 788.60 L 1095.60 789.20 L 1096.50 790.00 L 1097.00 791.20 L 1097.10 792.70 L 1096.60 799.10 L 1095.80 805.70 L 1094.50 812.60 L 1093.90 814.40 L 1093.00 815.60 L 1091.90 816.30 L 1090.40 816.50 L 1088.90 816.00 L 1088.00 815.10 L 1087.50 814.10 L 1087.40 813.00 L 1089.30 803.30 L 1090.30 792.00 Z" fill="#fdfafc" fill-rule="nonzero" node-id="162" stroke="none" target-height="27.900024" target-width="9.699951" target-x="1087.4" target-y="788.6"></path><path d="M 461.40 857.00 L 469.70 856.50 L 478.30 856.60 L 487.00 857.10 L 495.70 858.00 L 521.80 862.10 L 531.40 863.20 L 532.50 862.60 L 532.90 862.10 L 537.60 853.40 L 541.50 844.80 L 542.10 844.20 L 543.00 844.10 L 553.70 847.60 L 565.00 851.70 L 566.50 852.10 L 568.00 852.00 L 569.20 851.50 L 570.20 850.60 L 570.70 849.40 L 570.60 847.70 L 569.40 845.70 L 568.10 844.60 L 562.80 841.70 L 556.50 839.30 L 545.70 835.90 L 545.70 835.30 L 558.80 808.80 L 559.80 807.90 L 561.10 807.90 L 579.20 814.80 L 580.90 815.20 L 582.20 814.90 L 583.20 814.10 L 584.00 812.50 L 584.40 810.60 L 584.10 809.30 L 583.40 808.20 L 582.20 807.30 L 576.60 804.60 L 564.60 800.20 L 564.50 799.60 L 566.00 794.60 L 569.90 794.90 L 572.80 795.70 L 595.90 803.70 L 613.60 811.30 L 624.50 816.80 L 625.00 818.20 L 624.80 819.00 L 588.70 898.30 L 573.60 933.60 L 570.90 936.50 L 539.80 959.50 L 537.00 961.00 L 535.50 961.40 L 533.80 961.30 L 521.50 959.00 L 509.40 956.40 L 501.00 954.20 L 493.90 951.70 L 487.90 949.10 L 480.90 945.40 L 474.10 941.20 L 467.60 936.50 L 461.30 931.30 L 455.20 925.50 L 453.30 923.30 L 451.60 920.60 L 450.00 917.30 L 447.20 910.20 L 442.70 896.20 L 442.20 891.40 L 443.20 886.90 L 446.50 879.30 L 450.00 872.10 L 453.80 865.50 L 458.50 858.40 L 459.40 857.70 L 461.40 857.00 Z" fill="#f49bb7" fill-rule="nonzero" node-id="164" stroke="none" target-height="166.80005" target-width="182.79999" target-x="442.2" target-y="794.6"></path><path d="M 378.30 821.70 L 379.30 827.30 L 380.90 832.60 L 382.40 835.80 L 384.40 838.80 L 386.80 841.50 L 389.30 843.30 L 392.00 844.50 L 397.80 846.10 L 398.70 846.80 L 398.90 847.50 L 398.50 848.70 L 397.80 849.20 L 392.10 850.20 L 389.60 851.10 L 387.40 852.50 L 385.50 854.30 L 383.90 856.40 L 381.40 861.30 L 380.10 865.40 L 377.70 878.00 L 376.30 878.90 L 375.40 878.90 L 374.50 878.50 L 373.90 877.80 L 372.60 867.40 L 371.50 862.90 L 369.90 858.90 L 368.40 856.40 L 366.60 854.20 L 364.50 852.40 L 362.00 850.90 L 358.90 849.80 L 355.20 849.10 L 354.30 848.70 L 353.70 847.90 L 353.50 846.80 L 353.80 846.20 L 360.00 844.50 L 362.60 843.30 L 364.80 841.70 L 367.60 838.80 L 369.70 835.80 L 371.40 832.70 L 372.80 829.30 L 375.10 821.00 L 375.80 820.40 L 376.70 820.20 L 378.00 820.90 L 378.30 821.70 Z" fill="#fedf71" fill-rule="nonzero" node-id="166" stroke="none" target-height="58.700012" target-width="45.399994" target-x="353.5" target-y="820.2"></path><path d="M 1081.30 848.60 L 1082.30 849.60 L 1082.90 850.70 L 1082.90 851.90 L 1082.50 853.10 L 1071.40 871.90 L 1070.50 872.80 L 1069.40 873.40 L 1068.20 873.40 L 1067.00 873.00 L 1066.00 872.00 L 1065.50 870.90 L 1065.40 869.70 L 1065.80 868.50 L 1076.90 849.70 L 1077.80 848.80 L 1078.90 848.30 L 1080.10 848.20 L 1081.30 848.60 Z" fill="#fdfafc" fill-rule="nonzero" node-id="168" stroke="none" target-height="25.200012" target-width="17.5" target-x="1065.4" target-y="848.2"></path><path d="M 877.00 938.10 L 876.60 938.90 L 875.30 940.10 L 867.20 941.40 L 863.50 942.50 L 860.00 944.00 L 856.60 945.90 L 853.50 948.30 L 849.60 951.80 L 845.90 955.80 L 842.60 960.40 L 839.60 965.30 L 834.40 975.70 L 831.10 983.90 L 828.60 991.90 L 825.00 1006.90 L 820.70 1033.70 L 820.20 1035.10 L 818.60 1037.00 L 816.50 1037.60 L 814.60 1036.90 L 814.00 1036.00 L 811.80 1023.80 L 809.10 1014.30 L 803.50 998.70 L 797.90 986.90 L 794.60 981.30 L 791.00 975.90 L 786.90 970.80 L 782.50 966.10 L 777.60 961.60 L 772.10 957.50 L 768.30 955.30 L 764.30 953.70 L 756.00 951.10 L 754.90 950.50 L 754.20 949.60 L 754.10 947.30 L 754.50 946.20 L 756.00 944.50 L 760.20 942.60 L 766.30 938.60 L 770.60 934.90 L 774.40 930.80 L 777.80 926.40 L 780.50 922.30 L 784.50 915.20 L 788.10 908.00 L 791.40 900.60 L 794.20 893.00 L 797.50 882.70 L 800.30 872.30 L 802.50 861.60 L 805.50 844.30 L 808.20 826.60 L 808.80 824.50 L 809.90 822.70 L 810.80 822.20 L 813.40 822.80 L 814.30 823.50 L 814.90 824.60 L 817.80 847.60 L 819.90 858.60 L 822.50 870.00 L 825.10 879.40 L 828.10 888.20 L 831.30 896.50 L 834.80 904.10 L 838.50 911.20 L 841.10 915.30 L 843.80 918.80 L 846.70 921.80 L 849.70 924.20 L 852.80 926.10 L 862.80 930.80 L 874.70 933.40 L 876.00 934.10 L 876.80 935.00 L 877.20 936.30 L 877.00 938.10 Z" fill="#fedf71" fill-rule="nonzero" node-id="170" stroke="none" target-height="215.39996" target-width="123.10004" target-x="754.1" target-y="822.2"></path><path d="M 726.60 861.00 L 727.60 861.20 L 728.40 861.90 L 730.30 867.00 L 731.30 868.30 L 736.60 872.30 L 737.20 873.00 L 737.30 873.70 L 736.40 875.00 L 732.60 877.00 L 731.10 878.30 L 729.90 879.80 L 729.10 881.70 L 728.70 884.70 L 727.90 885.60 L 727.30 885.90 L 726.30 885.90 L 725.00 884.80 L 723.70 881.20 L 722.70 879.50 L 721.40 878.10 L 715.90 874.60 L 715.30 873.90 L 715.10 873.10 L 715.40 872.30 L 716.10 871.70 L 719.00 870.00 L 721.40 867.90 L 723.30 865.40 L 725.10 861.80 L 726.60 861.00 Z" fill="#fedf71" fill-rule="nonzero" node-id="172" stroke="none" target-height="24.900024" target-width="22.200012" target-x="715.1" target-y="861"></path><path d="M 441.60 972.70 L 442.10 973.80 L 441.60 974.80 L 440.50 976.00 L 439.70 976.50 L 438.70 976.60 L 437.20 976.20 L 435.00 975.10 L 432.60 973.10 L 425.90 966.60 L 423.90 964.20 L 422.70 962.10 L 422.40 959.60 L 423.90 957.60 L 425.00 957.20 L 426.00 957.60 L 441.60 972.70 Z" fill="#fdfafc" fill-rule="nonzero" node-id="174" stroke="none" target-height="19.399963" target-width="19.700012" target-x="422.4" target-y="957.2"></path><g node-id="181"><path d="M 467.70 989.20 L 469.30 990.30 L 470.40 991.50 L 470.90 993.40 L 470.70 994.20 L 469.40 995.30 L 466.70 995.60 L 464.90 995.00 L 463.40 994.00 L 462.30 992.70 L 461.80 990.80 L 462.50 989.40 L 464.20 988.60 L 465.90 988.60 L 467.70 989.20 Z" fill="#fdfafc" fill-rule="nonzero" group-id="2" node-id="178" stroke="none" target-height="7" target-width="9.100006" target-x="461.8" target-y="988.6"></path></g></svg>