<?xml version="1.0" standalone="no"?><!DOCTYPE svg PUBLIC "-//W3C//DTD SVG 1.1//EN" "http://www.w3.org/Graphics/SVG/1.1/DTD/svg11.dtd"><svg height="1130" node-id="1" sillyvg="true" template-height="1130" template-width="1500" version="1.1" viewBox="0 0 1500 1130" width="1500" xmlns="http://www.w3.org/2000/svg" xmlns:xlink="http://www.w3.org/1999/xlink"><defs node-id="56"></defs><path d="M 0.00 0.00 L 1500.00 0.00 L 1500.00 1129.90 L 0.00 1129.90 L 0.00 0.00 Z M 459.50 204.10 L 458.60 203.90 L 458.10 203.20 L 433.50 149.30 L 409.70 98.30 L 408.70 96.70 L 407.40 95.80 L 405.90 95.40 L 401.10 96.20 L 398.70 97.20 L 397.30 98.10 L 396.10 99.40 L 395.10 101.30 L 370.60 168.60 L 359.30 201.90 L 348.60 235.20 L 348.00 236.10 L 347.10 236.70 L 283.70 257.60 L 268.30 264.10 L 267.50 264.90 L 267.00 266.90 L 267.00 268.50 L 267.60 269.80 L 268.70 270.90 L 270.60 271.90 L 336.00 296.20 L 336.90 296.90 L 337.10 298.00 L 327.00 387.20 L 326.60 393.10 L 326.70 395.20 L 327.30 396.80 L 328.30 398.20 L 330.70 399.90 L 333.90 400.30 L 335.80 399.80 L 339.20 397.50 L 366.80 371.30 L 420.20 319.60 L 421.10 319.20 L 422.20 319.30 L 450.70 332.30 L 506.40 356.80 L 508.40 357.40 L 510.50 357.30 L 512.70 356.60 L 514.70 355.40 L 516.00 354.30 L 516.80 353.10 L 517.30 350.30 L 517.10 348.70 L 515.30 343.70 L 497.90 306.30 L 492.00 295.90 L 491.60 294.00 L 538.70 192.40 L 539.00 191.20 L 538.90 190.20 L 538.30 189.40 L 537.10 188.60 L 535.50 188.20 L 533.60 188.20 L 466.90 203.50 L 459.50 204.10 Z M 943.80 198.20 L 968.50 194.80 L 970.20 194.10 L 972.50 191.80 L 973.20 190.30 L 973.60 187.10 L 972.80 183.80 L 971.90 182.20 L 969.20 179.50 L 957.40 171.50 L 945.00 163.90 L 943.70 162.60 L 943.30 160.80 L 943.30 142.40 L 943.00 133.50 L 942.00 123.10 L 941.40 121.70 L 940.40 120.50 L 938.80 119.40 L 937.20 118.70 L 934.00 118.60 L 931.00 119.90 L 928.70 122.40 L 917.70 149.80 L 917.20 150.40 L 916.40 150.40 L 906.10 146.60 L 900.50 145.60 L 897.90 145.70 L 895.70 146.40 L 893.80 147.60 L 891.50 150.10 L 890.60 153.20 L 891.20 157.50 L 902.50 181.10 L 902.80 182.20 L 902.60 183.30 L 898.00 195.50 L 896.30 201.00 L 895.90 203.40 L 896.10 205.60 L 896.80 207.60 L 898.10 209.50 L 899.30 210.60 L 902.10 211.70 L 904.50 211.70 L 907.10 211.30 L 912.20 209.50 L 916.90 207.20 L 917.90 207.60 L 927.20 227.80 L 928.50 229.50 L 929.80 230.50 L 931.60 231.30 L 935.00 231.80 L 936.70 231.50 L 939.50 230.00 L 940.60 228.80 L 941.40 227.20 L 941.90 225.30 L 942.70 217.00 L 943.10 208.40 L 943.00 198.90 L 943.80 198.20 Z M 379.40 759.50 L 379.70 760.80 L 379.50 761.80 L 377.70 766.30 L 376.20 771.00 L 375.10 775.80 L 374.50 780.70 L 374.30 785.50 L 374.60 790.40 L 375.30 795.20 L 376.60 799.90 L 378.40 804.50 L 380.90 809.00 L 383.70 813.10 L 387.00 816.60 L 389.70 819.00 L 395.70 822.80 L 399.00 824.20 L 402.40 825.20 L 406.00 825.90 L 409.70 826.20 L 413.70 826.10 L 420.80 824.80 L 424.30 823.60 L 430.80 820.30 L 433.90 818.20 L 436.80 815.80 L 441.80 810.40 L 443.00 809.80 L 444.20 810.40 L 447.70 814.70 L 449.80 816.70 L 453.70 819.20 L 457.30 820.00 L 459.40 819.90 L 462.90 818.70 L 465.80 816.30 L 466.90 814.70 L 468.30 812.10 L 469.10 809.30 L 470.50 801.40 L 471.50 793.10 L 472.00 784.40 L 472.80 783.60 L 477.50 781.50 L 479.00 781.40 L 480.20 781.70 L 486.70 786.00 L 493.20 789.70 L 499.70 792.90 L 506.30 795.60 L 512.90 797.70 L 519.60 799.40 L 526.90 800.80 L 542.30 802.40 L 550.50 802.70 L 557.10 802.50 L 563.50 801.90 L 569.70 800.90 L 582.00 797.90 L 588.10 795.90 L 597.10 792.40 L 606.20 788.20 L 607.30 788.00 L 608.30 788.40 L 613.60 792.20 L 619.20 795.60 L 624.90 798.60 L 630.80 801.20 L 636.90 803.30 L 638.20 804.70 L 638.20 804.20 L 628.90 884.30 L 618.30 884.70 L 607.40 886.60 L 600.10 888.60 L 592.90 891.00 L 585.80 893.90 L 578.70 897.30 L 571.60 901.30 L 562.80 906.90 L 553.90 913.10 L 534.40 928.40 L 532.30 928.50 L 526.60 927.30 L 520.20 926.50 L 513.00 926.10 L 500.30 926.40 L 494.60 927.00 L 488.10 928.20 L 482.00 929.80 L 476.20 931.90 L 470.80 934.30 L 465.60 937.20 L 460.70 940.60 L 456.00 944.40 L 451.60 948.60 L 447.60 953.10 L 444.20 957.70 L 441.30 962.50 L 438.90 967.30 L 436.90 972.40 L 435.20 977.60 L 434.00 983.00 L 433.10 988.50 L 432.50 995.90 L 432.50 1003.60 L 433.00 1011.50 L 433.90 1018.20 L 435.30 1024.80 L 437.10 1031.30 L 439.50 1037.70 L 442.40 1043.70 L 445.80 1049.50 L 451.80 1057.50 L 459.10 1064.40 L 463.30 1067.40 L 467.70 1069.90 L 472.30 1072.00 L 477.00 1073.60 L 481.90 1074.80 L 486.90 1075.60 L 492.00 1075.90 L 502.30 1075.60 L 510.40 1074.50 L 518.70 1072.90 L 527.20 1070.70 L 535.90 1068.00 L 544.80 1064.60 L 556.00 1059.80 L 578.40 1048.90 L 600.30 1036.50 L 611.20 1029.90 L 627.10 1019.50 L 649.00 1003.80 L 659.90 994.60 L 665.00 989.50 L 669.50 984.00 L 673.50 978.30 L 678.50 969.00 L 682.00 959.50 L 683.20 954.50 L 684.50 944.50 L 684.60 939.50 L 684.20 934.50 L 683.40 929.60 L 682.10 924.70 L 680.40 919.80 L 678.30 915.20 L 675.70 910.60 L 672.50 906.10 L 668.80 901.70 L 662.70 895.70 L 672.60 805.20 L 673.40 804.50 L 679.90 803.00 L 686.20 801.00 L 692.30 798.40 L 707.60 790.20 L 722.10 790.50 L 728.60 790.20 L 738.20 788.50 L 747.70 785.40 L 753.40 782.70 L 758.80 779.50 L 763.90 776.00 L 768.80 772.00 L 778.40 762.30 L 779.10 762.50 L 800.60 789.30 L 822.50 815.60 L 844.60 841.60 L 878.30 882.00 L 875.90 886.80 L 874.00 891.60 L 872.80 896.30 L 872.10 901.00 L 871.90 905.80 L 872.30 910.50 L 873.20 915.40 L 875.00 921.40 L 877.20 927.00 L 879.90 932.20 L 883.10 937.10 L 886.90 941.60 L 891.10 945.90 L 895.90 949.90 L 901.30 953.70 L 907.40 957.10 L 912.90 959.60 L 918.40 961.60 L 923.90 962.90 L 929.30 963.70 L 934.80 963.90 L 940.30 963.60 L 946.20 962.70 L 951.70 961.20 L 956.80 959.20 L 961.60 956.70 L 966.20 953.80 L 970.40 950.40 L 974.40 946.60 L 978.10 942.40 L 981.50 938.00 L 987.50 928.20 L 990.10 922.90 L 994.40 912.90 L 998.20 902.30 L 1001.60 891.20 L 1004.50 879.50 L 1007.60 864.20 L 1010.30 849.00 L 1012.40 833.90 L 1014.10 818.90 L 1014.60 810.20 L 1014.60 801.70 L 1014.00 793.20 L 1013.00 784.70 L 1011.80 777.90 L 1010.30 771.30 L 1008.30 764.80 L 1005.90 758.50 L 1003.10 752.30 L 1003.10 751.70 L 1003.50 751.20 L 1009.20 748.70 L 1020.30 742.90 L 1027.50 744.40 L 1035.80 745.70 L 1044.00 746.50 L 1052.20 746.70 L 1060.30 746.50 L 1068.30 745.70 L 1076.40 744.40 L 1084.40 742.60 L 1092.40 740.30 L 1101.50 737.10 L 1110.00 733.40 L 1118.00 729.30 L 1125.50 724.80 L 1132.50 719.80 L 1139.10 714.50 L 1145.20 708.70 L 1150.90 702.50 L 1156.30 695.80 L 1161.20 688.60 L 1165.70 681.00 L 1169.90 672.70 L 1173.70 663.90 L 1177.00 654.50 L 1179.80 644.70 L 1182.10 634.50 L 1183.90 623.90 L 1185.00 612.90 L 1185.40 604.00 L 1185.30 595.10 L 1184.50 586.20 L 1183.50 579.50 L 1180.50 566.70 L 1178.50 560.50 L 1176.10 554.50 L 1173.30 548.70 L 1170.20 543.20 L 1166.60 537.90 L 1162.70 533.00 L 1158.30 528.40 L 1153.50 524.20 L 1148.30 520.30 L 1142.80 516.90 L 1136.80 514.00 L 1130.30 511.50 L 1123.20 509.50 L 1114.50 508.40 L 1105.40 508.20 L 1097.20 510.00 L 1095.10 510.30 L 1094.30 510.00 L 1095.70 490.20 L 1096.00 480.20 L 1095.80 470.20 L 1095.20 460.10 L 1094.20 450.10 L 1092.70 440.20 L 1090.70 430.50 L 1088.30 420.90 L 1085.30 411.40 L 1081.80 402.10 L 1077.80 393.20 L 1073.20 384.40 L 1069.50 378.10 L 1061.20 366.30 L 1056.70 360.70 L 1051.90 355.50 L 1046.80 350.50 L 1041.40 346.00 L 1035.60 341.80 L 1029.60 338.10 L 1023.40 335.00 L 1017.30 332.40 L 1011.30 330.50 L 1005.30 329.10 L 999.20 328.30 L 993.20 327.90 L 987.10 328.20 L 981.00 328.90 L 974.70 330.20 L 968.40 332.10 L 962.60 335.20 L 949.40 329.20 L 942.80 326.70 L 936.10 324.70 L 929.30 323.00 L 922.40 321.70 L 915.40 320.90 L 908.40 320.40 L 901.40 320.50 L 894.50 321.00 L 887.60 322.00 L 880.90 323.60 L 873.70 325.80 L 866.90 328.40 L 860.30 331.50 L 854.10 334.90 L 848.10 338.80 L 842.40 343.20 L 837.00 347.90 L 831.80 353.20 L 830.70 353.90 L 829.70 354.00 L 827.60 353.00 L 826.60 351.90 L 824.00 342.90 L 821.50 335.70 L 818.50 328.90 L 815.00 322.40 L 811.00 316.30 L 806.60 310.50 L 801.60 305.00 L 796.90 300.50 L 792.10 296.50 L 787.00 292.90 L 781.70 289.70 L 770.60 284.40 L 758.90 280.60 L 750.80 278.80 L 742.60 277.60 L 734.30 277.00 L 725.90 277.00 L 717.50 277.40 L 709.20 278.40 L 700.90 279.90 L 692.80 281.80 L 684.90 284.20 L 677.50 286.90 L 670.60 290.00 L 664.10 293.40 L 657.90 297.20 L 652.10 301.40 L 646.70 305.90 L 640.90 311.40 L 635.40 317.40 L 630.00 323.80 L 624.90 330.70 L 620.00 338.20 L 614.70 347.20 L 609.80 356.80 L 604.30 369.90 L 600.10 383.50 L 598.60 390.30 L 597.50 397.20 L 597.00 397.90 L 596.10 398.00 L 590.50 396.00 L 584.80 394.60 L 574.90 392.80 L 565.10 391.70 L 555.60 391.20 L 546.20 391.20 L 537.00 391.80 L 530.30 392.70 L 523.70 394.00 L 517.20 395.70 L 510.80 397.80 L 504.10 400.50 L 497.80 403.70 L 491.90 407.20 L 486.30 411.20 L 481.10 415.60 L 476.30 420.30 L 471.90 425.40 L 467.80 430.80 L 464.10 436.50 L 460.90 442.40 L 458.00 448.70 L 455.60 455.20 L 453.50 461.80 L 451.90 468.60 L 450.80 475.60 L 449.60 489.80 L 449.80 504.40 L 449.50 505.10 L 448.80 505.40 L 444.50 505.20 L 440.30 505.60 L 425.60 508.30 L 418.50 510.20 L 411.50 512.70 L 404.60 515.80 L 394.90 521.50 L 386.00 528.30 L 381.90 532.20 L 378.20 536.30 L 374.80 540.60 L 371.80 545.20 L 369.10 550.20 L 366.90 555.40 L 365.10 560.70 L 363.90 566.10 L 363.00 571.80 L 362.70 577.60 L 362.80 583.70 L 362.60 585.00 L 361.70 586.00 L 355.00 590.60 L 348.80 595.60 L 342.90 601.10 L 338.80 605.50 L 335.00 610.10 L 328.40 619.90 L 323.00 630.40 L 319.10 641.60 L 317.80 647.40 L 316.80 653.40 L 316.30 659.40 L 316.20 665.70 L 316.60 673.30 L 317.60 680.60 L 319.00 687.80 L 320.90 694.80 L 323.30 701.70 L 326.10 708.40 L 329.40 714.70 L 333.10 720.90 L 337.30 726.80 L 341.80 732.30 L 346.80 737.50 L 352.20 742.40 L 357.90 746.80 L 364.00 750.80 L 370.50 754.50 L 377.40 757.70 L 379.40 759.50 Z M 416.40 393.70 L 415.60 397.30 L 415.90 400.00 L 419.40 403.20 L 421.80 408.80 L 423.90 410.60 L 425.50 411.10 L 427.70 411.30 L 431.20 410.50 L 432.70 409.60 L 433.80 408.40 L 434.60 406.90 L 435.00 405.30 L 435.00 403.40 L 434.50 401.10 L 432.30 393.80 L 433.60 388.40 L 433.70 387.10 L 433.30 385.90 L 429.70 382.20 L 427.50 379.50 L 424.10 374.60 L 422.90 373.60 L 420.60 372.90 L 418.20 373.70 L 416.60 375.10 L 414.50 378.50 L 414.30 381.20 L 416.50 392.30 L 416.40 393.70 Z M 1161.60 423.50 L 1163.30 419.00 L 1166.70 416.00 L 1167.50 414.80 L 1167.90 413.50 L 1167.70 411.30 L 1166.30 409.60 L 1165.80 408.30 L 1166.40 393.10 L 1166.20 391.40 L 1165.10 389.20 L 1163.70 388.20 L 1161.90 387.60 L 1159.90 387.50 L 1156.40 388.30 L 1154.10 390.30 L 1152.80 392.40 L 1151.90 394.90 L 1149.50 406.00 L 1145.50 410.80 L 1145.10 412.00 L 1145.10 413.50 L 1146.40 415.60 L 1146.90 417.80 L 1145.80 427.40 L 1145.80 429.30 L 1146.40 431.10 L 1147.30 432.60 L 1148.60 433.70 L 1150.90 434.40 L 1152.30 434.40 L 1154.40 433.90 L 1157.20 432.40 L 1158.70 430.70 L 1159.80 428.60 L 1161.60 423.50 Z M 426.10 445.00 L 427.40 457.50 L 428.00 458.60 L 429.30 459.00 L 431.90 458.50 L 433.80 457.00 L 434.70 454.80 L 434.10 447.40 L 433.80 446.10 L 432.40 444.10 L 430.30 443.00 L 427.70 443.10 L 426.50 443.70 L 426.10 445.00 Z M 419.00 448.70 L 418.50 447.30 L 417.50 446.30 L 416.20 445.70 L 414.70 445.60 L 412.70 446.20 L 411.70 447.20 L 411.10 448.50 L 411.00 450.00 L 412.60 459.60 L 413.10 461.00 L 414.10 462.00 L 415.40 462.60 L 416.90 462.70 L 418.90 462.10 L 419.90 461.10 L 420.50 459.80 L 420.60 458.30 L 419.00 448.70 Z M 404.10 450.40 L 403.40 449.00 L 402.30 448.00 L 400.90 447.50 L 398.90 447.70 L 397.50 448.40 L 396.50 449.50 L 396.00 450.90 L 396.10 452.50 L 399.20 464.20 L 399.90 465.60 L 401.00 466.60 L 402.40 467.10 L 404.40 466.90 L 405.80 466.20 L 406.80 465.10 L 407.30 463.70 L 407.20 462.10 L 404.10 450.40 Z M 1129.50 468.90 L 1129.60 467.40 L 1129.10 466.00 L 1128.10 465.00 L 1126.30 464.20 L 1124.80 464.10 L 1123.40 464.60 L 1122.40 465.60 L 1121.70 467.00 L 1119.30 476.70 L 1119.20 478.20 L 1119.70 479.60 L 1120.70 480.60 L 1122.50 481.40 L 1124.00 481.50 L 1125.40 481.00 L 1126.40 480.00 L 1127.10 478.60 L 1129.50 468.90 Z M 1145.80 472.70 L 1145.90 471.20 L 1145.50 469.80 L 1144.50 468.70 L 1143.20 468.00 L 1141.00 467.70 L 1139.60 468.10 L 1138.50 469.10 L 1137.80 470.40 L 1134.90 480.50 L 1134.80 482.00 L 1135.20 483.40 L 1136.20 484.50 L 1137.50 485.20 L 1139.70 485.50 L 1141.10 485.10 L 1142.20 484.10 L 1142.90 482.80 L 1145.80 472.70 Z M 1163.00 477.40 L 1163.20 475.90 L 1162.80 474.40 L 1162.00 473.20 L 1160.60 472.40 L 1158.70 472.10 L 1157.20 472.50 L 1156.00 473.30 L 1155.20 474.70 L 1151.50 484.90 L 1151.30 486.40 L 1151.70 487.90 L 1152.50 489.10 L 1153.90 489.90 L 1155.80 490.20 L 1157.30 489.90 L 1158.50 489.00 L 1159.30 487.60 L 1163.00 477.40 Z M 363.00 501.70 L 362.30 500.30 L 361.20 499.40 L 359.80 498.90 L 357.80 499.10 L 356.40 499.80 L 355.50 500.90 L 355.00 502.30 L 355.10 503.90 L 357.90 513.60 L 358.60 515.00 L 359.70 515.90 L 361.10 516.40 L 363.10 516.20 L 364.50 515.50 L 365.40 514.40 L 365.90 513.00 L 365.80 511.40 L 363.00 501.70 Z M 347.50 508.40 L 346.60 507.20 L 345.30 506.50 L 343.90 506.30 L 342.40 506.70 L 340.90 507.80 L 340.20 509.10 L 340.00 510.50 L 340.40 512.00 L 344.50 520.50 L 345.40 521.70 L 346.70 522.40 L 348.10 522.60 L 349.60 522.20 L 351.10 521.10 L 351.80 519.80 L 352.00 518.40 L 351.60 516.90 L 347.50 508.40 Z M 333.90 518.20 L 332.70 517.30 L 331.20 517.00 L 329.80 517.20 L 328.30 518.20 L 327.40 519.40 L 327.10 520.90 L 327.30 522.30 L 328.10 523.60 L 335.20 531.20 L 336.40 532.10 L 337.90 532.40 L 339.30 532.20 L 340.80 531.20 L 341.70 530.00 L 342.00 528.50 L 341.80 527.10 L 341.00 525.80 L 333.90 518.20 Z M 315.70 832.20 L 314.60 833.30 L 311.90 833.30 L 308.70 834.00 L 306.90 835.70 L 306.10 837.60 L 305.90 839.30 L 306.20 840.80 L 307.10 842.20 L 309.00 844.00 L 309.40 845.20 L 307.70 851.30 L 306.40 857.40 L 306.30 859.30 L 306.60 861.10 L 307.30 862.80 L 308.50 864.00 L 310.70 864.90 L 312.10 864.80 L 313.70 864.30 L 314.90 863.30 L 316.00 861.80 L 318.30 857.00 L 322.30 847.40 L 325.10 846.80 L 326.50 846.20 L 327.60 845.30 L 328.40 844.10 L 328.80 842.90 L 328.40 840.00 L 326.00 836.30 L 325.90 835.00 L 327.00 827.40 L 326.90 825.70 L 326.30 824.40 L 325.40 823.30 L 323.30 822.70 L 321.20 823.50 L 319.20 825.40 L 317.70 827.40 L 315.70 832.20 Z M 1115.10 869.10 L 1116.00 870.10 L 1116.00 870.90 L 1115.10 875.60 L 1114.70 880.00 L 1114.70 884.10 L 1115.00 885.40 L 1115.80 886.50 L 1117.00 887.20 L 1118.90 887.70 L 1120.40 887.80 L 1121.60 887.30 L 1123.70 885.40 L 1125.50 881.70 L 1127.10 872.80 L 1127.90 871.20 L 1129.50 869.70 L 1131.60 868.70 L 1132.80 866.50 L 1132.80 865.30 L 1132.20 864.20 L 1129.60 862.00 L 1129.90 858.80 L 1129.60 854.90 L 1128.20 852.70 L 1127.10 852.10 L 1125.60 851.70 L 1123.30 851.80 L 1122.40 852.30 L 1120.40 855.50 L 1119.10 858.60 L 1118.20 862.20 L 1115.00 863.50 L 1114.00 864.00 L 1113.30 864.80 L 1113.00 865.90 L 1113.30 867.70 L 1113.60 868.30 L 1115.10 869.10 Z M 1113.50 1009.90 L 1118.10 1027.30 L 1119.00 1029.30 L 1120.10 1030.60 L 1121.50 1031.40 L 1123.40 1031.60 L 1125.80 1031.30 L 1127.10 1030.80 L 1128.80 1028.90 L 1136.70 1008.40 L 1137.20 1007.70 L 1137.90 1007.40 L 1164.00 1005.40 L 1167.70 1004.30 L 1170.30 1002.00 L 1171.10 1000.30 L 1171.70 997.80 L 1171.60 996.20 L 1170.00 993.60 L 1158.20 982.80 L 1146.70 973.00 L 1152.40 942.80 L 1152.70 940.20 L 1152.50 938.20 L 1151.90 936.60 L 1150.90 935.10 L 1149.90 934.20 L 1147.50 933.30 L 1144.90 933.60 L 1143.00 934.40 L 1141.20 935.80 L 1130.90 945.70 L 1121.70 955.10 L 1121.10 955.40 L 1120.40 955.30 L 1105.30 946.30 L 1098.00 942.60 L 1096.00 942.00 L 1094.00 941.80 L 1092.00 942.10 L 1090.40 942.90 L 1089.10 944.10 L 1088.30 945.60 L 1088.10 946.80 L 1088.80 949.90 L 1092.90 959.50 L 1102.00 978.90 L 1101.90 980.20 L 1101.30 981.50 L 1097.70 986.60 L 1092.30 996.00 L 1091.40 998.40 L 1090.90 1001.10 L 1090.90 1002.90 L 1091.30 1004.50 L 1092.00 1006.00 L 1093.00 1007.20 L 1094.50 1008.00 L 1096.70 1008.50 L 1104.70 1009.00 L 1112.40 1009.10 L 1113.00 1009.30 L 1113.50 1009.90 Z" fill="#120c14" fill-opacity="0" fill-rule="nonzero" node-id="58" stroke="none" target-height="1129.9" target-width="1500" target-x="0" target-y="0"></path><path d="M 459.50 204.10 L 466.90 203.30 L 531.60 188.40 L 535.50 188.00 L 537.10 188.40 L 538.30 189.20 L 538.90 190.00 L 539.00 191.00 L 538.70 192.20 L 515.50 242.70 L 491.50 293.80 L 492.00 295.70 L 496.30 303.30 L 500.90 312.40 L 516.40 346.10 L 517.30 350.10 L 516.80 352.90 L 516.00 354.10 L 514.70 355.20 L 512.70 356.40 L 510.60 357.10 L 508.50 357.20 L 506.40 356.60 L 464.80 338.40 L 422.20 319.10 L 421.20 318.90 L 420.20 319.40 L 380.40 358.10 L 339.20 397.30 L 335.70 399.60 L 333.80 400.10 L 330.70 399.70 L 328.30 398.00 L 327.40 396.70 L 326.80 395.00 L 326.60 392.90 L 327.00 387.00 L 337.10 297.80 L 336.90 296.70 L 336.00 296.00 L 270.60 271.70 L 268.70 270.70 L 267.60 269.60 L 267.00 268.30 L 267.00 266.70 L 267.80 264.20 L 275.90 260.50 L 291.50 254.60 L 347.10 236.50 L 348.00 235.90 L 348.60 235.00 L 359.30 201.70 L 370.60 168.40 L 395.10 101.10 L 396.10 99.20 L 397.30 97.80 L 398.60 96.90 L 401.00 95.90 L 405.90 95.20 L 407.40 95.60 L 408.70 96.60 L 409.70 98.10 L 441.70 166.80 L 458.10 203.00 L 458.70 203.90 L 459.50 204.10 Z M 310.30 276.40 L 308.60 276.10 L 308.00 276.20 L 308.50 276.50 L 327.70 283.50 L 347.40 290.20 L 352.50 292.60 L 353.20 293.50 L 353.40 295.90 L 351.80 311.80 L 342.70 382.60 L 343.10 383.20 L 344.00 383.10 L 344.90 382.50 L 418.80 310.80 L 420.20 310.10 L 421.80 310.30 L 436.00 317.00 L 457.70 326.10 L 461.60 328.20 L 492.70 341.70 L 500.10 345.40 L 501.90 345.80 L 503.00 345.30 L 503.10 344.20 L 499.30 337.10 L 480.90 299.30 L 480.30 297.70 L 480.20 294.60 L 524.70 200.80 L 524.90 199.80 L 524.50 199.00 L 523.10 198.50 L 494.20 205.60 L 478.70 208.90 L 467.40 210.90 L 461.30 210.70 L 455.70 209.80 L 453.80 209.20 L 452.40 208.30 L 451.50 207.20 L 447.60 199.80 L 429.10 159.40 L 411.50 118.90 L 410.30 116.90 L 409.30 116.60 L 408.60 116.90 L 408.00 117.80 L 397.40 149.90 L 366.50 238.00 L 365.60 239.70 L 364.20 241.00 L 362.40 241.80 L 350.40 245.30 L 322.60 254.50 L 296.10 263.80 L 290.00 267.10 L 289.40 267.90 L 289.90 268.90 L 291.10 269.20 L 295.80 271.90 L 310.30 276.40 Z" fill="#ffffff" fill-rule="nonzero" node-id="60" stroke="none" target-height="304.90002" target-width="272" target-x="267" target-y="95.2"></path><path d="M 310.30 276.40 L 295.90 271.70 L 291.20 269.00 L 290.00 268.70 L 289.50 267.80 L 290.10 266.90 L 296.20 263.60 L 314.50 257.10 L 350.50 245.10 L 362.50 241.60 L 363.90 241.00 L 366.00 239.20 L 397.50 149.70 L 408.10 117.60 L 408.60 116.70 L 409.30 116.40 L 410.40 116.70 L 411.60 118.70 L 420.10 138.90 L 429.20 159.20 L 447.70 199.60 L 449.60 203.50 L 452.60 208.20 L 453.90 209.10 L 455.80 209.60 L 461.40 210.50 L 467.50 210.70 L 478.80 208.70 L 501.80 203.60 L 523.20 198.30 L 524.00 198.30 L 524.60 198.80 L 525.00 199.70 L 480.30 294.40 L 480.40 297.40 L 481.00 299.10 L 499.40 336.90 L 503.20 344.00 L 503.10 345.10 L 501.50 345.60 L 500.20 345.20 L 492.80 341.50 L 464.20 329.10 L 457.80 325.90 L 436.00 316.90 L 421.90 310.10 L 420.30 309.90 L 418.90 310.60 L 345.00 382.30 L 344.10 382.90 L 343.20 383.00 L 342.80 382.40 L 351.90 311.60 L 353.50 295.70 L 353.30 293.30 L 352.60 292.40 L 347.50 290.00 L 327.70 283.30 L 308.60 276.30 L 308.10 276.00 L 308.70 275.90 L 310.30 276.40 Z" fill="#ffbd87" fill-rule="nonzero" node-id="62" stroke="none" target-height="266.6" target-width="235.5" target-x="289.5" target-y="116.4"></path><path d="M 943.80 198.20 L 942.90 198.90 L 943.00 208.20 L 942.70 216.90 L 941.80 225.20 L 941.30 227.10 L 940.50 228.70 L 939.40 229.90 L 936.60 231.40 L 934.90 231.70 L 931.50 231.20 L 929.70 230.40 L 928.40 229.30 L 927.10 227.70 L 917.80 207.50 L 916.30 207.30 L 912.10 209.40 L 907.10 211.20 L 904.50 211.60 L 902.10 211.60 L 899.20 210.50 L 898.00 209.40 L 896.70 207.50 L 896.00 205.50 L 895.80 203.30 L 896.20 200.90 L 897.80 195.40 L 902.70 182.10 L 891.10 157.40 L 890.50 153.10 L 891.40 150.00 L 893.70 147.50 L 895.60 146.30 L 897.80 145.60 L 900.40 145.50 L 906.00 146.50 L 916.30 150.30 L 917.40 150.10 L 928.60 122.30 L 930.90 119.80 L 933.90 118.50 L 937.10 118.60 L 938.70 119.30 L 940.30 120.40 L 941.30 121.60 L 941.90 123.00 L 942.90 133.40 L 943.20 142.30 L 943.20 160.70 L 943.60 162.50 L 944.90 163.80 L 957.20 171.40 L 969.10 179.40 L 971.80 182.10 L 972.60 183.70 L 973.50 187.00 L 973.10 190.30 L 972.40 191.70 L 970.00 194.00 L 968.30 194.70 L 943.80 198.20 Z" fill="#ffffff" fill-rule="nonzero" node-id="64" stroke="none" target-height="113.2" target-width="83" target-x="890.5" target-y="118.5"></path><path d="M 878.10 882.20 L 878.60 878.80 L 877.90 825.80 L 879.60 797.20 L 881.00 783.10 L 881.80 778.20 L 884.40 765.40 L 887.30 756.10 L 890.10 748.70 L 892.40 743.60 L 895.10 738.70 L 898.20 733.90 L 901.80 729.10 L 905.80 724.50 L 910.20 720.40 L 914.70 716.90 L 919.50 714.00 L 924.60 711.60 L 930.00 709.80 L 934.50 708.70 L 943.20 707.90 L 947.50 708.00 L 953.10 708.70 L 958.60 710.00 L 964.10 711.90 L 969.30 714.30 L 974.50 717.20 L 979.60 720.60 L 980.90 721.30 L 981.50 721.30 L 981.80 720.70 L 981.60 716.00 L 981.80 712.50 L 982.70 708.80 L 984.10 705.10 L 985.80 701.40 L 988.10 697.90 L 990.70 694.70 L 993.60 691.80 L 996.90 689.40 L 999.60 687.80 L 1005.20 685.90 L 1008.30 685.40 L 1012.10 685.30 L 1015.80 685.50 L 1022.90 687.10 L 1023.90 686.90 L 1024.40 686.00 L 1024.90 680.90 L 1025.80 676.40 L 1027.10 672.40 L 1028.80 668.80 L 1031.00 665.40 L 1033.50 662.40 L 1036.30 659.70 L 1039.40 657.40 L 1046.30 653.90 L 1054.10 651.60 L 1059.50 650.90 L 1064.90 650.70 L 1070.60 651.10 L 1076.10 652.00 L 1081.50 653.50 L 1086.80 655.60 L 1091.50 658.00 L 1095.50 660.70 L 1099.00 663.70 L 1102.10 667.00 L 1104.70 670.60 L 1106.80 674.50 L 1108.50 678.90 L 1109.80 683.60 L 1110.60 684.70 L 1112.00 684.60 L 1116.20 682.70 L 1120.30 681.40 L 1124.40 680.60 L 1130.70 680.40 L 1137.50 681.80 L 1139.70 682.60 L 1143.10 684.90 L 1145.20 687.00 L 1146.90 689.50 L 1149.50 695.40 L 1150.20 696.40 L 1151.30 696.90 L 1152.40 696.70 L 1153.30 696.00 L 1155.00 693.50 L 1158.10 686.90 L 1160.60 683.70 L 1167.00 673.80 L 1168.90 669.90 L 1172.20 659.70 L 1174.90 653.70 L 1176.10 646.70 L 1176.00 645.00 L 1176.90 643.70 L 1178.40 637.60 L 1179.50 631.50 L 1180.30 625.20 L 1180.60 618.80 L 1181.50 616.10 L 1181.70 614.20 L 1181.90 592.10 L 1180.20 577.60 L 1179.50 573.70 L 1178.20 569.50 L 1171.50 552.50 L 1168.70 547.30 L 1165.20 541.80 L 1158.40 533.40 L 1152.20 527.80 L 1148.00 524.70 L 1147.20 523.40 L 1144.10 521.90 L 1142.20 520.50 L 1138.60 519.20 L 1136.60 518.20 L 1134.90 517.90 L 1132.70 516.40 L 1129.00 515.50 L 1126.50 513.50 L 1123.20 512.70 L 1109.20 511.00 L 1103.00 512.10 L 1097.10 512.40 L 1094.10 511.80 L 1092.20 510.10 L 1091.90 509.00 L 1092.40 489.50 L 1092.00 482.30 L 1092.20 470.60 L 1091.80 458.50 L 1090.80 445.90 L 1090.00 442.80 L 1089.70 439.70 L 1088.10 435.10 L 1087.30 430.30 L 1085.50 425.80 L 1082.20 413.20 L 1080.20 407.10 L 1077.80 401.30 L 1075.10 395.80 L 1074.60 393.30 L 1074.00 392.10 L 1072.20 389.60 L 1069.20 383.70 L 1065.90 378.10 L 1062.20 373.00 L 1058.30 368.20 L 1056.40 366.40 L 1042.20 356.20 L 1035.00 351.70 L 1027.60 347.70 L 1020.00 344.30 L 1013.70 342.00 L 1007.30 340.20 L 1000.70 338.70 L 994.00 337.70 L 987.10 337.10 L 980.60 337.20 L 974.40 337.80 L 968.30 338.90 L 949.50 343.70 L 948.40 343.20 L 947.20 341.00 L 944.90 338.60 L 929.10 331.70 L 924.80 330.10 L 918.00 328.20 L 911.10 326.90 L 904.20 326.10 L 897.30 325.80 L 890.40 326.10 L 883.30 326.90 L 878.20 327.90 L 872.90 329.50 L 866.00 332.10 L 863.00 333.60 L 851.20 341.20 L 841.60 348.70 L 839.60 350.80 L 836.50 352.60 L 833.30 355.10 L 832.00 355.50 L 829.20 355.70 L 828.50 355.60 L 823.90 352.90 L 822.10 352.40 L 816.50 351.90 L 801.20 351.90 L 800.10 351.20 L 799.20 349.90 L 796.20 344.00 L 792.80 338.60 L 787.40 332.30 L 784.40 329.50 L 781.00 327.00 L 777.30 324.90 L 773.10 323.00 L 768.50 321.40 L 763.90 320.20 L 755.10 319.10 L 749.30 319.10 L 743.50 319.70 L 737.70 321.00 L 732.00 322.70 L 726.20 325.00 L 720.40 327.80 L 719.40 327.90 L 718.60 327.30 L 715.50 322.90 L 712.10 319.00 L 708.50 315.40 L 704.60 312.20 L 700.40 309.40 L 696.00 307.00 L 691.40 305.00 L 686.60 303.40 L 681.70 302.30 L 676.60 301.60 L 671.30 301.30 L 665.80 301.60 L 661.70 302.30 L 657.80 303.40 L 654.20 304.90 L 650.90 306.90 L 647.70 309.40 L 642.20 314.60 L 639.90 317.80 L 635.80 321.40 L 632.00 328.20 L 629.40 331.40 L 629.00 332.70 L 627.50 333.50 L 624.50 337.50 L 623.20 340.80 L 621.80 342.40 L 620.80 346.00 L 619.60 348.90 L 617.60 352.20 L 617.40 353.40 L 616.30 354.70 L 615.00 357.90 L 613.10 360.00 L 612.10 362.60 L 609.20 367.00 L 609.00 372.20 L 608.40 373.20 L 607.10 374.50 L 606.70 377.40 L 605.10 381.90 L 604.60 385.00 L 602.00 390.30 L 600.90 394.50 L 598.40 400.10 L 598.00 401.90 L 598.30 408.50 L 600.20 418.80 L 600.20 419.80 L 599.80 420.40 L 592.60 421.60 L 586.10 423.20 L 579.30 425.50 L 572.60 428.40 L 566.00 431.80 L 559.40 435.60 L 552.80 440.00 L 546.20 444.90 L 539.60 450.40 L 533.50 456.10 L 527.90 462.10 L 522.50 468.60 L 517.60 475.40 L 513.00 482.70 L 509.10 489.80 L 505.90 497.00 L 503.20 504.30 L 501.10 511.60 L 499.50 519.10 L 498.50 526.70 L 498.10 534.50 L 498.10 543.20 L 497.70 543.60 L 496.80 543.60 L 477.10 540.70 L 470.10 540.20 L 462.80 540.20 L 455.10 540.90 L 447.20 542.20 L 438.80 544.20 L 433.20 546.00 L 427.80 548.20 L 422.60 550.80 L 417.60 553.80 L 412.70 557.30 L 406.90 562.20 L 401.60 567.40 L 396.90 573.00 L 392.70 578.90 L 388.90 585.20 L 385.60 591.90 L 382.90 599.00 L 380.60 606.60 L 378.80 614.70 L 376.20 630.40 L 374.40 632.80 L 367.40 638.80 L 362.80 643.20 L 358.20 648.50 L 353.90 654.20 L 350.10 660.30 L 346.00 668.90 L 344.50 673.30 L 343.40 677.70 L 342.90 682.10 L 342.90 686.40 L 343.40 690.20 L 344.40 693.80 L 345.80 697.40 L 347.70 700.80 L 350.20 704.30 L 354.80 708.60 L 367.50 717.60 L 371.80 721.00 L 375.70 724.70 L 379.10 728.60 L 382.10 732.80 L 384.70 737.30 L 386.90 742.20 L 388.70 747.40 L 382.90 755.40 L 381.40 758.70 L 380.60 759.10 L 379.60 758.90 L 377.40 757.30 L 370.50 754.10 L 364.00 750.40 L 357.90 746.40 L 352.20 742.00 L 346.80 737.10 L 341.80 731.90 L 337.30 726.40 L 333.10 720.50 L 329.40 714.30 L 326.10 708.00 L 323.30 701.30 L 320.90 694.40 L 319.00 687.40 L 317.60 680.20 L 316.60 672.90 L 316.20 665.30 L 316.30 659.00 L 316.80 653.00 L 317.80 647.00 L 319.20 641.30 L 320.90 635.60 L 325.60 624.70 L 331.60 614.50 L 338.80 605.20 L 342.90 600.80 L 348.80 595.30 L 355.00 590.20 L 362.40 585.00 L 362.80 583.30 L 362.70 577.30 L 363.00 571.50 L 363.80 565.90 L 365.10 560.40 L 366.80 555.10 L 369.10 549.90 L 371.80 544.80 L 374.80 540.20 L 378.20 535.90 L 381.90 531.80 L 385.90 527.90 L 394.80 521.10 L 404.60 515.40 L 411.50 512.30 L 418.50 509.80 L 425.60 507.90 L 432.70 506.40 L 440.30 505.20 L 444.60 504.80 L 448.80 505.00 L 449.60 504.70 L 449.80 504.00 L 449.60 489.40 L 450.80 475.20 L 451.90 468.20 L 453.50 461.30 L 455.50 454.70 L 458.00 448.20 L 460.90 442.00 L 464.10 436.00 L 467.80 430.30 L 471.80 424.90 L 476.30 419.90 L 481.10 415.10 L 486.30 410.80 L 491.80 406.80 L 497.70 403.30 L 504.00 400.10 L 510.80 397.40 L 517.20 395.30 L 523.70 393.60 L 530.20 392.30 L 537.00 391.40 L 546.20 390.80 L 555.50 390.70 L 565.00 391.30 L 574.80 392.40 L 584.80 394.20 L 590.50 395.60 L 596.10 397.60 L 597.00 397.50 L 597.50 396.80 L 598.50 390.00 L 600.00 383.10 L 602.00 376.30 L 606.90 362.90 L 609.80 356.40 L 614.70 346.90 L 620.00 337.80 L 624.90 330.40 L 630.00 323.40 L 635.40 317.00 L 640.90 311.00 L 646.70 305.50 L 652.20 301.00 L 658.00 296.80 L 664.10 293.00 L 670.60 289.60 L 677.60 286.50 L 684.90 283.80 L 692.80 281.40 L 700.90 279.50 L 709.20 278.00 L 717.50 277.00 L 725.90 276.60 L 734.20 276.60 L 742.60 277.20 L 750.80 278.40 L 758.80 280.20 L 764.80 281.90 L 776.20 286.50 L 781.70 289.30 L 787.00 292.50 L 792.00 296.10 L 796.90 300.10 L 801.60 304.60 L 806.50 310.10 L 811.00 316.00 L 814.90 322.10 L 818.40 328.50 L 821.50 335.30 L 824.00 342.50 L 826.70 351.60 L 827.60 352.60 L 829.70 353.60 L 830.70 353.50 L 831.80 352.80 L 837.00 347.50 L 842.50 342.80 L 848.20 338.40 L 854.20 334.50 L 860.40 331.10 L 866.90 328.00 L 873.70 325.40 L 880.90 323.20 L 887.60 321.60 L 894.50 320.60 L 901.40 320.10 L 908.40 320.00 L 915.40 320.50 L 922.40 321.30 L 929.30 322.60 L 936.10 324.30 L 942.80 326.40 L 949.40 328.80 L 962.60 334.80 L 968.40 331.70 L 974.70 329.80 L 981.00 328.50 L 987.10 327.70 L 993.20 327.50 L 999.20 327.80 L 1005.30 328.70 L 1011.30 330.10 L 1017.30 332.00 L 1023.40 334.50 L 1029.60 337.70 L 1035.70 341.40 L 1041.40 345.50 L 1046.80 350.10 L 1051.90 355.00 L 1056.70 360.20 L 1061.30 365.80 L 1069.50 377.70 L 1073.20 384.00 L 1077.80 392.80 L 1081.80 401.70 L 1085.30 411.00 L 1088.30 420.50 L 1090.70 430.10 L 1092.70 439.80 L 1094.20 449.70 L 1095.20 459.70 L 1095.80 469.80 L 1096.00 479.80 L 1095.70 489.80 L 1094.40 509.70 L 1095.10 509.90 L 1097.30 509.60 L 1103.40 508.20 L 1107.60 507.70 L 1119.50 508.50 L 1123.20 509.10 L 1130.30 511.10 L 1136.80 513.60 L 1142.80 516.50 L 1148.30 519.90 L 1153.50 523.80 L 1158.30 528.00 L 1162.60 532.60 L 1166.60 537.50 L 1170.10 542.80 L 1173.30 548.30 L 1176.10 554.00 L 1178.50 560.10 L 1182.20 572.60 L 1184.50 585.70 L 1185.20 594.60 L 1185.40 603.60 L 1185.00 612.50 L 1184.10 621.40 L 1182.90 629.90 L 1181.30 638.30 L 1179.30 646.30 L 1177.00 654.10 L 1173.70 663.50 L 1169.90 672.30 L 1165.70 680.60 L 1161.20 688.20 L 1156.30 695.40 L 1150.90 702.10 L 1145.20 708.30 L 1139.10 714.10 L 1132.50 719.40 L 1125.50 724.40 L 1118.00 728.90 L 1110.00 733.00 L 1101.50 736.70 L 1092.40 739.90 L 1084.40 742.20 L 1076.40 744.00 L 1068.30 745.30 L 1060.30 746.00 L 1052.20 746.30 L 1044.00 746.00 L 1035.80 745.30 L 1027.50 744.00 L 1020.40 742.50 L 1011.90 746.90 L 1003.50 750.80 L 1003.10 751.30 L 1003.10 751.90 L 1005.90 758.10 L 1008.30 764.40 L 1010.30 770.90 L 1011.80 777.50 L 1013.00 784.30 L 1014.00 792.80 L 1014.60 801.40 L 1014.60 809.90 L 1014.10 818.50 L 1012.40 833.50 L 1010.30 848.60 L 1007.60 863.80 L 1004.50 879.10 L 1002.20 888.50 L 999.70 897.50 L 996.80 906.20 L 993.60 914.50 L 990.10 922.50 L 984.60 932.90 L 978.10 942.10 L 974.40 946.30 L 970.40 950.00 L 966.10 953.40 L 961.60 956.40 L 956.80 958.80 L 951.70 960.80 L 946.20 962.30 L 940.30 963.20 L 934.80 963.50 L 929.30 963.20 L 923.90 962.40 L 918.40 961.10 L 913.00 959.20 L 907.40 956.70 L 901.30 953.30 L 895.90 949.60 L 891.10 945.60 L 886.90 941.30 L 883.20 936.80 L 879.90 931.90 L 877.20 926.60 L 875.00 921.00 L 873.20 915.00 L 872.30 910.90 L 871.80 906.80 L 871.80 902.80 L 872.20 898.60 L 873.00 894.60 L 874.30 890.50 L 875.90 886.40 L 878.10 882.20 Z M 903.80 945.50 L 908.20 948.40 L 914.80 951.50 L 920.80 953.20 L 926.40 954.30 L 931.70 954.80 L 936.70 954.80 L 941.40 954.40 L 946.10 953.40 L 950.70 951.90 L 955.00 950.00 L 959.10 947.70 L 963.00 944.80 L 966.60 941.70 L 970.10 938.10 L 973.30 934.10 L 976.40 929.70 L 979.40 924.70 L 983.60 916.40 L 987.20 908.00 L 990.10 899.60 L 993.60 887.20 L 996.70 874.50 L 999.40 861.60 L 1001.60 848.30 L 1003.40 834.70 L 1005.10 813.10 L 1005.20 805.40 L 1004.80 797.80 L 1004.00 790.20 L 1002.80 782.70 L 1001.00 775.30 L 998.80 768.10 L 996.10 761.00 L 992.70 754.00 L 989.10 747.70 L 985.10 742.00 L 980.90 736.80 L 976.30 732.20 L 972.20 728.90 L 968.00 726.00 L 963.50 723.70 L 958.90 721.80 L 954.10 720.50 L 949.30 719.70 L 944.40 719.40 L 939.50 719.80 L 934.60 720.70 L 929.90 722.20 L 925.30 724.30 L 920.70 727.10 L 917.10 729.90 L 913.80 733.10 L 910.60 736.60 L 905.20 744.30 L 902.90 748.50 L 899.90 755.00 L 897.50 761.60 L 895.20 769.60 L 893.30 777.80 L 891.80 786.30 L 890.60 795.00 L 889.90 804.00 L 889.10 818.80 L 888.90 840.20 L 889.50 861.70 L 891.00 883.40 L 890.60 885.20 L 888.10 889.80 L 886.20 894.40 L 884.90 899.10 L 884.10 903.70 L 883.80 908.40 L 884.20 913.20 L 885.20 918.10 L 886.80 923.10 L 888.80 927.80 L 891.10 932.00 L 893.70 935.90 L 896.70 939.40 L 900.10 942.60 L 903.80 945.50 Z" fill="#ffffff" fill-rule="nonzero" node-id="66" stroke="none" target-height="686.9" target-width="869.2" target-x="316.2" target-y="276.6"></path><path d="M 905.70 724.60 L 899.80 722.60 L 894.30 720.20 L 889.10 717.30 L 884.30 713.90 L 878.70 709.40 L 873.50 704.60 L 868.60 699.50 L 864.10 694.20 L 860.00 688.50 L 856.20 682.60 L 855.40 682.20 L 854.50 682.60 L 849.40 689.80 L 844.20 696.40 L 838.80 702.40 L 833.20 707.80 L 827.20 712.70 L 821.00 717.10 L 814.40 721.00 L 807.50 724.30 L 800.20 727.20 L 792.50 729.60 L 784.50 731.20 L 776.50 732.20 L 772.60 733.50 L 769.00 735.80 L 760.90 742.30 L 755.80 745.80 L 750.60 748.70 L 745.10 751.10 L 739.40 753.10 L 733.70 754.60 L 727.70 755.60 L 721.60 756.10 L 715.30 756.20 L 708.80 755.70 L 701.00 754.60 L 693.30 753.00 L 685.70 750.90 L 678.20 748.20 L 671.10 745.00 L 664.10 741.20 L 654.40 734.70 L 645.60 727.00 L 640.20 720.40 L 639.10 719.50 L 637.90 719.20 L 636.40 719.50 L 632.00 720.90 L 628.10 721.80 L 618.50 722.70 L 614.00 722.50 L 609.50 722.00 L 603.70 720.70 L 598.00 718.80 L 592.40 716.30 L 587.10 713.30 L 581.80 709.90 L 576.60 705.90 L 574.00 704.70 L 572.70 704.80 L 571.40 705.40 L 564.80 709.80 L 558.10 713.60 L 551.20 717.00 L 544.00 719.90 L 536.60 722.40 L 527.30 724.80 L 518.10 726.60 L 508.80 727.70 L 499.50 728.20 L 490.10 728.10 L 480.70 727.30 L 482.50 721.30 L 483.70 715.20 L 484.60 709.00 L 484.90 702.70 L 484.80 696.20 L 484.40 692.50 L 482.70 686.40 L 480.20 682.30 L 478.50 680.70 L 476.30 679.40 L 473.70 678.40 L 469.70 678.00 L 467.90 678.30 L 465.30 679.20 L 462.80 680.70 L 460.60 682.60 L 458.70 684.80 L 455.20 690.10 L 452.10 695.60 L 446.70 707.00 L 445.70 707.80 L 444.50 707.50 L 435.60 701.30 L 430.40 698.30 L 424.80 695.70 L 417.10 693.30 L 413.30 692.50 L 409.40 692.30 L 405.70 692.50 L 402.10 693.30 L 399.60 694.30 L 397.20 695.70 L 394.80 697.50 L 392.50 699.80 L 390.30 702.80 L 388.80 705.90 L 387.80 709.00 L 387.40 712.30 L 387.40 715.60 L 387.90 718.90 L 390.00 725.50 L 394.10 733.40 L 397.10 737.70 L 397.60 739.30 L 396.80 740.80 L 388.30 748.00 L 386.50 742.80 L 384.30 738.00 L 381.80 733.50 L 378.80 729.30 L 375.30 725.30 L 371.50 721.60 L 367.10 718.20 L 354.40 709.20 L 349.80 704.90 L 347.40 701.50 L 345.40 698.00 L 344.00 694.40 L 343.00 690.80 L 342.50 687.00 L 342.50 682.70 L 343.00 678.30 L 344.10 673.90 L 345.50 669.50 L 349.70 660.90 L 353.50 654.80 L 357.80 649.10 L 362.40 643.80 L 367.00 639.40 L 374.00 633.40 L 375.80 631.00 L 378.40 615.30 L 380.20 607.20 L 382.50 599.60 L 385.20 592.50 L 388.50 585.80 L 392.30 579.50 L 396.50 573.60 L 401.20 568.00 L 406.50 562.80 L 412.30 557.90 L 417.20 554.40 L 422.20 551.40 L 427.40 548.80 L 432.80 546.60 L 438.40 544.80 L 446.70 542.80 L 454.70 541.50 L 462.30 540.80 L 469.60 540.80 L 476.70 541.30 L 496.40 544.20 L 497.30 544.20 L 497.70 543.80 L 497.70 535.00 L 498.10 527.20 L 499.10 519.60 L 500.70 512.10 L 502.80 504.80 L 505.50 497.50 L 508.70 490.40 L 512.60 483.30 L 517.20 476.00 L 522.20 469.20 L 527.50 462.70 L 533.20 456.70 L 539.20 451.00 L 545.80 445.50 L 552.40 440.60 L 559.00 436.30 L 565.60 432.40 L 572.20 429.00 L 578.90 426.10 L 588.90 422.80 L 598.40 421.30 L 599.40 421.00 L 599.80 420.40 L 597.90 409.10 L 597.60 402.50 L 598.00 400.70 L 600.00 396.60 L 601.60 390.90 L 604.20 385.60 L 604.50 383.00 L 605.70 380.30 L 606.70 375.10 L 608.10 373.80 L 608.70 372.80 L 608.80 367.60 L 611.70 363.20 L 612.70 360.60 L 614.60 358.50 L 615.90 355.30 L 617.00 353.90 L 617.20 352.80 L 619.20 349.50 L 620.40 346.60 L 621.30 343.50 L 623.50 340.10 L 624.10 338.10 L 627.10 334.10 L 628.60 333.30 L 629.40 331.50 L 631.60 328.80 L 635.40 322.00 L 639.50 318.40 L 641.80 315.10 L 643.60 313.30 L 650.50 307.50 L 653.80 305.40 L 657.40 303.90 L 661.30 302.80 L 665.40 302.20 L 670.90 301.90 L 676.10 302.10 L 681.20 302.80 L 686.10 303.90 L 690.90 305.50 L 695.50 307.50 L 699.90 309.90 L 704.10 312.80 L 708.00 316.00 L 711.60 319.50 L 715.00 323.50 L 718.20 327.90 L 719.00 328.50 L 720.00 328.40 L 725.80 325.60 L 731.60 323.30 L 737.30 321.60 L 743.10 320.30 L 748.90 319.70 L 754.70 319.70 L 763.50 320.80 L 772.70 323.60 L 776.90 325.50 L 780.60 327.60 L 784.00 330.10 L 789.90 335.90 L 792.40 339.20 L 795.80 344.60 L 798.80 350.50 L 800.20 352.20 L 802.30 352.70 L 809.60 352.40 L 816.10 352.50 L 821.70 353.00 L 823.50 353.40 L 825.40 354.30 L 828.10 356.20 L 828.80 356.30 L 831.60 356.10 L 832.90 355.70 L 836.10 353.20 L 839.30 351.40 L 841.20 349.30 L 850.80 341.80 L 862.60 334.20 L 865.60 332.80 L 872.50 330.10 L 877.80 328.50 L 882.90 327.50 L 890.00 326.70 L 896.90 326.40 L 903.80 326.70 L 910.70 327.50 L 917.60 328.80 L 924.40 330.70 L 928.70 332.30 L 944.50 339.20 L 946.80 341.60 L 948.00 343.80 L 949.10 344.40 L 967.90 339.50 L 978.10 337.90 L 986.70 337.70 L 993.60 338.30 L 1000.30 339.30 L 1006.90 340.80 L 1013.30 342.60 L 1019.50 344.90 L 1027.20 348.30 L 1034.60 352.30 L 1041.80 356.80 L 1056.00 367.00 L 1057.90 368.80 L 1061.80 373.60 L 1065.50 378.70 L 1068.80 384.20 L 1071.80 390.20 L 1074.20 393.90 L 1074.70 396.40 L 1077.40 401.90 L 1079.80 407.70 L 1081.80 413.80 L 1085.10 426.40 L 1086.90 430.90 L 1087.40 434.70 L 1089.30 440.30 L 1089.40 442.90 L 1090.40 446.50 L 1091.40 459.10 L 1091.80 471.20 L 1091.60 482.90 L 1092.00 490.10 L 1091.50 509.60 L 1091.80 510.70 L 1093.70 512.40 L 1096.70 513.00 L 1102.60 512.70 L 1108.70 511.60 L 1111.40 511.70 L 1114.80 512.50 L 1115.80 512.20 L 1117.90 512.80 L 1122.80 513.30 L 1126.10 514.10 L 1126.80 514.40 L 1128.20 515.90 L 1132.30 517.00 L 1134.50 518.50 L 1136.20 518.70 L 1138.20 519.80 L 1141.00 520.70 L 1143.70 522.50 L 1146.80 524.00 L 1147.60 525.30 L 1151.80 528.40 L 1158.00 534.00 L 1164.80 542.40 L 1168.30 547.90 L 1171.10 553.10 L 1177.80 570.10 L 1179.10 574.30 L 1179.80 578.20 L 1181.50 592.70 L 1181.30 614.80 L 1181.10 616.70 L 1180.20 619.40 L 1179.10 632.00 L 1178.00 638.20 L 1176.50 644.30 L 1175.60 645.60 L 1175.70 647.30 L 1174.50 654.20 L 1171.80 660.30 L 1168.50 670.50 L 1166.60 674.40 L 1160.20 684.30 L 1157.70 687.50 L 1154.60 694.10 L 1152.90 696.60 L 1151.90 697.30 L 1150.80 697.50 L 1149.50 696.80 L 1146.50 690.10 L 1144.80 687.60 L 1142.80 685.50 L 1140.20 683.70 L 1137.10 682.40 L 1130.30 681.00 L 1124.00 681.10 L 1119.90 682.00 L 1115.80 683.30 L 1111.60 685.20 L 1110.20 685.20 L 1109.40 684.20 L 1108.10 679.40 L 1106.40 675.10 L 1104.20 671.10 L 1101.60 667.50 L 1098.60 664.30 L 1095.10 661.30 L 1091.00 658.60 L 1086.40 656.20 L 1081.10 654.10 L 1075.70 652.60 L 1070.20 651.70 L 1064.50 651.30 L 1059.10 651.40 L 1053.70 652.20 L 1049.70 653.10 L 1042.40 656.00 L 1039.00 658.00 L 1035.90 660.30 L 1033.10 663.00 L 1030.60 666.00 L 1028.40 669.40 L 1026.70 673.00 L 1025.40 677.00 L 1024.50 681.50 L 1024.00 686.60 L 1023.50 687.50 L 1022.50 687.70 L 1015.40 686.10 L 1011.70 685.90 L 1004.80 686.50 L 999.20 688.40 L 996.50 689.90 L 993.20 692.40 L 990.30 695.20 L 987.70 698.50 L 985.50 702.00 L 983.70 705.60 L 982.30 709.40 L 981.40 713.20 L 981.20 716.60 L 981.40 721.30 L 981.10 721.80 L 980.50 721.90 L 979.20 721.20 L 974.10 717.80 L 968.90 714.90 L 963.70 712.50 L 958.20 710.60 L 952.70 709.30 L 947.10 708.60 L 942.80 708.50 L 934.10 709.40 L 925.20 711.70 L 921.00 713.40 L 916.90 715.60 L 913.10 718.20 L 909.30 721.10 L 905.70 724.60 Z M 787.00 345.00 L 786.40 340.80 L 785.20 336.80 L 783.40 333.60 L 782.10 332.40 L 779.50 331.40 L 777.00 331.90 L 775.10 333.10 L 773.70 334.40 L 772.60 336.00 L 771.60 338.60 L 769.90 348.60 L 766.30 351.50 L 765.00 353.40 L 764.70 354.90 L 764.80 360.20 L 765.30 361.70 L 766.20 363.10 L 769.00 364.90 L 770.20 366.70 L 771.20 377.10 L 771.90 379.20 L 773.00 380.90 L 775.30 382.70 L 778.30 383.50 L 780.80 383.00 L 782.40 382.00 L 784.60 379.80 L 785.60 377.70 L 787.90 365.80 L 788.30 365.10 L 790.60 363.10 L 791.80 361.50 L 792.50 359.70 L 792.70 357.80 L 792.40 355.60 L 791.50 353.10 L 788.00 348.20 L 787.00 345.00 Z M 1030.70 382.00 L 1026.40 384.00 L 1025.00 386.20 L 1024.90 387.40 L 1025.10 388.50 L 1025.80 389.60 L 1031.00 392.40 L 1031.70 402.50 L 1032.00 404.30 L 1032.70 406.20 L 1033.90 407.80 L 1035.30 409.00 L 1037.70 409.50 L 1040.70 408.30 L 1043.30 406.50 L 1044.30 404.90 L 1045.30 402.10 L 1046.00 399.30 L 1046.90 392.80 L 1051.20 389.40 L 1052.10 388.30 L 1052.40 387.20 L 1051.80 384.90 L 1051.00 383.70 L 1047.50 380.00 L 1046.60 370.60 L 1046.00 368.60 L 1045.10 367.10 L 1043.90 366.00 L 1042.20 365.40 L 1040.00 365.10 L 1037.50 365.90 L 1036.50 366.90 L 1035.20 368.90 L 1034.10 371.30 L 1031.70 380.50 L 1031.40 381.30 L 1030.70 382.00 Z M 961.40 448.60 L 954.90 455.50 L 954.20 455.90 L 953.40 455.60 L 947.20 451.20 L 945.00 450.30 L 940.00 449.80 L 935.50 450.80 L 932.70 452.10 L 930.10 453.90 L 927.60 456.10 L 921.10 463.80 L 918.10 468.10 L 917.00 469.30 L 915.80 469.90 L 914.50 470.10 L 912.90 469.80 L 905.60 467.60 L 896.80 465.60 L 892.10 465.00 L 884.60 464.90 L 879.30 466.00 L 876.90 467.10 L 874.90 468.50 L 873.10 470.40 L 871.80 472.40 L 871.00 474.50 L 870.50 476.60 L 870.50 478.80 L 870.80 481.10 L 871.60 483.40 L 873.40 486.90 L 875.70 490.20 L 878.40 493.50 L 884.70 499.20 L 888.20 501.70 L 893.70 505.00 L 899.10 507.60 L 900.30 508.70 L 900.60 510.30 L 899.00 521.80 L 898.70 527.60 L 898.80 531.30 L 900.20 538.40 L 901.40 541.70 L 902.60 543.90 L 904.10 545.80 L 905.80 547.40 L 907.90 548.60 L 910.10 549.40 L 912.40 549.70 L 916.90 549.20 L 921.50 547.40 L 924.80 545.50 L 927.90 543.20 L 934.60 537.40 L 938.00 535.90 L 939.70 535.70 L 962.40 535.90 L 972.50 537.50 L 978.00 537.90 L 983.20 537.80 L 988.30 537.10 L 993.30 536.00 L 998.20 534.30 L 1003.10 532.10 L 1007.80 529.30 L 1012.60 526.00 L 1016.40 522.80 L 1020.00 519.20 L 1023.40 515.20 L 1026.50 510.90 L 1029.10 506.40 L 1031.40 501.70 L 1033.10 496.80 L 1034.30 491.80 L 1034.90 486.70 L 1034.80 483.40 L 1034.20 480.70 L 1033.30 478.40 L 1031.90 476.40 L 1030.30 474.60 L 1028.40 473.20 L 1025.10 471.50 L 1021.30 470.40 L 1013.20 469.30 L 1007.00 469.20 L 996.50 469.70 L 995.90 469.40 L 995.80 468.80 L 999.30 456.90 L 1000.70 447.70 L 1000.40 440.60 L 998.90 436.00 L 997.50 433.90 L 995.60 432.10 L 993.40 430.70 L 990.90 429.80 L 987.50 429.50 L 983.20 430.70 L 981.10 431.70 L 976.10 435.10 L 971.10 439.10 L 966.20 443.60 L 961.40 448.60 Z M 777.60 475.60 L 779.20 475.40 L 780.20 474.90 L 780.90 474.20 L 781.20 473.20 L 781.20 471.70 L 781.70 474.10 L 782.60 474.30 L 783.10 473.90 L 783.90 472.30 L 784.20 466.30 L 784.00 462.00 L 782.90 460.00 L 782.50 457.00 L 780.70 451.80 L 777.80 445.50 L 776.90 444.00 L 775.00 442.30 L 772.80 438.40 L 771.90 437.70 L 767.90 436.80 L 763.80 436.30 L 759.60 436.30 L 758.30 436.60 L 757.60 437.10 L 757.20 437.80 L 757.00 439.40 L 755.70 439.90 L 754.30 439.70 L 754.10 440.20 L 754.50 441.60 L 753.10 441.80 L 752.50 442.40 L 751.80 448.00 L 750.80 451.00 L 751.10 461.50 L 751.80 463.60 L 752.00 467.70 L 754.50 481.30 L 755.10 481.80 L 757.70 482.90 L 760.30 483.40 L 764.30 482.80 L 766.70 483.40 L 767.60 483.20 L 770.30 480.50 L 776.90 477.60 L 778.00 476.50 L 778.00 476.10 L 777.60 475.60 Z M 815.10 470.70 L 810.00 470.80 L 808.50 471.70 L 802.60 473.60 L 793.70 475.80 L 787.40 478.50 L 783.80 480.70 L 777.40 485.90 L 774.80 488.90 L 772.70 492.10 L 771.10 495.60 L 770.40 498.40 L 770.10 501.30 L 770.30 504.50 L 770.90 508.00 L 762.80 509.90 L 754.80 512.30 L 746.80 515.20 L 738.90 518.70 L 731.10 522.80 L 722.00 528.20 L 713.30 534.00 L 705.20 540.00 L 697.50 546.40 L 690.30 553.20 L 681.20 563.30 L 680.40 563.30 L 679.60 562.60 L 676.80 559.00 L 675.20 557.30 L 673.40 556.10 L 670.30 554.90 L 667.00 554.20 L 663.40 554.10 L 659.60 554.70 L 650.50 557.50 L 645.70 559.60 L 638.90 563.30 L 628.70 571.50 L 621.30 578.80 L 618.00 582.50 L 614.10 587.80 L 613.70 589.80 L 612.80 591.10 L 610.40 596.50 L 609.50 599.10 L 609.10 601.60 L 609.20 604.20 L 610.00 608.30 L 612.50 611.60 L 614.10 613.00 L 615.80 614.10 L 617.70 614.70 L 619.80 614.90 L 624.30 614.90 L 624.70 614.40 L 632.20 613.50 L 634.50 612.80 L 641.20 609.70 L 642.10 608.60 L 650.90 605.10 L 657.50 601.50 L 668.60 591.00 L 676.80 578.80 L 678.30 576.10 L 679.30 573.40 L 679.90 572.60 L 680.80 572.20 L 681.70 572.30 L 682.50 572.90 L 685.00 576.00 L 687.10 578.10 L 694.10 582.60 L 698.40 584.60 L 702.00 585.70 L 707.00 586.60 L 712.10 587.00 L 717.10 586.70 L 729.80 584.90 L 732.20 584.80 L 735.70 582.60 L 743.20 579.40 L 751.00 575.50 L 752.90 573.20 L 755.30 572.10 L 756.90 570.60 L 758.40 568.40 L 758.30 567.90 L 760.30 566.90 L 761.70 565.20 L 767.40 560.10 L 775.10 547.20 L 776.00 544.70 L 776.50 542.20 L 776.70 537.40 L 778.30 529.60 L 778.20 522.70 L 778.40 521.50 L 779.00 520.60 L 780.00 520.10 L 781.20 520.20 L 786.00 521.30 L 791.20 521.90 L 796.90 522.10 L 803.10 521.80 L 816.50 519.00 L 820.90 517.60 L 827.20 514.80 L 828.10 514.10 L 829.20 514.10 L 835.90 510.60 L 841.70 506.30 L 842.30 505.00 L 843.30 504.30 L 845.40 501.50 L 847.00 498.60 L 848.10 495.70 L 848.60 492.70 L 848.70 489.50 L 847.70 488.10 L 847.50 486.80 L 846.10 483.70 L 844.20 481.00 L 841.70 478.50 L 838.70 476.40 L 833.60 473.60 L 830.40 472.30 L 822.00 471.10 L 815.10 470.70 Z M 672.70 535.90 L 673.60 535.40 L 674.20 534.70 L 674.20 532.40 L 672.10 525.50 L 669.80 519.40 L 667.30 514.10 L 664.60 509.50 L 664.20 507.10 L 663.40 505.10 L 662.20 503.40 L 660.80 501.90 L 656.70 499.70 L 654.60 499.20 L 650.20 499.30 L 648.10 500.00 L 646.20 501.10 L 644.40 502.80 L 642.60 505.10 L 641.20 507.70 L 640.50 510.30 L 639.80 515.40 L 639.70 521.00 L 640.00 523.80 L 642.90 535.30 L 644.00 537.00 L 645.70 540.90 L 648.30 545.50 L 649.60 546.70 L 651.00 547.50 L 653.30 547.90 L 655.00 547.60 L 661.00 545.40 L 663.30 543.80 L 663.80 544.50 L 662.60 545.70 L 662.70 546.30 L 663.20 546.30 L 664.80 545.60 L 666.70 544.00 L 668.20 543.60 L 669.40 542.50 L 672.10 542.40 L 673.50 541.90 L 677.20 539.00 L 678.10 536.80 L 678.30 533.90 L 678.00 531.90 L 677.40 531.00 L 676.70 535.00 L 674.90 537.80 L 673.70 537.60 L 673.20 536.90 L 673.20 536.00 L 672.70 535.90 Z M 1134.30 572.70 L 1134.40 571.80 L 1135.30 570.30 L 1138.40 568.30 L 1139.80 566.90 L 1140.60 565.70 L 1140.90 564.40 L 1140.70 563.10 L 1140.00 561.80 L 1138.40 560.00 L 1135.20 557.60 L 1133.50 551.50 L 1132.80 549.90 L 1131.70 548.60 L 1130.00 547.70 L 1127.30 547.50 L 1124.60 548.80 L 1123.40 550.30 L 1122.50 552.00 L 1121.40 555.90 L 1120.30 558.40 L 1116.20 561.30 L 1115.00 562.80 L 1114.40 564.50 L 1114.40 565.60 L 1114.90 566.80 L 1116.10 568.20 L 1118.40 569.10 L 1119.90 570.50 L 1120.30 571.60 L 1121.20 579.70 L 1121.70 581.60 L 1122.60 583.30 L 1123.80 584.70 L 1125.00 585.50 L 1126.30 585.90 L 1129.00 585.60 L 1131.40 583.90 L 1132.30 582.70 L 1133.00 581.20 L 1133.90 577.20 L 1134.30 572.70 Z M 426.90 585.00 L 424.20 576.60 L 423.10 574.70 L 422.00 573.40 L 420.80 572.60 L 417.90 572.30 L 416.40 572.60 L 413.60 573.80 L 412.30 575.40 L 411.50 578.80 L 411.40 583.70 L 412.30 591.20 L 411.70 592.40 L 409.10 595.80 L 408.80 597.20 L 409.50 599.20 L 411.60 601.30 L 415.20 602.70 L 418.00 610.70 L 419.10 612.50 L 420.40 613.70 L 422.60 614.30 L 424.00 614.10 L 425.80 613.40 L 427.10 612.40 L 428.10 611.10 L 428.80 609.60 L 429.60 597.90 L 430.00 597.20 L 434.00 594.30 L 435.00 592.80 L 435.30 591.20 L 434.60 589.00 L 432.60 586.90 L 431.80 586.50 L 428.10 585.90 L 427.30 585.60 L 426.90 585.00 Z M 617.80 714.00 L 621.60 714.20 L 625.40 713.90 L 629.40 713.10 L 637.30 710.10 L 640.60 708.30 L 643.50 706.20 L 647.20 702.20 L 649.90 697.10 L 650.90 693.90 L 651.40 690.80 L 651.30 684.90 L 650.40 681.10 L 649.00 677.40 L 646.90 674.00 L 644.40 670.90 L 641.40 668.10 L 637.90 665.60 L 635.00 664.10 L 631.80 662.90 L 628.30 662.20 L 624.40 662.00 L 620.50 662.30 L 616.80 663.00 L 613.40 664.20 L 610.10 665.90 L 607.20 667.90 L 604.60 670.40 L 602.30 673.20 L 600.40 676.40 L 598.90 680.00 L 598.00 683.50 L 597.60 687.20 L 597.70 690.90 L 598.30 694.60 L 599.30 698.10 L 600.80 701.50 L 602.70 704.70 L 604.90 707.40 L 607.60 709.90 L 609.80 711.40 L 614.90 713.40 L 617.80 714.00 Z" fill="#cae3fe" fill-rule="nonzero" node-id="68" stroke="none" target-height="454.30002" target-width="839" target-x="342.5" target-y="301.9"></path><path d="M 787.00 345.00 L 788.00 348.10 L 791.50 352.90 L 792.40 355.40 L 792.70 357.60 L 792.50 359.50 L 791.80 361.30 L 790.60 362.90 L 788.30 364.90 L 787.90 365.60 L 785.60 377.50 L 784.60 379.60 L 782.40 381.80 L 780.80 382.80 L 778.30 383.30 L 775.20 382.50 L 773.00 380.70 L 771.90 379.00 L 771.10 377.00 L 770.20 366.50 L 768.90 364.70 L 766.30 362.90 L 765.30 361.60 L 764.80 360.00 L 764.60 358.30 L 765.00 353.20 L 766.20 351.30 L 769.90 348.40 L 771.60 338.50 L 772.60 335.80 L 773.70 334.30 L 775.10 332.90 L 777.00 331.70 L 779.50 331.20 L 782.10 332.20 L 783.40 333.40 L 785.20 336.60 L 786.40 340.90 L 787.00 345.00 Z" fill="#ffffff" fill-rule="nonzero" node-id="70" stroke="none" target-height="52.099976" target-width="28.100037" target-x="764.6" target-y="331.2"></path><path d="M 1031.80 380.50 L 1034.20 371.30 L 1035.30 368.90 L 1036.60 366.90 L 1038.80 365.30 L 1040.10 365.10 L 1042.40 365.30 L 1044.00 366.00 L 1045.30 367.10 L 1046.20 368.50 L 1047.20 375.10 L 1047.60 380.00 L 1051.10 383.60 L 1051.90 384.80 L 1052.50 387.20 L 1052.20 388.30 L 1051.30 389.40 L 1047.00 392.80 L 1046.10 399.30 L 1045.40 402.20 L 1044.40 404.90 L 1043.40 406.50 L 1042.20 407.50 L 1039.20 409.10 L 1036.60 409.40 L 1035.40 409.00 L 1034.00 407.80 L 1032.80 406.20 L 1032.10 404.30 L 1031.10 392.50 L 1025.90 389.60 L 1025.20 388.40 L 1025.00 387.30 L 1025.20 386.10 L 1026.50 384.00 L 1030.80 382.00 L 1031.80 380.50 Z" fill="#ffffff" fill-rule="nonzero" node-id="72" stroke="none" target-height="44.299988" target-width="27.5" target-x="1025" target-y="365.1"></path><path d="M 416.50 392.40 L 414.20 379.90 L 415.00 377.40 L 416.60 375.20 L 418.20 373.80 L 419.40 373.20 L 421.80 373.20 L 424.10 374.80 L 427.50 379.60 L 433.30 386.00 L 433.70 387.20 L 433.60 388.50 L 432.30 393.90 L 434.50 401.20 L 435.00 403.40 L 434.90 405.30 L 434.50 407.00 L 433.70 408.50 L 432.60 409.60 L 429.50 411.10 L 425.50 411.20 L 423.90 410.70 L 421.80 408.90 L 419.40 403.30 L 416.40 400.60 L 415.70 399.40 L 415.60 397.40 L 416.50 392.40 Z" fill="#ffffff" fill-rule="nonzero" node-id="74" stroke="none" target-height="38" target-width="20.799988" target-x="414.2" target-y="373.2"></path><path d="M 1165.40 417.10 L 1164.10 418.10 L 1162.70 420.00 L 1159.80 428.60 L 1158.70 430.70 L 1157.20 432.40 L 1154.30 433.90 L 1150.80 434.40 L 1148.50 433.70 L 1147.20 432.60 L 1146.30 431.10 L 1145.70 429.40 L 1145.70 427.40 L 1146.80 416.60 L 1145.00 413.50 L 1145.00 412.00 L 1146.10 409.80 L 1149.40 406.00 L 1151.70 394.90 L 1152.70 392.40 L 1155.10 389.10 L 1157.70 387.80 L 1161.80 387.60 L 1163.60 388.20 L 1165.00 389.20 L 1165.70 390.20 L 1166.30 393.10 L 1165.60 408.30 L 1166.10 409.60 L 1167.60 411.30 L 1167.90 413.40 L 1167.50 414.70 L 1166.70 415.90 L 1165.40 417.10 Z" fill="#ffffff" fill-rule="nonzero" node-id="76" stroke="none" target-height="46.799988" target-width="22.900024" target-x="1145" target-y="387.6"></path><path d="M 961.40 448.60 L 966.20 443.50 L 971.10 439.10 L 976.00 435.20 L 983.10 430.80 L 987.40 429.70 L 990.80 430.00 L 993.30 430.80 L 995.50 432.20 L 997.40 434.00 L 998.80 436.20 L 1000.30 440.80 L 1000.60 447.90 L 999.20 457.10 L 995.70 469.00 L 995.80 469.60 L 996.40 469.90 L 1004.00 469.40 L 1013.10 469.50 L 1021.20 470.50 L 1025.00 471.70 L 1028.30 473.40 L 1030.30 474.80 L 1031.90 476.50 L 1033.20 478.60 L 1034.20 480.90 L 1034.70 483.60 L 1034.80 486.90 L 1034.20 492.00 L 1033.10 497.00 L 1031.30 501.90 L 1029.10 506.60 L 1026.40 511.10 L 1023.40 515.30 L 1020.00 519.30 L 1016.30 523.00 L 1012.50 526.20 L 1007.70 529.50 L 1003.00 532.30 L 998.10 534.50 L 993.20 536.20 L 988.20 537.30 L 983.10 538.00 L 977.90 538.10 L 972.40 537.70 L 962.30 536.10 L 939.60 535.90 L 937.90 536.10 L 934.50 537.60 L 927.80 543.40 L 924.70 545.70 L 921.40 547.60 L 916.80 549.40 L 912.30 549.90 L 910.00 549.60 L 907.80 548.80 L 905.80 547.60 L 904.00 546.10 L 902.50 544.20 L 901.30 541.90 L 900.10 538.60 L 898.70 531.50 L 898.60 527.80 L 898.90 521.90 L 900.50 510.50 L 900.20 508.90 L 899.00 507.80 L 893.60 505.20 L 888.10 501.90 L 884.60 499.40 L 878.30 493.70 L 875.60 490.40 L 873.30 487.10 L 871.50 483.60 L 870.70 481.30 L 870.40 479.00 L 870.40 476.80 L 870.90 474.70 L 871.70 472.60 L 873.00 470.60 L 874.80 468.70 L 876.80 467.30 L 879.20 466.20 L 884.50 465.10 L 892.00 465.20 L 896.70 465.80 L 905.50 467.80 L 912.80 470.00 L 914.40 470.30 L 915.80 470.10 L 917.00 469.40 L 918.00 468.30 L 921.00 464.00 L 927.50 456.30 L 930.00 454.10 L 932.60 452.30 L 935.50 451.00 L 940.00 450.00 L 944.90 450.50 L 947.20 451.40 L 953.30 455.80 L 954.10 456.00 L 954.80 455.70 L 961.40 448.60 Z" fill="#fdc2c0" fill-rule="nonzero" node-id="78" stroke="none" target-height="120.20001" target-width="164.40002" target-x="870.4" target-y="429.7"></path><path d="M 781.20 471.80 L 780.70 466.50 L 778.70 456.20 L 777.20 451.20 L 775.90 448.20 L 774.10 445.20 L 771.90 442.50 L 769.50 440.40 L 767.60 439.40 L 765.80 438.90 L 763.80 438.90 L 761.90 439.40 L 759.90 440.60 L 757.70 442.70 L 756.50 444.30 L 754.80 448.20 L 754.10 451.40 L 753.80 454.70 L 754.10 461.10 L 755.10 467.60 L 758.00 479.80 L 758.50 480.70 L 759.20 481.20 L 761.10 481.40 L 777.60 475.70 L 778.00 476.60 L 777.50 477.30 L 776.30 478.00 L 770.40 480.60 L 769.20 481.50 L 767.70 483.30 L 766.80 483.50 L 764.40 482.90 L 760.40 483.50 L 757.70 483.00 L 755.20 481.90 L 754.30 480.60 L 753.50 474.20 L 752.10 467.80 L 751.90 463.70 L 751.20 461.60 L 750.90 451.10 L 751.90 448.10 L 752.60 442.50 L 753.20 441.90 L 754.70 441.70 L 754.20 440.30 L 754.40 439.80 L 755.80 439.90 L 757.20 439.50 L 757.30 437.90 L 757.70 437.20 L 758.40 436.70 L 763.90 436.40 L 768.00 436.90 L 772.00 437.80 L 772.90 438.50 L 775.10 442.40 L 777.00 444.10 L 780.80 451.90 L 782.60 457.10 L 783.00 460.10 L 784.10 462.10 L 784.30 466.40 L 783.80 473.10 L 783.20 474.00 L 782.20 474.40 L 781.70 474.20 L 781.20 471.80 Z" fill="#ffffff" fill-rule="nonzero" node-id="80" stroke="none" target-height="47.100006" target-width="33.399963" target-x="750.9" target-y="436.4"></path><path d="M 781.20 471.80 L 781.20 473.20 L 780.90 474.20 L 780.30 475.00 L 779.20 475.50 L 777.60 475.70 L 761.10 481.40 L 759.20 481.20 L 758.00 479.80 L 756.40 473.80 L 754.10 461.10 L 753.80 454.70 L 754.10 451.40 L 754.80 448.20 L 756.50 444.30 L 757.70 442.70 L 759.90 440.60 L 761.90 439.40 L 763.80 438.90 L 765.70 438.90 L 767.60 439.40 L 769.40 440.40 L 771.90 442.50 L 774.10 445.20 L 775.90 448.20 L 777.20 451.20 L 779.90 461.30 L 781.20 471.80 Z" fill="#120c14" fill-rule="nonzero" node-id="82" stroke="none" target-height="42.5" target-width="27.400024" target-x="753.8" target-y="438.9"></path><path d="M 426.10 445.00 L 426.50 443.80 L 427.60 443.10 L 430.20 443.00 L 432.30 444.10 L 433.70 446.10 L 434.60 453.40 L 434.30 456.00 L 432.80 457.90 L 430.60 458.80 L 429.20 459.00 L 428.00 458.60 L 427.30 457.50 L 426.10 445.00 Z" fill="#ffbd87" fill-rule="nonzero" node-id="84" stroke="none" target-height="16" target-width="8.5" target-x="426.1" target-y="443"></path><path d="M 414.10 445.80 L 416.20 445.80 L 417.50 446.40 L 418.40 447.40 L 419.00 448.80 L 420.60 458.40 L 420.50 459.90 L 420.00 461.20 L 418.90 462.10 L 417.50 462.70 L 415.40 462.70 L 414.20 462.10 L 413.20 461.10 L 412.60 459.70 L 411.00 450.00 L 411.10 448.50 L 411.70 447.30 L 412.70 446.30 L 414.10 445.80 Z" fill="#ffbd87" fill-rule="nonzero" node-id="86" stroke="none" target-height="16.900024" target-width="9.600006" target-x="411" target-y="445.8"></path><path d="M 399.00 447.80 L 401.00 447.60 L 402.40 448.10 L 403.50 449.10 L 404.20 450.50 L 407.30 462.20 L 407.40 463.80 L 406.90 465.20 L 405.90 466.30 L 404.50 467.00 L 402.50 467.20 L 401.10 466.70 L 400.00 465.70 L 399.30 464.30 L 396.20 452.60 L 396.10 451.00 L 396.60 449.60 L 397.60 448.50 L 399.00 447.80 Z" fill="#ffbd87" fill-rule="nonzero" node-id="88" stroke="none" target-height="19.600006" target-width="11.299988" target-x="396.1" target-y="447.6"></path><path d="M 1126.30 464.20 L 1128.10 465.00 L 1129.00 466.00 L 1129.60 467.40 L 1129.50 468.90 L 1127.10 478.60 L 1126.40 480.00 L 1125.40 480.90 L 1124.00 481.50 L 1122.50 481.40 L 1120.70 480.60 L 1119.80 479.60 L 1119.20 478.20 L 1119.30 476.70 L 1121.70 467.00 L 1122.40 465.60 L 1123.40 464.70 L 1124.80 464.10 L 1126.30 464.20 Z" fill="#ffbd87" fill-rule="nonzero" node-id="90" stroke="none" target-height="17.399994" target-width="10.400024" target-x="1119.2" target-y="464.1"></path><path d="M 1142.50 467.80 L 1144.50 468.70 L 1145.50 469.80 L 1145.90 471.20 L 1145.80 472.70 L 1142.90 482.80 L 1142.20 484.10 L 1141.10 485.10 L 1139.70 485.50 L 1137.50 485.20 L 1136.20 484.50 L 1135.20 483.40 L 1134.80 482.00 L 1134.90 480.50 L 1137.80 470.40 L 1138.50 469.10 L 1139.60 468.20 L 1141.00 467.70 L 1142.50 467.80 Z" fill="#ffbd87" fill-rule="nonzero" node-id="92" stroke="none" target-height="17.799988" target-width="11.099976" target-x="1134.8" target-y="467.7"></path><path d="M 642.60 608.10 L 652.30 602.20 L 657.10 598.60 L 661.60 594.70 L 665.80 590.50 L 669.70 585.90 L 673.10 581.10 L 675.90 576.10 L 678.20 570.80 L 678.80 566.90 L 678.10 563.10 L 677.30 561.30 L 674.70 558.40 L 671.10 556.70 L 667.20 556.00 L 663.60 555.90 L 660.40 556.30 L 654.50 557.70 L 650.30 559.20 L 647.40 560.60 L 631.80 570.70 L 628.80 573.40 L 620.80 581.50 L 616.00 587.80 L 613.90 591.50 L 612.30 595.30 L 611.20 599.00 L 610.90 601.50 L 611.00 603.90 L 611.50 606.10 L 612.50 608.10 L 614.00 610.00 L 616.20 611.80 L 620.10 613.40 L 622.30 613.70 L 625.60 613.70 L 632.70 612.20 L 636.10 611.10 L 642.00 608.40 L 641.10 609.50 L 637.80 611.20 L 632.10 613.30 L 624.60 614.20 L 624.20 614.70 L 617.60 614.50 L 615.80 613.90 L 614.00 612.80 L 611.00 609.90 L 609.90 608.10 L 609.10 604.00 L 609.00 601.40 L 609.40 598.90 L 612.70 590.90 L 613.60 589.60 L 613.70 588.20 L 617.90 582.30 L 624.80 574.90 L 631.10 569.10 L 640.60 562.00 L 645.60 559.40 L 655.00 555.70 L 659.50 554.50 L 663.40 554.00 L 666.90 554.10 L 670.20 554.70 L 673.30 555.90 L 675.20 557.20 L 679.50 562.40 L 680.30 563.10 L 681.10 563.10 L 690.20 553.00 L 697.40 546.20 L 705.10 539.80 L 713.30 533.70 L 721.90 528.00 L 731.00 522.60 L 738.80 518.50 L 746.70 515.10 L 754.60 512.10 L 762.60 509.70 L 770.80 507.80 L 771.70 509.40 L 771.80 510.40 L 771.50 511.10 L 766.80 518.00 L 761.90 524.40 L 756.60 530.40 L 751.00 536.00 L 745.20 541.10 L 738.90 545.80 L 732.40 550.10 L 725.50 554.00 L 718.20 557.60 L 710.50 560.70 L 704.30 562.70 L 697.80 564.10 L 691.00 565.00 L 683.90 565.30 L 683.30 565.60 L 683.10 566.30 L 683.80 568.40 L 685.00 570.30 L 688.10 573.70 L 691.30 576.50 L 694.60 578.70 L 698.10 580.50 L 701.80 581.90 L 705.50 582.80 L 709.30 583.40 L 713.30 583.50 L 718.50 583.20 L 723.80 582.40 L 729.10 581.00 L 734.20 579.10 L 739.30 576.90 L 744.10 574.30 L 753.00 568.30 L 756.90 565.10 L 760.50 561.50 L 763.70 557.80 L 766.40 553.90 L 768.70 549.90 L 770.60 545.60 L 772.10 541.20 L 773.30 536.70 L 774.10 532.00 L 774.50 525.70 L 774.30 519.30 L 773.50 512.70 L 776.20 514.60 L 779.10 516.20 L 782.30 517.40 L 785.70 518.30 L 789.30 518.80 L 795.90 519.10 L 802.10 518.80 L 808.10 518.10 L 813.90 517.00 L 819.40 515.40 L 824.70 513.30 L 829.90 510.80 L 834.90 507.80 L 837.90 505.50 L 840.70 502.50 L 842.40 500.30 L 844.80 495.60 L 845.60 493.00 L 845.80 490.40 L 845.70 487.90 L 845.00 485.40 L 843.80 483.00 L 841.80 480.60 L 839.20 478.40 L 836.20 476.50 L 832.80 475.10 L 815.20 470.50 L 828.40 471.20 L 830.30 471.60 L 833.50 472.90 L 838.60 475.80 L 841.60 477.90 L 844.00 480.30 L 846.00 483.10 L 847.40 486.20 L 847.70 487.60 L 848.50 488.40 L 848.50 492.10 L 848.00 495.10 L 846.90 498.00 L 845.30 500.90 L 843.20 503.70 L 842.20 504.40 L 841.60 505.70 L 837.20 509.00 L 832.70 511.80 L 830.40 512.60 L 829.20 513.60 L 827.90 513.50 L 827.10 514.20 L 820.80 517.00 L 812.20 519.30 L 803.00 521.20 L 796.80 521.50 L 791.10 521.30 L 785.90 520.70 L 781.10 519.60 L 779.90 519.60 L 778.90 520.10 L 778.30 521.00 L 778.10 522.10 L 778.20 529.00 L 777.80 532.10 L 776.50 536.90 L 776.40 541.60 L 775.90 544.10 L 775.00 546.60 L 767.30 559.50 L 761.60 564.60 L 760.20 566.30 L 758.20 567.30 L 758.30 567.80 L 756.90 570.00 L 755.20 571.50 L 752.70 572.70 L 751.30 574.50 L 749.80 575.40 L 741.40 579.60 L 735.60 582.00 L 732.10 584.20 L 729.70 584.30 L 717.00 586.10 L 712.00 586.40 L 706.90 586.00 L 701.90 585.10 L 698.30 583.90 L 694.00 582.00 L 687.00 577.50 L 684.90 575.40 L 682.40 572.30 L 681.60 571.70 L 680.60 571.60 L 679.70 572.00 L 679.20 572.80 L 676.70 578.20 L 674.00 582.00 L 673.20 583.70 L 668.50 590.50 L 665.90 593.10 L 657.40 600.90 L 650.80 604.50 L 642.60 608.10 Z" fill="#ffffff" fill-rule="nonzero" node-id="94" stroke="none" target-height="144.20001" target-width="239.5" target-x="609" target-y="470.5"></path><path d="M 815.10 470.70 L 832.70 475.30 L 836.10 476.70 L 839.10 478.60 L 841.70 480.80 L 843.70 483.20 L 844.90 485.60 L 845.60 488.10 L 845.70 490.60 L 845.50 493.20 L 844.70 495.80 L 842.30 500.50 L 840.60 502.70 L 837.80 505.70 L 834.80 508.00 L 829.80 511.00 L 824.60 513.50 L 819.30 515.60 L 813.80 517.20 L 808.00 518.30 L 802.00 519.00 L 795.80 519.30 L 789.20 519.00 L 785.50 518.50 L 782.10 517.60 L 779.00 516.40 L 776.10 514.80 L 771.40 511.30 L 771.70 510.60 L 771.50 509.60 L 770.70 508.00 L 770.10 504.50 L 770.00 501.30 L 770.30 498.40 L 771.00 495.60 L 772.60 492.10 L 774.60 488.80 L 777.30 485.80 L 783.60 480.70 L 787.20 478.50 L 793.60 475.80 L 802.60 473.60 L 808.30 471.70 L 809.80 470.80 L 815.10 470.70 Z M 807.20 496.60 L 809.50 496.60 L 810.80 496.00 L 812.60 494.70 L 814.40 492.60 L 815.80 490.10 L 817.10 487.00 L 817.90 483.80 L 818.20 480.90 L 818.00 478.10 L 817.40 476.00 L 815.80 473.90 L 814.80 473.40 L 812.50 473.40 L 811.20 474.00 L 809.40 475.30 L 807.60 477.40 L 806.20 479.90 L 804.90 483.00 L 804.10 486.20 L 803.80 489.10 L 804.00 491.90 L 804.60 494.00 L 805.30 495.20 L 807.20 496.60 Z M 788.10 503.10 L 790.30 503.00 L 793.20 500.90 L 794.90 498.70 L 796.20 496.10 L 797.40 493.00 L 798.10 489.70 L 798.30 486.80 L 798.10 484.10 L 797.50 482.00 L 796.00 480.00 L 795.00 479.50 L 792.80 479.60 L 789.90 481.70 L 788.20 483.90 L 786.90 486.50 L 785.70 489.60 L 785.00 492.90 L 784.80 495.80 L 785.00 498.50 L 786.30 501.80 L 788.10 503.10 Z" fill="#ffbd87" fill-rule="nonzero" node-id="96" stroke="none" target-height="48.599976" target-width="75.70001" target-x="770" target-y="470.7"></path><path d="M 1160.30 472.20 L 1162.00 473.10 L 1162.90 474.30 L 1163.30 475.80 L 1163.10 477.30 L 1159.40 487.50 L 1158.60 488.80 L 1157.40 489.70 L 1155.90 490.10 L 1154.00 489.80 L 1152.70 489.00 L 1151.80 487.80 L 1151.40 486.30 L 1151.60 484.80 L 1155.30 474.60 L 1156.10 473.30 L 1157.30 472.40 L 1158.70 472.00 L 1160.30 472.20 Z" fill="#ffbd87" fill-rule="nonzero" node-id="98" stroke="none" target-height="18.100006" target-width="11.900024" target-x="1151.4" target-y="472"></path><g node-id="166"><path d="M 814.80 473.40 L 816.70 474.80 L 817.40 476.00 L 818.00 478.10 L 818.20 480.90 L 817.90 483.80 L 817.10 487.00 L 815.80 490.00 L 814.30 492.60 L 812.50 494.60 L 809.50 496.60 L 807.20 496.60 L 805.30 495.20 L 804.60 494.00 L 804.00 491.80 L 803.80 489.10 L 804.10 486.20 L 804.90 483.00 L 806.20 479.90 L 807.70 477.40 L 809.50 475.30 L 811.20 474.00 L 812.50 473.40 L 814.80 473.40 Z" fill="#fe8d98" fill-rule="nonzero" group-id="1" node-id="102" stroke="none" target-height="23.200012" target-width="14.400024" target-x="803.8" target-y="473.4"></path></g><g node-id="167"><path d="M 795.00 479.50 L 796.80 480.80 L 798.10 484.10 L 798.30 486.80 L 798.10 489.70 L 797.40 493.00 L 796.20 496.10 L 794.80 498.70 L 793.20 500.90 L 791.50 502.30 L 789.10 503.20 L 788.10 503.10 L 786.30 501.80 L 785.00 498.50 L 784.70 495.80 L 784.90 492.80 L 785.70 489.60 L 786.80 486.40 L 788.20 483.90 L 789.90 481.70 L 792.80 479.60 L 795.00 479.50 Z" fill="#fe8d98" fill-rule="nonzero" group-id="2" node-id="107" stroke="none" target-height="23.700012" target-width="13.599976" target-x="784.7" target-y="479.5"></path></g><path d="M 357.80 499.10 L 359.80 498.90 L 361.20 499.30 L 362.30 500.30 L 363.00 501.70 L 365.80 511.40 L 365.90 513.00 L 365.50 514.40 L 364.50 515.50 L 363.10 516.20 L 361.10 516.40 L 359.70 516.00 L 358.60 515.00 L 357.90 513.60 L 355.10 503.90 L 355.00 502.30 L 355.50 500.90 L 356.50 499.80 L 357.80 499.10 Z" fill="#ffbd87" fill-rule="nonzero" node-id="110" stroke="none" target-height="17.50003" target-width="10.899994" target-x="355" target-y="498.9"></path><path d="M 664.60 509.50 L 659.80 504.90 L 655.90 502.80 L 652.40 502.30 L 649.10 503.20 L 647.60 504.10 L 645.20 506.70 L 644.20 508.40 L 643.20 511.10 L 642.60 514.00 L 642.40 517.10 L 642.80 521.90 L 643.80 526.80 L 645.30 531.60 L 649.30 540.60 L 651.40 544.40 L 652.30 545.50 L 653.10 546.00 L 654.10 546.00 L 655.30 545.50 L 672.60 535.80 L 673.30 536.00 L 674.10 537.30 L 675.30 537.50 L 677.10 534.70 L 677.80 530.70 L 678.00 530.70 L 678.40 531.60 L 678.70 533.70 L 678.10 537.80 L 676.90 539.40 L 673.90 541.60 L 672.50 542.10 L 669.80 542.20 L 668.60 543.30 L 667.00 543.70 L 665.20 545.30 L 663.60 546.00 L 663.00 545.90 L 663.00 545.40 L 664.20 544.20 L 663.70 543.40 L 660.60 545.40 L 655.40 547.30 L 653.70 547.60 L 651.40 547.20 L 650.00 546.40 L 648.70 545.20 L 643.30 535.00 L 640.40 523.50 L 640.10 520.80 L 640.20 515.20 L 640.90 510.00 L 641.70 507.40 L 643.00 504.80 L 644.70 502.50 L 646.50 500.80 L 648.50 499.70 L 650.60 499.00 L 652.80 498.80 L 657.10 499.40 L 659.30 500.40 L 661.30 502.10 L 662.90 504.20 L 664.00 506.60 L 664.60 509.50 Z" fill="#ffffff" fill-rule="nonzero" node-id="112" stroke="none" target-height="48.799988" target-width="38.600037" target-x="640.1" target-y="498.8"></path><path d="M 664.60 509.50 L 667.30 514.10 L 669.80 519.40 L 672.10 525.50 L 674.20 532.40 L 674.40 533.80 L 674.20 534.70 L 673.60 535.40 L 663.90 540.60 L 655.40 545.60 L 654.20 546.10 L 653.20 546.10 L 652.40 545.60 L 649.40 540.70 L 647.20 536.30 L 645.40 531.70 L 643.90 526.90 L 642.90 522.00 L 642.50 517.20 L 642.70 514.10 L 643.30 511.20 L 644.30 508.50 L 646.40 505.40 L 649.20 503.30 L 652.50 502.40 L 656.00 502.90 L 657.90 503.70 L 662.00 506.80 L 664.60 509.50 Z" fill="#120c14" fill-rule="nonzero" node-id="114" stroke="none" target-height="43.69998" target-width="31.900024" target-x="642.5" target-y="502.4"></path><path d="M 342.10 506.80 L 343.90 506.20 L 345.30 506.40 L 346.60 507.10 L 347.50 508.30 L 351.60 516.80 L 352.00 518.30 L 351.80 519.70 L 351.10 521.00 L 349.60 522.10 L 348.10 522.50 L 346.70 522.30 L 345.40 521.60 L 344.50 520.40 L 340.40 511.90 L 340.00 510.40 L 340.20 509.00 L 340.90 507.80 L 342.10 506.80 Z" fill="#ffbd87" fill-rule="nonzero" node-id="116" stroke="none" target-height="16.299988" target-width="12" target-x="340" target-y="506.2"></path><path d="M 771.50 511.30 L 773.50 512.90 L 774.30 519.50 L 774.50 525.90 L 774.10 532.20 L 773.30 536.90 L 772.10 541.40 L 770.60 545.80 L 768.70 550.10 L 766.40 554.10 L 763.70 558.00 L 760.50 561.70 L 756.90 565.30 L 753.00 568.50 L 744.10 574.50 L 739.30 577.10 L 734.30 579.30 L 729.10 581.20 L 723.80 582.60 L 718.50 583.50 L 713.30 583.80 L 709.40 583.60 L 705.50 583.00 L 701.80 582.10 L 698.10 580.70 L 694.70 578.90 L 691.30 576.70 L 688.10 573.90 L 685.00 570.50 L 683.80 568.60 L 683.10 566.50 L 683.30 565.80 L 683.90 565.50 L 691.00 565.20 L 697.80 564.30 L 704.30 562.90 L 710.50 560.90 L 718.20 557.80 L 725.50 554.30 L 732.40 550.30 L 738.90 546.00 L 745.10 541.30 L 751.00 536.20 L 756.60 530.70 L 761.90 524.70 L 766.80 518.20 L 771.50 511.30 Z" fill="#120c14" fill-rule="nonzero" node-id="118" stroke="none" target-height="72.5" target-width="91.400024" target-x="683.1" target-y="511.3"></path><path d="M 328.20 518.30 L 329.70 517.30 L 331.10 517.10 L 332.60 517.40 L 333.80 518.30 L 340.90 525.90 L 341.70 527.20 L 341.90 528.60 L 341.60 530.10 L 340.50 531.50 L 339.20 532.30 L 337.80 532.50 L 336.30 532.20 L 335.10 531.30 L 328.00 523.70 L 327.20 522.40 L 327.00 520.90 L 327.30 519.50 L 328.20 518.30 Z" fill="#ffbd87" fill-rule="nonzero" node-id="120" stroke="none" target-height="15.400024" target-width="14.899994" target-x="327" target-y="517.1"></path><path d="M 1134.30 572.70 L 1133.90 577.20 L 1133.00 581.10 L 1132.30 582.60 L 1131.40 583.80 L 1129.00 585.50 L 1126.30 585.80 L 1125.00 585.40 L 1123.80 584.60 L 1122.60 583.20 L 1121.70 581.50 L 1121.20 579.60 L 1120.30 571.50 L 1119.90 570.40 L 1118.40 569.00 L 1116.10 568.10 L 1115.00 566.70 L 1114.50 565.50 L 1114.50 564.40 L 1115.10 562.70 L 1116.30 561.20 L 1120.30 558.30 L 1121.40 555.80 L 1122.50 551.90 L 1123.40 550.20 L 1124.70 548.70 L 1127.40 547.40 L 1130.00 547.60 L 1131.70 548.60 L 1132.80 549.80 L 1133.60 551.40 L 1135.10 557.50 L 1138.40 559.90 L 1140.00 561.70 L 1140.70 563.10 L 1140.90 564.40 L 1140.60 565.70 L 1139.80 566.90 L 1135.30 570.30 L 1134.40 571.80 L 1134.30 572.70 Z" fill="#ffffff" fill-rule="nonzero" node-id="122" stroke="none" target-height="38.399963" target-width="26.400024" target-x="1114.5" target-y="547.4"></path><path d="M 642.60 608.10 L 635.90 611.10 L 629.00 613.20 L 625.50 613.70 L 622.10 613.70 L 619.90 613.40 L 616.10 611.80 L 613.90 610.00 L 612.40 608.10 L 611.40 606.10 L 610.90 603.90 L 610.80 601.50 L 611.10 599.00 L 612.20 595.30 L 613.80 591.50 L 615.90 587.80 L 620.70 581.50 L 628.70 573.40 L 631.70 570.80 L 635.10 568.30 L 647.30 560.60 L 650.20 559.20 L 654.40 557.70 L 660.30 556.30 L 663.60 555.90 L 667.10 556.10 L 671.00 556.70 L 673.00 557.40 L 674.60 558.40 L 677.20 561.30 L 678.50 564.90 L 678.60 568.80 L 678.10 570.80 L 675.90 576.00 L 673.10 581.10 L 669.60 585.90 L 665.80 590.40 L 661.60 594.60 L 657.10 598.50 L 652.30 602.10 L 642.60 608.10 Z M 655.50 578.50 L 655.70 575.70 L 655.30 569.30 L 654.20 565.50 L 653.30 564.30 L 651.60 563.60 L 650.40 563.70 L 648.30 564.50 L 646.90 565.60 L 645.90 567.00 L 645.40 568.70 L 645.00 572.50 L 645.00 576.50 L 645.40 580.90 L 646.40 584.00 L 647.40 585.30 L 648.50 586.10 L 649.40 586.20 L 651.60 585.30 L 654.30 582.10 L 655.50 578.50 Z M 628.40 592.90 L 628.90 595.00 L 629.80 596.40 L 630.90 597.40 L 632.50 597.90 L 633.70 597.70 L 635.60 596.40 L 637.10 594.90 L 638.20 593.20 L 639.00 591.30 L 639.40 589.10 L 639.70 584.50 L 639.50 580.10 L 638.40 574.40 L 637.70 573.50 L 636.90 573.10 L 635.80 573.10 L 634.20 573.70 L 632.30 575.00 L 630.80 576.60 L 629.70 578.60 L 628.40 583.20 L 628.10 589.50 L 628.40 592.90 Z" fill="#ffbd87" fill-rule="nonzero" node-id="124" stroke="none" target-height="57.799988" target-width="67.79999" target-x="610.8" target-y="555.9"></path><path d="M 655.50 578.50 L 655.10 580.40 L 653.20 583.70 L 650.40 585.90 L 648.50 586.00 L 647.40 585.20 L 645.80 582.30 L 645.00 576.40 L 645.00 572.40 L 645.40 568.60 L 645.90 566.90 L 646.80 565.60 L 648.30 564.50 L 650.40 563.60 L 652.50 563.70 L 654.20 565.50 L 655.30 569.30 L 655.70 575.70 L 655.50 578.50 Z" fill="#fe8d98" fill-rule="nonzero" node-id="126" stroke="none" target-height="22.400024" target-width="10.700012" target-x="645" target-y="563.6"></path><path d="M 428.00 586.00 L 431.70 586.60 L 433.40 587.70 L 435.10 590.30 L 435.10 592.50 L 433.90 594.40 L 429.90 597.30 L 429.50 598.00 L 429.00 607.80 L 428.70 609.70 L 428.10 611.20 L 427.10 612.50 L 425.80 613.50 L 423.90 614.20 L 421.30 614.20 L 420.30 613.70 L 419.00 612.50 L 417.90 610.70 L 415.10 602.80 L 410.70 600.80 L 408.80 598.20 L 408.70 597.30 L 409.00 595.90 L 411.60 592.50 L 412.20 591.30 L 411.20 581.30 L 411.70 576.80 L 412.80 574.50 L 414.80 573.20 L 417.80 572.40 L 420.70 572.70 L 421.90 573.50 L 423.00 574.80 L 424.00 576.80 L 426.80 585.10 L 428.00 586.00 Z" fill="#ffffff" fill-rule="nonzero" node-id="128" stroke="none" target-height="41.799988" target-width="26.399994" target-x="408.7" target-y="572.4"></path><path d="M 628.40 592.90 L 628.10 589.50 L 628.30 583.20 L 629.60 578.70 L 630.70 576.70 L 632.30 575.00 L 634.20 573.70 L 635.80 573.10 L 636.90 573.10 L 637.80 573.50 L 638.40 574.40 L 638.90 575.90 L 639.50 580.10 L 639.60 584.50 L 639.40 589.10 L 639.00 591.30 L 638.20 593.20 L 637.10 594.90 L 635.60 596.40 L 633.70 597.70 L 632.50 597.90 L 630.90 597.40 L 629.80 596.40 L 628.90 595.00 L 628.40 592.90 Z" fill="#fe8d98" fill-rule="nonzero" node-id="130" stroke="none" target-height="24.800049" target-width="11.5" target-x="628.1" target-y="573.1"></path><path d="M 617.80 714.00 L 614.90 713.40 L 609.80 711.40 L 607.60 709.90 L 604.90 707.40 L 602.60 704.70 L 600.80 701.50 L 599.30 698.10 L 598.30 694.60 L 597.70 690.90 L 597.70 687.20 L 598.10 683.50 L 599.00 680.00 L 600.50 676.40 L 602.40 673.20 L 604.70 670.40 L 607.30 667.90 L 610.20 665.80 L 613.50 664.20 L 616.90 663.00 L 620.60 662.30 L 624.50 662.00 L 628.40 662.20 L 631.90 662.90 L 635.10 664.10 L 638.00 665.60 L 641.50 668.10 L 644.40 670.90 L 646.90 674.10 L 649.00 677.50 L 650.40 681.10 L 651.30 684.90 L 651.50 690.80 L 650.00 697.10 L 647.30 702.20 L 643.60 706.20 L 640.70 708.30 L 637.40 710.10 L 633.70 711.70 L 629.50 713.10 L 625.50 713.90 L 621.60 714.20 L 617.80 714.00 Z" fill="#ffffff" fill-rule="nonzero" node-id="132" stroke="none" target-height="52.200012" target-width="53.799988" target-x="597.7" target-y="662"></path><path d="M 480.70 727.20 L 475.20 742.20 L 474.40 745.20 L 473.00 758.60 L 472.50 769.50 L 472.60 780.40 L 471.90 780.30 L 471.40 780.70 L 471.10 781.80 L 472.00 784.50 L 471.50 793.20 L 470.50 801.50 L 469.10 809.40 L 468.30 812.20 L 465.80 816.40 L 462.90 818.80 L 461.30 819.60 L 459.40 820.00 L 455.50 819.80 L 452.10 818.40 L 449.80 816.80 L 447.70 814.80 L 444.20 810.50 L 443.00 809.90 L 441.80 810.50 L 436.80 816.00 L 433.90 818.30 L 430.80 820.50 L 424.30 823.80 L 420.80 824.90 L 413.70 826.20 L 409.70 826.30 L 406.00 826.00 L 402.40 825.30 L 399.00 824.30 L 392.60 821.10 L 387.00 816.70 L 383.70 813.20 L 380.90 809.10 L 378.40 804.60 L 376.60 800.00 L 375.30 795.30 L 374.50 790.40 L 374.30 785.60 L 374.50 780.70 L 375.10 775.90 L 376.20 771.10 L 379.50 761.90 L 379.70 760.90 L 379.40 759.60 L 380.40 759.80 L 381.20 759.40 L 382.70 756.10 L 388.50 748.10 L 397.00 740.90 L 397.80 739.40 L 397.30 737.80 L 394.30 733.50 L 391.70 728.90 L 389.00 722.40 L 387.60 715.70 L 387.60 712.40 L 388.00 709.10 L 389.00 706.00 L 390.50 702.90 L 392.70 699.90 L 395.00 697.60 L 397.40 695.80 L 399.80 694.40 L 402.40 693.40 L 406.00 692.60 L 409.70 692.40 L 413.50 692.60 L 417.30 693.40 L 425.00 695.80 L 430.60 698.40 L 435.80 701.40 L 444.70 707.60 L 445.90 707.90 L 446.90 707.10 L 452.20 695.70 L 455.30 690.20 L 458.90 684.90 L 460.80 682.70 L 463.00 680.80 L 465.50 679.30 L 468.10 678.40 L 471.90 678.10 L 473.90 678.50 L 476.50 679.50 L 478.60 680.80 L 480.30 682.40 L 482.90 686.50 L 484.60 692.60 L 485.00 696.30 L 485.00 702.70 L 484.60 709.00 L 483.70 715.10 L 482.40 721.20 L 480.70 727.20 Z" fill="#fdc2c0" fill-rule="nonzero" node-id="134" stroke="none" target-height="148.20001" target-width="110.70001" target-x="374.3" target-y="678.1"></path><path d="M 905.70 724.60 L 901.70 729.20 L 898.10 734.00 L 895.00 738.80 L 892.30 743.70 L 890.00 748.80 L 887.20 756.20 L 884.30 765.50 L 877.60 765.70 L 871.00 765.50 L 864.50 764.70 L 858.00 763.40 L 851.60 761.70 L 843.90 759.00 L 836.60 755.70 L 829.70 752.00 L 823.20 747.80 L 817.10 743.10 L 811.30 737.90 L 805.90 732.10 L 805.00 731.80 L 800.20 738.10 L 793.00 746.60 L 787.10 753.10 L 784.30 755.50 L 780.60 760.10 L 779.40 762.10 L 778.80 762.70 L 778.10 762.50 L 777.40 762.90 L 773.10 767.80 L 768.50 772.20 L 763.60 776.20 L 758.50 779.70 L 753.10 782.90 L 747.40 785.60 L 742.70 787.40 L 733.20 789.70 L 721.80 790.70 L 707.30 790.40 L 692.00 798.60 L 685.90 801.20 L 679.60 803.20 L 672.60 804.90 L 672.10 806.80 L 669.00 806.20 L 661.30 806.50 L 653.60 806.30 L 645.80 805.60 L 638.00 804.30 L 638.00 804.90 L 637.20 803.60 L 630.60 801.20 L 624.60 798.60 L 618.90 795.70 L 613.40 792.30 L 608.10 788.50 L 607.10 788.10 L 606.00 788.30 L 596.90 792.50 L 587.90 796.00 L 581.80 798.00 L 569.50 801.00 L 563.30 802.00 L 556.90 802.60 L 550.30 802.80 L 542.10 802.50 L 526.70 800.90 L 519.40 799.50 L 512.70 797.80 L 506.10 795.60 L 499.50 793.00 L 493.00 789.80 L 486.50 786.10 L 480.00 781.80 L 480.20 780.80 L 479.50 779.80 L 477.80 779.70 L 473.80 782.30 L 473.30 782.20 L 472.50 780.60 L 472.40 769.70 L 472.90 758.90 L 473.90 748.10 L 475.10 742.40 L 480.60 727.40 L 490.00 728.10 L 499.40 728.30 L 508.70 727.80 L 518.00 726.60 L 527.20 724.90 L 536.50 722.50 L 543.90 720.10 L 551.10 717.10 L 558.00 713.80 L 572.70 704.90 L 574.00 704.80 L 575.30 705.20 L 581.70 709.90 L 587.00 713.40 L 592.40 716.30 L 597.90 718.80 L 603.60 720.70 L 609.40 722.00 L 618.40 722.80 L 623.10 722.50 L 628.00 721.90 L 637.90 719.30 L 639.10 719.60 L 645.50 727.10 L 654.30 734.70 L 664.00 741.30 L 671.00 745.00 L 678.10 748.20 L 685.60 750.90 L 693.20 753.10 L 700.90 754.70 L 708.70 755.80 L 715.20 756.20 L 721.50 756.20 L 727.60 755.60 L 733.60 754.60 L 739.40 753.20 L 745.00 751.20 L 750.50 748.80 L 755.70 745.90 L 760.80 742.40 L 768.10 736.60 L 772.50 733.60 L 776.40 732.30 L 784.40 731.30 L 792.40 729.70 L 800.10 727.30 L 807.40 724.40 L 814.30 721.10 L 820.90 717.20 L 827.10 712.80 L 833.10 707.90 L 838.70 702.50 L 844.10 696.50 L 849.30 689.90 L 854.40 682.70 L 855.30 682.30 L 856.10 682.70 L 859.90 688.70 L 864.00 694.30 L 868.50 699.70 L 873.30 704.70 L 878.60 709.50 L 884.20 714.00 L 889.10 717.30 L 894.30 720.20 L 899.90 722.60 L 905.70 724.60 Z" fill="#a3b6da" fill-rule="nonzero" node-id="136" stroke="none" target-height="124.5" target-width="433.30002" target-x="472.4" target-y="682.3"></path><path d="M 903.80 945.50 L 900.10 942.60 L 896.80 939.50 L 893.70 935.90 L 891.00 932.10 L 888.70 927.80 L 886.60 923.10 L 885.00 918.10 L 884.00 913.20 L 883.70 908.50 L 883.90 903.70 L 884.70 899.10 L 886.10 894.40 L 887.90 889.80 L 890.70 884.30 L 889.30 861.70 L 888.70 840.20 L 888.60 829.60 L 888.90 818.80 L 889.70 804.00 L 890.40 795.00 L 891.60 786.30 L 893.10 777.90 L 895.00 769.60 L 897.30 761.60 L 899.70 755.00 L 902.70 748.50 L 907.60 740.30 L 913.60 733.10 L 916.90 729.90 L 920.50 727.10 L 925.10 724.30 L 929.70 722.20 L 934.40 720.70 L 939.30 719.70 L 944.20 719.40 L 949.10 719.60 L 953.90 720.40 L 958.60 721.80 L 963.30 723.60 L 967.80 726.00 L 972.00 728.80 L 976.10 732.20 L 980.70 736.80 L 985.00 742.00 L 989.00 747.70 L 992.60 754.00 L 995.90 761.00 L 998.60 768.10 L 1000.80 775.30 L 1002.60 782.70 L 1003.80 790.20 L 1004.60 797.80 L 1005.00 805.40 L 1004.90 813.10 L 1003.20 834.70 L 1001.40 848.20 L 999.20 861.50 L 996.50 874.50 L 993.40 887.20 L 989.90 899.60 L 987.00 908.00 L 983.40 916.40 L 979.20 924.70 L 976.20 929.70 L 973.10 934.10 L 969.90 938.10 L 966.40 941.70 L 962.80 944.80 L 958.90 947.70 L 954.80 950.00 L 950.50 951.90 L 945.90 953.40 L 941.20 954.40 L 936.50 954.80 L 931.50 954.80 L 926.20 954.30 L 920.60 953.20 L 914.60 951.50 L 908.20 948.40 L 903.80 945.50 Z" fill="#feb4ba" fill-rule="nonzero" node-id="138" stroke="none" target-height="235.39996" target-width="121.29999" target-x="883.7" target-y="719.4"></path><path d="M 884.40 765.50 L 881.00 783.20 L 878.60 811.50 L 877.90 825.90 L 800.30 738.10 L 804.60 732.20 L 805.50 731.80 L 811.40 737.90 L 817.20 743.10 L 823.30 747.80 L 829.80 752.00 L 836.70 755.70 L 844.00 759.00 L 851.70 761.70 L 858.00 763.40 L 864.40 764.70 L 871.00 765.50 L 877.60 765.70 L 884.40 765.50 Z" fill="#120c14" fill-rule="nonzero" node-id="140" stroke="none" target-height="94.10004" target-width="84.10004" target-x="800.3" target-y="731.8"></path><path d="M 800.30 738.10 L 877.90 825.90 L 878.60 878.90 L 878.10 882.30 L 844.40 841.90 L 867.50 820.40 L 868.40 819.30 L 868.50 818.50 L 868.10 817.70 L 863.30 814.50 L 853.20 802.90 L 851.50 800.20 L 838.80 787.30 L 836.90 783.50 L 831.70 777.10 L 817.10 760.30 L 803.60 745.70 L 800.70 740.60 L 799.80 740.10 L 798.70 740.10 L 800.30 738.10 Z" fill="#fdc2c0" fill-rule="nonzero" node-id="142" stroke="none" target-height="144.20001" target-width="79.89996" target-x="798.7" target-y="738.1"></path><path d="M 798.70 739.90 L 799.90 739.90 L 800.70 740.40 L 803.60 745.50 L 817.10 760.10 L 831.70 776.90 L 836.60 782.90 L 838.80 787.10 L 851.50 800.00 L 853.20 802.70 L 863.30 814.30 L 868.10 817.50 L 868.50 818.20 L 868.30 819.10 L 867.50 820.20 L 844.40 841.70 L 822.30 815.80 L 800.40 789.40 L 778.90 762.60 L 779.50 762.10 L 780.70 760.10 L 784.50 755.40 L 787.20 753.00 L 793.10 746.60 L 798.70 739.90 Z" fill="#fe8d98" fill-rule="nonzero" node-id="144" stroke="none" target-height="101.79999" target-width="89.599976" target-x="778.9" target-y="739.9"></path><path d="M 480.10 781.70 L 477.40 781.50 L 475.40 782.10 L 473.00 783.40 L 473.00 782.70 L 473.30 782.00 L 474.40 781.80 L 477.80 779.50 L 479.60 779.70 L 480.20 780.10 L 480.40 780.80 L 480.10 781.70 Z" fill="#cae3fe" fill-rule="nonzero" node-id="146" stroke="none" target-height="3.9000244" target-width="7.399994" target-x="473" target-y="779.5"></path><path d="M 472.60 780.40 L 473.40 782.00 L 473.10 783.40 L 472.00 784.40 L 471.10 781.70 L 471.40 780.70 L 471.90 780.40 L 472.60 780.40 Z" fill="#ffffff" fill-rule="nonzero" node-id="148" stroke="none" target-height="4" target-width="2.2999878" target-x="471.1" target-y="780.4"></path><path d="M 672.20 806.80 L 662.50 895.90 L 656.50 892.50 L 650.50 889.60 L 644.30 887.30 L 638.10 885.60 L 628.70 884.40 L 638.00 804.30 L 645.80 805.60 L 653.50 806.30 L 661.30 806.50 L 669.00 806.20 L 670.70 806.30 L 672.20 806.80 Z" fill="#fe8d98" fill-rule="nonzero" node-id="150" stroke="none" target-height="91.60004" target-width="43.5" target-x="628.7" target-y="804.3"></path><path d="M 315.70 832.20 L 317.70 827.40 L 319.10 825.40 L 322.30 822.90 L 324.10 822.80 L 325.30 823.30 L 326.30 824.40 L 326.90 825.80 L 327.00 827.40 L 325.80 835.60 L 326.00 836.20 L 328.40 840.00 L 328.70 842.90 L 328.30 844.10 L 326.50 846.20 L 322.30 847.40 L 318.40 857.00 L 316.00 861.80 L 314.90 863.30 L 313.70 864.30 L 312.10 864.80 L 310.70 864.90 L 308.50 864.00 L 307.40 862.80 L 306.60 861.10 L 306.30 859.30 L 306.40 857.40 L 307.70 851.30 L 309.40 845.20 L 309.00 844.00 L 307.10 842.20 L 306.20 840.80 L 305.90 839.30 L 306.10 837.60 L 306.90 835.70 L 308.80 834.00 L 311.90 833.30 L 314.50 833.40 L 315.40 832.70 L 315.70 832.20 Z" fill="#ffffff" fill-rule="nonzero" node-id="152" stroke="none" target-height="42.100037" target-width="22.800018" target-x="305.9" target-y="822.8"></path><path d="M 1115.10 869.10 L 1114.10 868.70 L 1113.30 867.80 L 1113.00 866.00 L 1113.30 864.90 L 1115.00 863.60 L 1118.20 862.30 L 1119.10 858.70 L 1120.40 855.60 L 1122.40 852.40 L 1123.30 851.90 L 1125.60 851.80 L 1127.10 852.20 L 1128.20 852.90 L 1129.60 855.00 L 1129.80 856.50 L 1129.60 862.10 L 1130.50 863.10 L 1132.20 864.30 L 1132.80 865.50 L 1132.80 866.70 L 1131.70 868.80 L 1129.50 869.80 L 1127.90 871.30 L 1127.10 872.90 L 1125.50 881.80 L 1123.70 885.50 L 1121.60 887.40 L 1120.40 887.90 L 1118.90 887.80 L 1117.00 887.30 L 1115.80 886.50 L 1115.10 885.50 L 1114.70 884.20 L 1114.60 880.20 L 1115.00 875.80 L 1116.00 871.00 L 1116.00 870.10 L 1115.10 869.10 Z" fill="#ffffff" fill-rule="nonzero" node-id="154" stroke="none" target-height="36.100037" target-width="19.800049" target-x="1113" target-y="851.8"></path><path d="M 628.80 884.40 L 638.20 885.60 L 644.40 887.40 L 650.50 889.70 L 656.60 892.50 L 662.60 895.90 L 668.70 901.90 L 672.40 906.30 L 675.60 910.80 L 678.20 915.40 L 680.40 920.00 L 682.10 924.90 L 683.30 929.80 L 684.20 934.70 L 684.50 939.70 L 684.50 944.70 L 683.20 954.70 L 682.00 959.70 L 678.40 969.20 L 673.50 978.50 L 669.50 984.20 L 664.90 989.70 L 659.80 994.80 L 648.80 1004.00 L 642.50 1008.80 L 627.00 1019.60 L 611.10 1030.00 L 589.30 1043.00 L 567.10 1054.70 L 544.70 1064.80 L 535.80 1068.20 L 527.10 1070.90 L 518.60 1073.10 L 510.30 1074.70 L 502.20 1075.80 L 497.00 1076.20 L 486.90 1075.80 L 481.80 1075.00 L 477.00 1073.80 L 472.20 1072.20 L 467.60 1070.10 L 463.20 1067.60 L 459.00 1064.60 L 455.20 1061.30 L 448.50 1053.90 L 445.70 1049.80 L 442.30 1044.00 L 439.40 1037.90 L 437.00 1031.50 L 435.20 1025.00 L 433.80 1018.40 L 432.90 1011.70 L 432.40 1003.80 L 432.40 996.10 L 433.00 988.70 L 433.80 983.20 L 435.10 977.80 L 436.70 972.60 L 438.70 967.50 L 441.20 962.70 L 444.10 957.90 L 447.50 953.30 L 451.50 948.80 L 455.90 944.60 L 460.60 940.80 L 465.50 937.40 L 470.70 934.50 L 476.10 932.10 L 481.90 930.00 L 488.00 928.40 L 494.50 927.20 L 500.20 926.60 L 513.00 926.30 L 520.10 926.70 L 526.50 927.50 L 532.20 928.70 L 534.40 928.60 L 553.80 913.20 L 562.70 907.00 L 571.50 901.50 L 578.60 897.50 L 585.70 894.10 L 592.90 891.20 L 600.10 888.80 L 607.30 886.80 L 618.10 884.90 L 628.80 884.40 Z M 447.00 978.60 L 445.30 985.10 L 444.20 991.60 L 443.60 998.30 L 443.60 1005.00 L 444.20 1011.80 L 445.10 1017.80 L 446.60 1024.30 L 448.70 1030.70 L 451.50 1037.20 L 456.10 1045.20 L 461.70 1052.40 L 464.90 1055.50 L 468.30 1058.20 L 472.00 1060.60 L 476.00 1062.40 L 480.20 1063.70 L 485.50 1064.70 L 490.80 1065.20 L 496.20 1065.30 L 501.60 1064.90 L 509.10 1063.80 L 516.10 1062.40 L 522.90 1060.60 L 529.30 1058.50 L 541.40 1053.90 L 553.30 1048.80 L 565.10 1043.30 L 588.00 1031.20 L 599.20 1024.50 L 621.20 1010.30 L 632.10 1002.80 L 639.30 997.60 L 650.70 988.20 L 658.70 979.70 L 662.20 975.10 L 665.30 970.20 L 668.00 964.90 L 670.10 959.60 L 671.70 954.40 L 672.80 949.30 L 673.40 944.30 L 673.40 939.20 L 673.00 934.20 L 672.00 929.30 L 670.50 924.50 L 668.50 920.00 L 666.00 915.50 L 662.80 911.20 L 658.90 906.90 L 655.30 903.80 L 651.30 901.10 L 646.90 898.80 L 642.20 896.90 L 637.40 895.50 L 632.40 894.40 L 627.40 893.90 L 622.50 893.80 L 617.70 894.10 L 610.90 895.20 L 604.50 896.70 L 598.30 898.60 L 586.40 903.60 L 580.60 906.60 L 572.00 911.50 L 556.80 921.90 L 550.30 926.90 L 538.50 937.60 L 535.90 939.20 L 534.50 939.50 L 532.90 939.30 L 525.70 937.80 L 518.70 936.80 L 511.90 936.40 L 505.30 936.50 L 498.90 937.10 L 492.60 938.20 L 487.30 939.60 L 482.30 941.40 L 477.40 943.60 L 472.80 946.10 L 468.50 949.10 L 464.40 952.30 L 460.60 955.90 L 457.20 959.90 L 454.10 964.10 L 451.30 968.60 L 449.00 973.40 L 447.00 978.60 Z" fill="#ffffff" fill-rule="nonzero" node-id="156" stroke="none" target-height="191.79993" target-width="252.1" target-x="432.4" target-y="884.4"></path><path d="M 444.30 1011.80 L 444.80 991.70 L 445.80 988.20 L 446.20 983.00 L 447.10 978.60 L 449.10 973.40 L 451.40 968.60 L 454.20 964.10 L 457.30 959.90 L 460.70 955.90 L 464.50 952.30 L 468.60 949.10 L 472.90 946.10 L 477.50 943.60 L 482.40 941.40 L 487.40 939.60 L 492.70 938.20 L 498.90 937.10 L 505.40 936.40 L 511.90 936.30 L 518.70 936.80 L 525.70 937.70 L 533.00 939.30 L 534.60 939.50 L 536.00 939.20 L 538.60 937.60 L 550.40 927.00 L 563.60 917.10 L 572.10 911.50 L 580.70 906.60 L 586.50 903.60 L 598.40 898.60 L 604.60 896.70 L 611.00 895.20 L 617.80 894.10 L 622.60 893.80 L 627.50 893.90 L 632.50 894.40 L 637.50 895.40 L 642.30 896.80 L 647.00 898.70 L 651.40 901.00 L 655.40 903.80 L 659.00 906.90 L 662.90 911.20 L 666.10 915.50 L 668.60 920.00 L 670.60 924.60 L 672.10 929.40 L 673.10 934.20 L 673.50 939.20 L 673.50 944.30 L 672.90 949.30 L 671.80 954.40 L 670.20 959.60 L 668.10 964.90 L 665.40 970.20 L 662.30 975.10 L 658.80 979.70 L 650.80 988.20 L 646.30 992.10 L 639.40 997.60 L 621.40 1010.30 L 599.30 1024.50 L 588.10 1031.10 L 565.20 1043.30 L 553.50 1048.80 L 541.50 1053.90 L 529.40 1058.50 L 523.00 1060.60 L 516.20 1062.40 L 509.20 1063.80 L 501.70 1064.90 L 496.30 1065.30 L 490.90 1065.30 L 485.60 1064.70 L 480.30 1063.70 L 476.10 1062.40 L 472.10 1060.50 L 468.40 1058.20 L 465.00 1055.50 L 461.80 1052.40 L 458.80 1048.90 L 453.70 1041.30 L 451.60 1037.10 L 448.80 1030.70 L 446.70 1024.30 L 445.20 1017.80 L 444.30 1011.80 Z" fill="#feb4ba" fill-rule="nonzero" node-id="158" stroke="none" target-height="171.50006" target-width="229.20001" target-x="444.3" target-y="893.8"></path><path d="M 1112.30 1009.00 L 1096.60 1008.40 L 1094.40 1007.90 L 1092.90 1007.10 L 1091.90 1005.90 L 1091.20 1004.40 L 1090.80 1001.00 L 1091.30 998.30 L 1092.20 995.90 L 1097.60 986.50 L 1101.20 981.40 L 1101.80 980.10 L 1101.90 978.80 L 1095.00 964.10 L 1088.70 949.80 L 1088.20 948.10 L 1088.20 945.50 L 1089.00 943.90 L 1090.30 942.70 L 1092.00 942.00 L 1093.90 941.70 L 1095.90 941.80 L 1097.90 942.50 L 1105.20 946.20 L 1120.90 955.40 L 1121.60 955.00 L 1130.80 945.60 L 1141.10 935.70 L 1142.90 934.30 L 1144.80 933.50 L 1146.10 933.20 L 1148.60 933.50 L 1149.80 934.10 L 1150.80 935.00 L 1151.80 936.50 L 1152.40 938.10 L 1152.60 940.10 L 1152.30 942.70 L 1146.60 972.90 L 1158.00 982.60 L 1169.90 993.50 L 1170.90 994.70 L 1171.50 996.10 L 1171.60 997.70 L 1171.00 1000.20 L 1170.10 1002.00 L 1169.00 1003.20 L 1165.90 1004.90 L 1163.90 1005.40 L 1137.80 1007.30 L 1137.10 1007.60 L 1128.70 1028.80 L 1128.00 1029.90 L 1127.10 1030.70 L 1125.70 1031.20 L 1123.30 1031.50 L 1121.50 1031.20 L 1120.00 1030.50 L 1118.90 1029.20 L 1118.00 1027.20 L 1113.40 1009.80 L 1112.30 1009.00 Z M 1124.80 1017.30 L 1127.60 1011.00 L 1129.70 1004.30 L 1130.40 1002.80 L 1131.50 1001.80 L 1134.40 1000.70 L 1157.90 999.10 L 1160.20 998.40 L 1160.90 997.80 L 1161.20 997.10 L 1160.60 995.50 L 1141.70 979.40 L 1139.40 975.90 L 1138.90 972.40 L 1139.50 968.00 L 1143.20 951.20 L 1143.00 947.50 L 1142.70 947.10 L 1142.20 947.10 L 1141.30 947.70 L 1124.90 963.20 L 1122.70 964.20 L 1120.40 963.90 L 1117.20 962.50 L 1101.70 954.20 L 1100.70 954.50 L 1100.50 956.20 L 1100.90 957.40 L 1106.00 968.60 L 1110.70 980.20 L 1111.40 983.50 L 1111.20 985.20 L 1110.40 986.80 L 1106.00 992.90 L 1102.20 998.80 L 1102.00 1000.20 L 1103.00 1001.20 L 1104.60 1001.60 L 1116.60 1001.50 L 1118.10 1001.80 L 1119.20 1002.60 L 1119.90 1003.60 L 1121.00 1009.60 L 1122.10 1013.70 L 1123.60 1017.40 L 1123.80 1017.60 L 1124.10 1017.70 L 1124.80 1017.30 Z" fill="#ffffff" fill-rule="nonzero" node-id="160" stroke="none" target-height="98.29999" target-width="83.400024" target-x="1088.2" target-y="933.2"></path><path d="M 1129.70 1004.40 L 1126.30 1014.40 L 1124.80 1017.40 L 1124.10 1017.80 L 1123.40 1017.40 L 1121.90 1013.80 L 1120.80 1009.70 L 1119.70 1003.60 L 1119.00 1002.50 L 1117.90 1001.80 L 1116.40 1001.50 L 1104.30 1001.60 L 1102.80 1001.20 L 1101.90 1000.20 L 1102.00 998.80 L 1105.80 992.90 L 1110.20 986.80 L 1111.00 985.20 L 1111.20 983.60 L 1110.50 980.20 L 1105.80 968.60 L 1100.70 957.40 L 1100.30 956.10 L 1100.50 954.50 L 1101.50 954.20 L 1104.70 955.70 L 1117.00 962.50 L 1120.20 963.90 L 1122.60 964.20 L 1124.70 963.20 L 1129.10 959.30 L 1141.10 947.70 L 1142.00 947.10 L 1142.90 947.50 L 1143.20 949.80 L 1143.00 951.20 L 1138.70 972.40 L 1139.10 975.90 L 1139.90 977.40 L 1141.40 979.40 L 1160.40 995.50 L 1160.90 996.20 L 1161.00 997.10 L 1160.70 997.80 L 1160.00 998.40 L 1157.70 999.20 L 1134.40 1000.70 L 1131.50 1001.90 L 1130.40 1002.90 L 1129.70 1004.40 Z" fill="#ffbd87" fill-rule="nonzero" node-id="162" stroke="none" target-height="70.70001" target-width="60.69995" target-x="1100.3" target-y="947.1"></path><path d="M 447.00 978.60 L 446.10 983.00 L 445.70 988.30 L 444.70 991.70 L 444.20 1011.80 L 443.60 1005.00 L 443.60 998.30 L 444.20 991.60 L 445.30 985.10 L 447.00 978.60 Z" fill="#fdc2c0" fill-rule="nonzero" node-id="164" stroke="none" target-height="33.200012" target-width="3.399994" target-x="443.6" target-y="978.6"></path></svg>